M48
;GenerationSoftware,Autodesk,EAGLE,9.6.2*%
;CreationDate,2023-05-05T09:12:33Z*%
FMAT,2
ICI,OFF
METRIC,TZ,000.000
T12C0.100
T11C0.150
T10C0.200
T9C0.500
T8C0.650
T7C0.800
T6C0.890
T5C0.900
T4C1.016
T3C1.020
T2C1.630
T1C3.250
%
G90
M71
T1
X106840Y63975
X106840Y52545
T2
X103790Y50515
X103790Y66005
T3
X111740Y62345
X111740Y64885
X111740Y54175
X111740Y51635
T4
X53210Y61851
X111300Y82899
X48130Y61851
X50670Y61851
X101140Y82899
X55750Y61851
X101140Y80359
X103680Y80359
X103680Y82899
X106220Y80359
X106220Y82899
X108760Y80359
X108760Y82899
X111300Y80359
T5
X114950Y21450
X114150Y21450
X114550Y21450
X109050Y21450
X108600Y35950
X108150Y21450
X108600Y21450
X107700Y21450
X109500Y21450
X107700Y35950
X109500Y35950
X109050Y35950
X108150Y35950
X114550Y35950
X114150Y35950
X114950Y35950
T6
X100490Y56350
X97950Y57620
X100490Y58890
X97950Y60160
X100490Y53810
X97950Y62700
X100490Y61430
X97950Y55080
T7
X3450Y65320
X3450Y56680
X7650Y65320
X7650Y56680
T8
X55130Y77510
X55130Y85130
X52590Y77510
X52590Y85130
X50050Y77510
X50050Y85130
X57670Y77510
X57670Y85130
X60210Y85130
X60210Y77510
T9
X7150Y58100
X7150Y63900
T10
X110650Y21800
X107000Y15000
X105000Y19000
X108000Y20000
X113250Y7500
X110000Y14000
X93000Y39000
X94004Y33004
X94029Y24971
X94000Y27098
X94000Y30000
X105000Y26000
X103000Y10000
X110550Y27700
X99000Y27000
X110500Y28950
X99000Y30000
X110404Y30846
X99000Y32000
T11
X68000Y36000
X5000Y6000
X5000Y17000
X5000Y28000
X5000Y39000
X5000Y50000
X74000Y19000
X76500Y19000
X79000Y19000
X81500Y19000
X74000Y14000
X76500Y14000
X79000Y14000
X68000Y11000
X74000Y10000
X76745Y11000
X42000Y15000
X54000Y4000
X59000Y4000
X39000Y3000
X55350Y5500
X49000Y6000
X35600Y39450
X40400Y39450
X34000Y31000
X38000Y31000
X42800Y31000
X44400Y31000
X23600Y31000
X67000Y7000
X84000Y7000
X74000Y4000
X63000Y10000
X68000Y19000
X68000Y14000
X98000Y18000
X103000Y18000
X95000Y19000
X100000Y19000
X100000Y28000
X101000Y31000
X109000Y25000
X109000Y28000
X109000Y29605
X109000Y31251
X105000Y32795
X99000Y41000
X104000Y41000
X74000Y70000
X93000Y74000
X95000Y69000
X85000Y64000
X85000Y62000
X71500Y59500
X74000Y59500
X80000Y54000
X82500Y54000
X78450Y53000
X77000Y48000
X81100Y48750
X83550Y48750
X80000Y48150
X86000Y48150
X91000Y48150
X81963Y43963
X82000Y41994
X82000Y38350
X82000Y37355
X82000Y32000
X82000Y31000
X82000Y26000
X79000Y26000
X76450Y26000
X55000Y22000
X50000Y67000
X52550Y67000
X55750Y67000
X57650Y67000
X59950Y67000
X50000Y59000
X52000Y59000
X55000Y59000
X57000Y59000
X60000Y59000
X48350Y56450
X45000Y53000
X45000Y55000
X45000Y70000
X45000Y68000
X47000Y70000
X27000Y50000
X38000Y50000
X70000Y54000
X87000Y45000
X105000Y46000
X58000Y24450
X60000Y24450
X67500Y26550
X106000Y72000
X115000Y71000
X94000Y74000
X15450Y57000
X31750Y58000
X34700Y58000
X36750Y58000
X29750Y58000
X34200Y58000
X35750Y58000
X27000Y58000
X48750Y29000
X51250Y29000
X25000Y15000
X25000Y9600
X27000Y6200
X25000Y3532
X36000Y4000
X37000Y11000
X37000Y16000
X30000Y50000
X74000Y29000
X3000Y55000
X64000Y3000
X75000Y3000
X89000Y14000
X33000Y80000
X58000Y49000
X48550Y55444
X51250Y54000
X60000Y51000
X48550Y57450
X59000Y51000
X48550Y56944
X46000Y56700
X44745Y56750
X54000Y54000
X58000Y51000
X48550Y55950
X45555Y59000
X44745Y59300
X25950Y60450
X33050Y61298
X11000Y61000
X9400Y61250
X62000Y45000
X66000Y47000
X63000Y44000
X62000Y41000
X66000Y39000
X65000Y38000
X63000Y42000
X77000Y42000
X82450Y46950
X87950Y46950
X82700Y44550
X77000Y44500
X77000Y36950
X77000Y34450
X77000Y31950
X57000Y38000
X55000Y32000
X61000Y41000
X67500Y32000
X60000Y45000
X60000Y54000
X64000Y47000
X38000Y41550
X42800Y41550
X44400Y41550
X23000Y45000
X23000Y42500
X23000Y41000
X34000Y39450
X23000Y37500
X29200Y65150
X32750Y69250
X37750Y68150
X37750Y62650
X48000Y81000
X34000Y72500
X29250Y68156
X34400Y72750
X34750Y73068
X31250Y60495
X35300Y72350
X33750Y60500
X35800Y72350
X36950Y72350
X37450Y72350
X47000Y83000
X25000Y50000
X46250Y25000
X51250Y25000
X47000Y81000
X53000Y8000
X48000Y6000
X65000Y17000
X96000Y3000
X35205Y31500
X21400Y31200
X40200Y31400
X21400Y33700
X23750Y25000
X28800Y25000
X33800Y25000
X38800Y25000
X88000Y44000
X77901Y72000
X76750Y69440
X80500Y67400
X77600Y62550
X86000Y69000
X105600Y67000
X36000Y51000
X50000Y52000
X48000Y52000
X42000Y51000
X22000Y21000
X48000Y76000
X61000Y76000
X85000Y86000
X29000Y7000
X56000Y39000
X58000Y42000
X57500Y32000
X56000Y47000
X52500Y54000
X57000Y47000
X55000Y54000
X59000Y43000
X15000Y78000
X12000Y4000
X10000Y68000
X12000Y14000
X11000Y68000
X12000Y25000
X12000Y69000
X66000Y38000
X12000Y71000
X13000Y47000
X13000Y71000
X11000Y73000
X64000Y2000
X14000Y73000
X50000Y21000
X45000Y29000
X53300Y21000
X52000Y36000
X54000Y35000
X15000Y74000
X39000Y49000
X14000Y78000
X51200Y30000
X57000Y31000
X63000Y41000
X77000Y39500
X53000Y51000
X50000Y54000
X69000Y51000
X59000Y45000
X57750Y54000
X77000Y47000
X30000Y74000
X23000Y67000
X56500Y24450
X53750Y30000
X53000Y32000
X48550Y31405
X26000Y70000
X91000Y45000
X92000Y44000
X83000Y30000
X84000Y36000
X72000Y53000
X92000Y84000
X63000Y45000
X68500Y54000
X59000Y41000
X59600Y32000
X78600Y38250
X79000Y30500
X65500Y52000
X65137Y74437
X65000Y49000
X64550Y74450
X65000Y50000
X65698Y74448
X68000Y51000
X67506Y74000
X67000Y51000
X67000Y74000
X55000Y44000
X18000Y37000
X56000Y44000
X19000Y27650
X56000Y43000
X19000Y16650
X26300Y24000
X21250Y24000
X66000Y50000
X66260Y74460
X43750Y27400
X60000Y36000
X43750Y26800
X60300Y32000
X43750Y26200
X61000Y36000
X43750Y25650
X62000Y38000
X61000Y32000
X48350Y26750
X53750Y25000
X62500Y32000
X43750Y28000
X58400Y32000
X63000Y43000
X69000Y31500
X47100Y19050
X63000Y37000
X49550Y18600
X62000Y39000
X64100Y25950
X64100Y24500
X44600Y19500
X63000Y40000
X63511Y32000
X63500Y34350
X42000Y19950
X63006Y32900
X55850Y7550
X65000Y34000
X56356Y7550
X65500Y32000
X56861Y7550
X66500Y33000
X60000Y13000
X66000Y34000
X58350Y7550
X67000Y34000
X68000Y34000
X61500Y12500
X55000Y41000
X55000Y42000
X56000Y42000
X55000Y40000
X56000Y40000
X56000Y41000
X55000Y48000
X55000Y50000
X56000Y49000
X54000Y49000
X55000Y47000
X56000Y46000
X57000Y48000
X55000Y46000
X53000Y50000
X78950Y74750
X62000Y48000
X67000Y46000
X68000Y64850
X84500Y35000
X83000Y77000
X60000Y48000
X83000Y76494
X61000Y48000
X62000Y49000
X80250Y74000
X78161Y5000
X74000Y42000
X77150Y5000
X76450Y39905
X72900Y5000
X72888Y38988
X64000Y41000
X68000Y9700
X74650Y5000
X74600Y39400
X75650Y5000
X67000Y42000
X72300Y5000
X4000Y73550
X73487Y5013
X67000Y41000
X71150Y5000
X70000Y39000
X70000Y5000
X69000Y38000
X70587Y5013
X67000Y39000
X71737Y5013
X71150Y37850
X67000Y40000
X71750Y13750
X77656Y5000
X72000Y42000
X67000Y43000
X82000Y40000
X67000Y44000
X82000Y42500
X66000Y44000
X83500Y39500
X66000Y43000
X82000Y39000
X70000Y47000
X68450Y62400
X84000Y33000
X84000Y13000
X84500Y10150
X94000Y10000
X95000Y18000
X93000Y18000
X65000Y46000
X85000Y37000
X83550Y15000
X106500Y5000
X32950Y56450
X37950Y56450
X35091Y61309
X29950Y68200
X34550Y66450
X29500Y62450
X31050Y9526
X30500Y6250
X29250Y9121
X28250Y6200
X26050Y8405
X26050Y6200
X20550Y25400
X20550Y24000
X44000Y6000
X44000Y13000
X101000Y71000
X75150Y62500
X79035Y62000
X73300Y63000
X86000Y68000
X70950Y69700
X72450Y73450
X79035Y59250
X77725Y59250
X77725Y60000
X79035Y60000
X79650Y4000
X83000Y16550
X114600Y82000
X76150Y4000
X81000Y17000
X81000Y17700
X65000Y13000
X114000Y82000
X6450Y73550
X9000Y73550
X4000Y68550
X6500Y68550
X9000Y68550
X12050Y83000
X28000Y83000
X44000Y82950
X40000Y81000
X13000Y36000
X41900Y78300
X24000Y81000
X116000Y11000
X25850Y78300
X32000Y10150
X32000Y6250
X27550Y9400
X32600Y3950
X9900Y78350
X8000Y81000
X20050Y73500
X22500Y73500
X25000Y73500
X20000Y68500
X34000Y50000
X31000Y56000
X35000Y53700
X22500Y68500
X36050Y73500
X38500Y73500
X41000Y73500
X3000Y64000
X6000Y64000
X3000Y58000
X6000Y58000
X11550Y62000
X11550Y60000
X16000Y61000
X11500Y57600
X21000Y65000
X21000Y62450
X21000Y58500
X21000Y57000
X29250Y67300
X30250Y69250
X36250Y71650
X37750Y65150
X76000Y65000
X78000Y65000
X76000Y67000
X78000Y67000
X18000Y53000
X18000Y42000
X18000Y31000
X18000Y20000
X18000Y9000
X18000Y46000
X18000Y43000
X18000Y41000
X18000Y36000
X18000Y34000
X18000Y33000
X18000Y30000
X18000Y29000
X18000Y18000
X18000Y7000
X54000Y36000
X55000Y37000
X56000Y38000
X57000Y39000
X58000Y40000
X60000Y42000
X60000Y44000
X62000Y44000
X61000Y43000
X58000Y46000
X58000Y47000
X54000Y50000
X55000Y49000
X56000Y48000
X64000Y46000
X65000Y47000
X66000Y48000
X67000Y49000
X68000Y50000
X64000Y40000
X65000Y39000
X67000Y37000
X72300Y39000
T12
X36400Y41550
X37200Y31000
X41200Y41550
X39600Y31000
X43600Y41550
X38800Y31000
X39600Y41550
X38800Y41550
X42000Y41550
X43600Y31000
X33200Y41550
X34800Y41550
X41200Y31000
X37200Y41550
X42000Y31000
M30