G04 EAGLE Gerber RS-274X export*
G75*
%MOMM*%
%FSLAX34Y34*%
%LPD*%
%INCopper Layer 15*%
%IPPOS*%
%AMOC8*
5,1,8,0,0,1.08239X$1,22.5*%
G01*
%ADD10C,1.335000*%
%ADD11C,1.530000*%
%ADD12C,2.445000*%
%ADD13C,1.524000*%
%ADD14C,0.975000*%
%ADD15C,1.350000*%
%ADD16C,1.200000*%
%ADD17C,0.353200*%
%ADD18C,0.812800*%
%ADD19C,0.508000*%
%ADD20C,0.304800*%
%ADD21C,0.152400*%
%ADD22C,0.254000*%
%ADD23C,0.303200*%
%ADD24C,0.403200*%

G36*
X1140090Y9254D02*
X1140090Y9254D01*
X1140181Y9261D01*
X1140211Y9273D01*
X1140243Y9279D01*
X1140323Y9321D01*
X1140407Y9357D01*
X1140439Y9383D01*
X1140460Y9394D01*
X1140482Y9417D01*
X1140538Y9462D01*
X1170538Y39462D01*
X1170591Y39536D01*
X1170651Y39605D01*
X1170663Y39635D01*
X1170682Y39661D01*
X1170709Y39748D01*
X1170743Y39833D01*
X1170747Y39874D01*
X1170754Y39897D01*
X1170753Y39929D01*
X1170761Y40000D01*
X1170761Y850000D01*
X1170747Y850090D01*
X1170739Y850181D01*
X1170727Y850211D01*
X1170722Y850243D01*
X1170679Y850323D01*
X1170643Y850407D01*
X1170617Y850439D01*
X1170606Y850460D01*
X1170583Y850482D01*
X1170538Y850538D01*
X1140538Y880538D01*
X1140464Y880591D01*
X1140395Y880651D01*
X1140365Y880663D01*
X1140339Y880682D01*
X1140252Y880709D01*
X1140167Y880743D01*
X1140126Y880747D01*
X1140103Y880754D01*
X1140071Y880753D01*
X1140000Y880761D01*
X60000Y880761D01*
X59910Y880747D01*
X59819Y880739D01*
X59789Y880727D01*
X59757Y880722D01*
X59677Y880679D01*
X59593Y880643D01*
X59561Y880617D01*
X59540Y880606D01*
X59518Y880583D01*
X59462Y880538D01*
X19462Y840538D01*
X19409Y840464D01*
X19349Y840395D01*
X19337Y840365D01*
X19318Y840339D01*
X19291Y840252D01*
X19257Y840167D01*
X19253Y840126D01*
X19246Y840103D01*
X19247Y840071D01*
X19239Y840000D01*
X19239Y40000D01*
X19254Y39910D01*
X19261Y39819D01*
X19273Y39789D01*
X19279Y39757D01*
X19321Y39677D01*
X19357Y39593D01*
X19383Y39561D01*
X19394Y39540D01*
X19417Y39518D01*
X19462Y39462D01*
X49462Y9462D01*
X49536Y9409D01*
X49605Y9349D01*
X49635Y9337D01*
X49661Y9318D01*
X49748Y9291D01*
X49833Y9257D01*
X49874Y9253D01*
X49897Y9246D01*
X49929Y9247D01*
X50000Y9239D01*
X1140000Y9239D01*
X1140090Y9254D01*
G37*
%LPC*%
G36*
X1064662Y620959D02*
X1064662Y620959D01*
X1057756Y623820D01*
X1052470Y629106D01*
X1049609Y636012D01*
X1049609Y643488D01*
X1052470Y650394D01*
X1057756Y655680D01*
X1064662Y658541D01*
X1072138Y658541D01*
X1079044Y655680D01*
X1084330Y650394D01*
X1087191Y643488D01*
X1087191Y636012D01*
X1084330Y629106D01*
X1079044Y623820D01*
X1072138Y620959D01*
X1064662Y620959D01*
G37*
%LPD*%
%LPC*%
G36*
X1064662Y506659D02*
X1064662Y506659D01*
X1057756Y509520D01*
X1052470Y514806D01*
X1049609Y521712D01*
X1049609Y529188D01*
X1052470Y536094D01*
X1057756Y541380D01*
X1064662Y544241D01*
X1072138Y544241D01*
X1079044Y541380D01*
X1084330Y536094D01*
X1087191Y529188D01*
X1087191Y521712D01*
X1084330Y514806D01*
X1079044Y509520D01*
X1072138Y506659D01*
X1064662Y506659D01*
G37*
%LPD*%
%LPC*%
G36*
X1075354Y206225D02*
X1075354Y206225D01*
X1072313Y207485D01*
X1069985Y209813D01*
X1068725Y212854D01*
X1068725Y216146D01*
X1069985Y219187D01*
X1072313Y221515D01*
X1075354Y222775D01*
X1078646Y222775D01*
X1078959Y222645D01*
X1079047Y222624D01*
X1079134Y222596D01*
X1079167Y222596D01*
X1079198Y222589D01*
X1079289Y222598D01*
X1079380Y222598D01*
X1079420Y222610D01*
X1079443Y222612D01*
X1079472Y222625D01*
X1079541Y222645D01*
X1079854Y222775D01*
X1083146Y222775D01*
X1083459Y222645D01*
X1083547Y222624D01*
X1083634Y222596D01*
X1083667Y222596D01*
X1083698Y222589D01*
X1083789Y222598D01*
X1083880Y222598D01*
X1083920Y222610D01*
X1083943Y222612D01*
X1083972Y222625D01*
X1084041Y222645D01*
X1084354Y222775D01*
X1087646Y222775D01*
X1087959Y222645D01*
X1088047Y222624D01*
X1088134Y222596D01*
X1088167Y222596D01*
X1088198Y222589D01*
X1088289Y222598D01*
X1088380Y222598D01*
X1088420Y222610D01*
X1088443Y222612D01*
X1088472Y222625D01*
X1088541Y222645D01*
X1088854Y222775D01*
X1092146Y222775D01*
X1092459Y222645D01*
X1092547Y222624D01*
X1092634Y222596D01*
X1092667Y222596D01*
X1092698Y222589D01*
X1092789Y222598D01*
X1092880Y222598D01*
X1092920Y222610D01*
X1092943Y222612D01*
X1092972Y222625D01*
X1093041Y222645D01*
X1093354Y222775D01*
X1096646Y222775D01*
X1099687Y221515D01*
X1101809Y219393D01*
X1101825Y219381D01*
X1101838Y219366D01*
X1101925Y219310D01*
X1102009Y219250D01*
X1102028Y219244D01*
X1102045Y219233D01*
X1102145Y219208D01*
X1102244Y219177D01*
X1102264Y219178D01*
X1102283Y219173D01*
X1102386Y219181D01*
X1102490Y219184D01*
X1102509Y219190D01*
X1102528Y219192D01*
X1102623Y219232D01*
X1102721Y219268D01*
X1102737Y219280D01*
X1102755Y219288D01*
X1102886Y219393D01*
X1105033Y221541D01*
X1107967Y221541D01*
X1110041Y219467D01*
X1110041Y216533D01*
X1107967Y214459D01*
X1105033Y214459D01*
X1104574Y214918D01*
X1104516Y214960D01*
X1104464Y215010D01*
X1104417Y215032D01*
X1104375Y215062D01*
X1104306Y215083D01*
X1104241Y215113D01*
X1104189Y215119D01*
X1104139Y215134D01*
X1104068Y215132D01*
X1103997Y215140D01*
X1103946Y215129D01*
X1103894Y215128D01*
X1103826Y215103D01*
X1103756Y215088D01*
X1103711Y215061D01*
X1103663Y215043D01*
X1103607Y214999D01*
X1103545Y214962D01*
X1103511Y214922D01*
X1103471Y214890D01*
X1103432Y214829D01*
X1103385Y214775D01*
X1103366Y214727D01*
X1103338Y214683D01*
X1103320Y214613D01*
X1103293Y214547D01*
X1103285Y214476D01*
X1103277Y214444D01*
X1103279Y214421D01*
X1103275Y214380D01*
X1103275Y212854D01*
X1102015Y209813D01*
X1099687Y207485D01*
X1096646Y206225D01*
X1093354Y206225D01*
X1093041Y206355D01*
X1092976Y206370D01*
X1092941Y206384D01*
X1092919Y206387D01*
X1092866Y206404D01*
X1092833Y206404D01*
X1092802Y206411D01*
X1092711Y206402D01*
X1092620Y206402D01*
X1092580Y206390D01*
X1092557Y206388D01*
X1092528Y206375D01*
X1092491Y206364D01*
X1092483Y206363D01*
X1092478Y206360D01*
X1092459Y206355D01*
X1092146Y206225D01*
X1088854Y206225D01*
X1088541Y206355D01*
X1088476Y206370D01*
X1088441Y206384D01*
X1088419Y206387D01*
X1088366Y206404D01*
X1088333Y206404D01*
X1088302Y206411D01*
X1088211Y206402D01*
X1088120Y206402D01*
X1088080Y206390D01*
X1088057Y206388D01*
X1088028Y206375D01*
X1087991Y206364D01*
X1087982Y206363D01*
X1087978Y206360D01*
X1087959Y206355D01*
X1087646Y206225D01*
X1084354Y206225D01*
X1084041Y206355D01*
X1083976Y206370D01*
X1083941Y206384D01*
X1083919Y206387D01*
X1083866Y206404D01*
X1083833Y206404D01*
X1083802Y206411D01*
X1083711Y206402D01*
X1083620Y206402D01*
X1083580Y206390D01*
X1083557Y206388D01*
X1083528Y206375D01*
X1083491Y206364D01*
X1083483Y206363D01*
X1083478Y206360D01*
X1083459Y206355D01*
X1083146Y206225D01*
X1079854Y206225D01*
X1079541Y206355D01*
X1079476Y206370D01*
X1079441Y206384D01*
X1079419Y206387D01*
X1079366Y206404D01*
X1079333Y206404D01*
X1079302Y206411D01*
X1079211Y206402D01*
X1079120Y206402D01*
X1079080Y206390D01*
X1079057Y206388D01*
X1079028Y206375D01*
X1078991Y206364D01*
X1078982Y206363D01*
X1078978Y206360D01*
X1078959Y206355D01*
X1078646Y206225D01*
X1075354Y206225D01*
G37*
%LPD*%
%LPC*%
G36*
X1075354Y351225D02*
X1075354Y351225D01*
X1072313Y352485D01*
X1069985Y354813D01*
X1068725Y357854D01*
X1068725Y361146D01*
X1069985Y364187D01*
X1072313Y366515D01*
X1075354Y367775D01*
X1078646Y367775D01*
X1078959Y367645D01*
X1079047Y367624D01*
X1079134Y367596D01*
X1079167Y367596D01*
X1079198Y367589D01*
X1079289Y367598D01*
X1079380Y367598D01*
X1079420Y367610D01*
X1079443Y367612D01*
X1079472Y367625D01*
X1079541Y367645D01*
X1079854Y367775D01*
X1083146Y367775D01*
X1083459Y367645D01*
X1083547Y367624D01*
X1083634Y367596D01*
X1083667Y367596D01*
X1083698Y367589D01*
X1083789Y367598D01*
X1083880Y367598D01*
X1083920Y367610D01*
X1083943Y367612D01*
X1083972Y367625D01*
X1084041Y367645D01*
X1084354Y367775D01*
X1087646Y367775D01*
X1087959Y367645D01*
X1088047Y367624D01*
X1088134Y367596D01*
X1088167Y367596D01*
X1088198Y367589D01*
X1088289Y367598D01*
X1088380Y367598D01*
X1088420Y367610D01*
X1088443Y367612D01*
X1088472Y367625D01*
X1088541Y367645D01*
X1088854Y367775D01*
X1092146Y367775D01*
X1092459Y367645D01*
X1092547Y367624D01*
X1092634Y367596D01*
X1092667Y367596D01*
X1092698Y367589D01*
X1092789Y367598D01*
X1092880Y367598D01*
X1092920Y367610D01*
X1092943Y367612D01*
X1092972Y367625D01*
X1093041Y367645D01*
X1093354Y367775D01*
X1096646Y367775D01*
X1099687Y366515D01*
X1102015Y364187D01*
X1103275Y361146D01*
X1103275Y357854D01*
X1102015Y354813D01*
X1099687Y352485D01*
X1096646Y351225D01*
X1093354Y351225D01*
X1093041Y351355D01*
X1092953Y351376D01*
X1092866Y351404D01*
X1092833Y351404D01*
X1092802Y351411D01*
X1092711Y351402D01*
X1092620Y351402D01*
X1092580Y351390D01*
X1092557Y351388D01*
X1092528Y351375D01*
X1092459Y351355D01*
X1092146Y351225D01*
X1088854Y351225D01*
X1088541Y351355D01*
X1088453Y351376D01*
X1088366Y351404D01*
X1088333Y351404D01*
X1088302Y351411D01*
X1088211Y351402D01*
X1088120Y351402D01*
X1088080Y351390D01*
X1088057Y351388D01*
X1088028Y351375D01*
X1087959Y351355D01*
X1087646Y351225D01*
X1084354Y351225D01*
X1084041Y351355D01*
X1083953Y351376D01*
X1083866Y351404D01*
X1083833Y351404D01*
X1083802Y351411D01*
X1083711Y351402D01*
X1083620Y351402D01*
X1083580Y351390D01*
X1083557Y351388D01*
X1083528Y351375D01*
X1083459Y351355D01*
X1083146Y351225D01*
X1079854Y351225D01*
X1079541Y351355D01*
X1079453Y351376D01*
X1079366Y351404D01*
X1079333Y351404D01*
X1079302Y351411D01*
X1079211Y351402D01*
X1079120Y351402D01*
X1079080Y351390D01*
X1079057Y351388D01*
X1079028Y351375D01*
X1078959Y351355D01*
X1078646Y351225D01*
X1075354Y351225D01*
G37*
%LPD*%
%LPC*%
G36*
X1139854Y351225D02*
X1139854Y351225D01*
X1136813Y352485D01*
X1134485Y354813D01*
X1133225Y357854D01*
X1133225Y361146D01*
X1134485Y364187D01*
X1136813Y366515D01*
X1139854Y367775D01*
X1143146Y367775D01*
X1143209Y367749D01*
X1143297Y367728D01*
X1143384Y367700D01*
X1143417Y367700D01*
X1143448Y367693D01*
X1143539Y367701D01*
X1143630Y367702D01*
X1143670Y367713D01*
X1143693Y367716D01*
X1143722Y367729D01*
X1143791Y367749D01*
X1143854Y367775D01*
X1147146Y367775D01*
X1147209Y367749D01*
X1147297Y367728D01*
X1147384Y367700D01*
X1147417Y367700D01*
X1147448Y367693D01*
X1147539Y367701D01*
X1147630Y367702D01*
X1147670Y367713D01*
X1147693Y367716D01*
X1147722Y367729D01*
X1147791Y367749D01*
X1147854Y367775D01*
X1151146Y367775D01*
X1154187Y366515D01*
X1156515Y364187D01*
X1157775Y361146D01*
X1157775Y357854D01*
X1156515Y354813D01*
X1154187Y352485D01*
X1151146Y351225D01*
X1147854Y351225D01*
X1147791Y351251D01*
X1147703Y351272D01*
X1147616Y351300D01*
X1147583Y351300D01*
X1147552Y351307D01*
X1147461Y351299D01*
X1147370Y351298D01*
X1147330Y351287D01*
X1147307Y351284D01*
X1147278Y351271D01*
X1147209Y351251D01*
X1147146Y351225D01*
X1143854Y351225D01*
X1143791Y351251D01*
X1143703Y351272D01*
X1143616Y351300D01*
X1143583Y351300D01*
X1143552Y351307D01*
X1143461Y351299D01*
X1143370Y351298D01*
X1143330Y351287D01*
X1143307Y351284D01*
X1143278Y351271D01*
X1143209Y351251D01*
X1143146Y351225D01*
X1139854Y351225D01*
G37*
%LPD*%
%LPC*%
G36*
X1139854Y206225D02*
X1139854Y206225D01*
X1136813Y207485D01*
X1134485Y209813D01*
X1133225Y212854D01*
X1133225Y216146D01*
X1134485Y219187D01*
X1136813Y221515D01*
X1139854Y222775D01*
X1143146Y222775D01*
X1143209Y222749D01*
X1143297Y222728D01*
X1143384Y222700D01*
X1143417Y222700D01*
X1143448Y222693D01*
X1143539Y222701D01*
X1143630Y222702D01*
X1143670Y222713D01*
X1143693Y222716D01*
X1143722Y222729D01*
X1143791Y222749D01*
X1143854Y222775D01*
X1147146Y222775D01*
X1147209Y222749D01*
X1147297Y222728D01*
X1147384Y222700D01*
X1147417Y222700D01*
X1147448Y222693D01*
X1147539Y222701D01*
X1147630Y222702D01*
X1147670Y222713D01*
X1147693Y222716D01*
X1147722Y222729D01*
X1147791Y222749D01*
X1147854Y222775D01*
X1151146Y222775D01*
X1154187Y221515D01*
X1156515Y219187D01*
X1157775Y216146D01*
X1157775Y212854D01*
X1156515Y209813D01*
X1154187Y207485D01*
X1151146Y206225D01*
X1147854Y206225D01*
X1147791Y206251D01*
X1147703Y206272D01*
X1147616Y206300D01*
X1147583Y206300D01*
X1147552Y206307D01*
X1147461Y206299D01*
X1147370Y206298D01*
X1147330Y206287D01*
X1147307Y206284D01*
X1147278Y206271D01*
X1147209Y206251D01*
X1147146Y206225D01*
X1143854Y206225D01*
X1143791Y206251D01*
X1143703Y206272D01*
X1143616Y206300D01*
X1143583Y206300D01*
X1143552Y206307D01*
X1143461Y206299D01*
X1143370Y206298D01*
X1143330Y206287D01*
X1143307Y206284D01*
X1143278Y206271D01*
X1143209Y206251D01*
X1143146Y206225D01*
X1139854Y206225D01*
G37*
%LPD*%
%LPC*%
G36*
X1115575Y614275D02*
X1115575Y614275D01*
X1112203Y615672D01*
X1109622Y618253D01*
X1108225Y621625D01*
X1108225Y625275D01*
X1109622Y628647D01*
X1112203Y631228D01*
X1115575Y632625D01*
X1119225Y632625D01*
X1122597Y631228D01*
X1125178Y628647D01*
X1126575Y625275D01*
X1126575Y621625D01*
X1125178Y618253D01*
X1122597Y615672D01*
X1119225Y614275D01*
X1115575Y614275D01*
G37*
%LPD*%
%LPC*%
G36*
X1115575Y639675D02*
X1115575Y639675D01*
X1112203Y641072D01*
X1109622Y643653D01*
X1108225Y647025D01*
X1108225Y650675D01*
X1109622Y654047D01*
X1112203Y656628D01*
X1115575Y658025D01*
X1119225Y658025D01*
X1122597Y656628D01*
X1125178Y654047D01*
X1126575Y650675D01*
X1126575Y647025D01*
X1125178Y643653D01*
X1122597Y641072D01*
X1119225Y639675D01*
X1115575Y639675D01*
G37*
%LPD*%
%LPC*%
G36*
X1115575Y507175D02*
X1115575Y507175D01*
X1112203Y508572D01*
X1109622Y511153D01*
X1108225Y514525D01*
X1108225Y518175D01*
X1109622Y521547D01*
X1112203Y524128D01*
X1115575Y525525D01*
X1119225Y525525D01*
X1122597Y524128D01*
X1125178Y521547D01*
X1126575Y518175D01*
X1126575Y514525D01*
X1125178Y511153D01*
X1122597Y508572D01*
X1119225Y507175D01*
X1115575Y507175D01*
G37*
%LPD*%
%LPC*%
G36*
X1111178Y794449D02*
X1111178Y794449D01*
X1107817Y795841D01*
X1105245Y798414D01*
X1103852Y801775D01*
X1103852Y805413D01*
X1105245Y808774D01*
X1107817Y811346D01*
X1111178Y812739D01*
X1114816Y812739D01*
X1118177Y811346D01*
X1120750Y808774D01*
X1122142Y805413D01*
X1122142Y801775D01*
X1120750Y798414D01*
X1118177Y795841D01*
X1114816Y794449D01*
X1111178Y794449D01*
G37*
%LPD*%
%LPC*%
G36*
X555676Y609363D02*
X555676Y609363D01*
X552315Y610755D01*
X549743Y613328D01*
X548351Y616689D01*
X548351Y620327D01*
X549743Y623688D01*
X552315Y626260D01*
X555676Y627652D01*
X559314Y627652D01*
X562676Y626260D01*
X565248Y623688D01*
X566640Y620327D01*
X566640Y616689D01*
X565248Y613328D01*
X562676Y610755D01*
X559314Y609363D01*
X555676Y609363D01*
G37*
%LPD*%
%LPC*%
G36*
X479476Y609363D02*
X479476Y609363D01*
X476115Y610755D01*
X473543Y613328D01*
X472151Y616689D01*
X472151Y620327D01*
X473543Y623688D01*
X476115Y626260D01*
X479476Y627652D01*
X483114Y627652D01*
X486476Y626260D01*
X489048Y623688D01*
X490440Y620327D01*
X490440Y616689D01*
X489048Y613328D01*
X486476Y610755D01*
X483114Y609363D01*
X479476Y609363D01*
G37*
%LPD*%
%LPC*%
G36*
X530276Y609363D02*
X530276Y609363D01*
X526915Y610755D01*
X524343Y613328D01*
X522951Y616689D01*
X522951Y620327D01*
X524343Y623688D01*
X526915Y626260D01*
X530276Y627652D01*
X533914Y627652D01*
X537276Y626260D01*
X539848Y623688D01*
X541240Y620327D01*
X541240Y616689D01*
X539848Y613328D01*
X537276Y610755D01*
X533914Y609363D01*
X530276Y609363D01*
G37*
%LPD*%
%LPC*%
G36*
X1009578Y819849D02*
X1009578Y819849D01*
X1006217Y821241D01*
X1003645Y823814D01*
X1002252Y827175D01*
X1002252Y830813D01*
X1003645Y834174D01*
X1006217Y836746D01*
X1009578Y838139D01*
X1013216Y838139D01*
X1016577Y836746D01*
X1019150Y834174D01*
X1020542Y830813D01*
X1020542Y827175D01*
X1019150Y823814D01*
X1016577Y821241D01*
X1013216Y819849D01*
X1009578Y819849D01*
G37*
%LPD*%
%LPC*%
G36*
X504876Y609363D02*
X504876Y609363D01*
X501515Y610755D01*
X498943Y613328D01*
X497551Y616689D01*
X497551Y620327D01*
X498943Y623688D01*
X501515Y626260D01*
X504876Y627652D01*
X508514Y627652D01*
X511876Y626260D01*
X514448Y623688D01*
X515840Y620327D01*
X515840Y616689D01*
X514448Y613328D01*
X511876Y610755D01*
X508514Y609363D01*
X504876Y609363D01*
G37*
%LPD*%
%LPC*%
G36*
X1111178Y819849D02*
X1111178Y819849D01*
X1107817Y821241D01*
X1105245Y823814D01*
X1103852Y827175D01*
X1103852Y830813D01*
X1105245Y834174D01*
X1107817Y836746D01*
X1111178Y838139D01*
X1114816Y838139D01*
X1118177Y836746D01*
X1120750Y834174D01*
X1122142Y830813D01*
X1122142Y827175D01*
X1120750Y823814D01*
X1118177Y821241D01*
X1114816Y819849D01*
X1111178Y819849D01*
G37*
%LPD*%
%LPC*%
G36*
X1085778Y819849D02*
X1085778Y819849D01*
X1082417Y821241D01*
X1079845Y823814D01*
X1078452Y827175D01*
X1078452Y830813D01*
X1079845Y834174D01*
X1082417Y836746D01*
X1085778Y838139D01*
X1089416Y838139D01*
X1092777Y836746D01*
X1095350Y834174D01*
X1096742Y830813D01*
X1096742Y827175D01*
X1095350Y823814D01*
X1092777Y821241D01*
X1089416Y819849D01*
X1085778Y819849D01*
G37*
%LPD*%
%LPC*%
G36*
X1060378Y819849D02*
X1060378Y819849D01*
X1057017Y821241D01*
X1054445Y823814D01*
X1053052Y827175D01*
X1053052Y830813D01*
X1054445Y834174D01*
X1057017Y836746D01*
X1060378Y838139D01*
X1064016Y838139D01*
X1067377Y836746D01*
X1069950Y834174D01*
X1071342Y830813D01*
X1071342Y827175D01*
X1069950Y823814D01*
X1067377Y821241D01*
X1064016Y819849D01*
X1060378Y819849D01*
G37*
%LPD*%
%LPC*%
G36*
X1034978Y819849D02*
X1034978Y819849D01*
X1031617Y821241D01*
X1029045Y823814D01*
X1027652Y827175D01*
X1027652Y830813D01*
X1029045Y834174D01*
X1031617Y836746D01*
X1034978Y838139D01*
X1038616Y838139D01*
X1041977Y836746D01*
X1044550Y834174D01*
X1045942Y830813D01*
X1045942Y827175D01*
X1044550Y823814D01*
X1041977Y821241D01*
X1038616Y819849D01*
X1034978Y819849D01*
G37*
%LPD*%
%LPC*%
G36*
X698637Y46709D02*
X698637Y46709D01*
X696709Y48637D01*
X696709Y51363D01*
X698637Y53291D01*
X701363Y53291D01*
X702327Y52327D01*
X702343Y52315D01*
X702356Y52300D01*
X702443Y52244D01*
X702527Y52183D01*
X702546Y52177D01*
X702562Y52167D01*
X702663Y52141D01*
X702762Y52111D01*
X702782Y52111D01*
X702801Y52107D01*
X702904Y52115D01*
X703008Y52117D01*
X703026Y52124D01*
X703046Y52126D01*
X703141Y52166D01*
X703239Y52202D01*
X703254Y52214D01*
X703273Y52222D01*
X703403Y52327D01*
X704502Y53426D01*
X707228Y53426D01*
X708212Y52442D01*
X708228Y52430D01*
X708240Y52415D01*
X708328Y52359D01*
X708411Y52299D01*
X708430Y52293D01*
X708447Y52282D01*
X708548Y52257D01*
X708647Y52226D01*
X708666Y52227D01*
X708686Y52222D01*
X708789Y52230D01*
X708892Y52233D01*
X708911Y52239D01*
X708931Y52241D01*
X709026Y52281D01*
X709123Y52317D01*
X709139Y52330D01*
X709157Y52337D01*
X709288Y52442D01*
X710137Y53291D01*
X712863Y53291D01*
X713827Y52327D01*
X713843Y52315D01*
X713856Y52300D01*
X713943Y52244D01*
X714027Y52183D01*
X714046Y52177D01*
X714062Y52167D01*
X714163Y52141D01*
X714262Y52111D01*
X714282Y52111D01*
X714301Y52107D01*
X714404Y52115D01*
X714508Y52117D01*
X714526Y52124D01*
X714546Y52126D01*
X714641Y52166D01*
X714739Y52202D01*
X714754Y52214D01*
X714773Y52222D01*
X714904Y52327D01*
X716002Y53426D01*
X718728Y53426D01*
X719712Y52442D01*
X719728Y52430D01*
X719740Y52415D01*
X719828Y52359D01*
X719911Y52299D01*
X719930Y52293D01*
X719947Y52282D01*
X720048Y52257D01*
X720147Y52226D01*
X720166Y52227D01*
X720186Y52222D01*
X720289Y52230D01*
X720392Y52233D01*
X720411Y52239D01*
X720431Y52241D01*
X720526Y52281D01*
X720623Y52317D01*
X720639Y52330D01*
X720657Y52337D01*
X720788Y52442D01*
X721637Y53291D01*
X724363Y53291D01*
X725462Y52192D01*
X725478Y52180D01*
X725490Y52165D01*
X725578Y52109D01*
X725661Y52049D01*
X725680Y52043D01*
X725697Y52032D01*
X725798Y52007D01*
X725897Y51976D01*
X725916Y51977D01*
X725936Y51972D01*
X726039Y51980D01*
X726142Y51983D01*
X726161Y51989D01*
X726181Y51991D01*
X726276Y52031D01*
X726373Y52067D01*
X726389Y52079D01*
X726407Y52087D01*
X726538Y52192D01*
X727637Y53291D01*
X730363Y53291D01*
X731327Y52327D01*
X731343Y52315D01*
X731356Y52300D01*
X731443Y52244D01*
X731527Y52183D01*
X731546Y52177D01*
X731562Y52167D01*
X731663Y52141D01*
X731762Y52111D01*
X731782Y52111D01*
X731801Y52107D01*
X731904Y52115D01*
X732008Y52117D01*
X732026Y52124D01*
X732046Y52126D01*
X732141Y52166D01*
X732239Y52202D01*
X732254Y52214D01*
X732273Y52222D01*
X732403Y52327D01*
X733502Y53426D01*
X736228Y53426D01*
X738156Y51498D01*
X738156Y48772D01*
X736228Y46844D01*
X733502Y46844D01*
X732538Y47808D01*
X732522Y47820D01*
X732510Y47835D01*
X732422Y47891D01*
X732339Y47951D01*
X732320Y47957D01*
X732303Y47968D01*
X732202Y47993D01*
X732103Y48024D01*
X732084Y48023D01*
X732064Y48028D01*
X731961Y48020D01*
X731858Y48017D01*
X731839Y48011D01*
X731819Y48009D01*
X731724Y47969D01*
X731627Y47933D01*
X731611Y47921D01*
X731593Y47913D01*
X731462Y47808D01*
X730363Y46709D01*
X727637Y46709D01*
X726538Y47808D01*
X726522Y47820D01*
X726510Y47835D01*
X726422Y47891D01*
X726339Y47951D01*
X726320Y47957D01*
X726303Y47968D01*
X726202Y47993D01*
X726103Y48024D01*
X726084Y48023D01*
X726064Y48028D01*
X725961Y48020D01*
X725858Y48017D01*
X725839Y48011D01*
X725819Y48009D01*
X725724Y47969D01*
X725627Y47933D01*
X725611Y47920D01*
X725593Y47913D01*
X725462Y47808D01*
X724363Y46709D01*
X721637Y46709D01*
X720653Y47693D01*
X720637Y47704D01*
X720625Y47720D01*
X720538Y47776D01*
X720454Y47836D01*
X720435Y47842D01*
X720418Y47853D01*
X720318Y47878D01*
X720219Y47909D01*
X720199Y47908D01*
X720179Y47913D01*
X720076Y47905D01*
X719973Y47902D01*
X719954Y47895D01*
X719934Y47894D01*
X719839Y47853D01*
X719742Y47818D01*
X719726Y47805D01*
X719708Y47798D01*
X719577Y47693D01*
X718728Y46844D01*
X716002Y46844D01*
X715038Y47808D01*
X715022Y47820D01*
X715010Y47835D01*
X714922Y47891D01*
X714839Y47951D01*
X714820Y47957D01*
X714803Y47968D01*
X714702Y47993D01*
X714603Y48024D01*
X714584Y48023D01*
X714564Y48028D01*
X714461Y48020D01*
X714358Y48017D01*
X714339Y48011D01*
X714319Y48009D01*
X714224Y47969D01*
X714127Y47933D01*
X714111Y47920D01*
X714093Y47913D01*
X713962Y47808D01*
X712863Y46709D01*
X710137Y46709D01*
X709153Y47693D01*
X709137Y47704D01*
X709125Y47720D01*
X709038Y47776D01*
X708954Y47836D01*
X708935Y47842D01*
X708918Y47853D01*
X708818Y47878D01*
X708719Y47909D01*
X708699Y47908D01*
X708679Y47913D01*
X708576Y47905D01*
X708473Y47902D01*
X708454Y47895D01*
X708434Y47894D01*
X708339Y47853D01*
X708242Y47818D01*
X708226Y47805D01*
X708208Y47798D01*
X708077Y47693D01*
X707228Y46844D01*
X704502Y46844D01*
X703538Y47808D01*
X703522Y47820D01*
X703510Y47835D01*
X703422Y47891D01*
X703339Y47951D01*
X703320Y47957D01*
X703303Y47968D01*
X703202Y47993D01*
X703103Y48024D01*
X703084Y48023D01*
X703064Y48028D01*
X702961Y48020D01*
X702858Y48017D01*
X702839Y48011D01*
X702819Y48009D01*
X702724Y47969D01*
X702627Y47933D01*
X702611Y47921D01*
X702593Y47913D01*
X702462Y47808D01*
X701363Y46709D01*
X698637Y46709D01*
G37*
%LPD*%
%LPC*%
G36*
X1003269Y529900D02*
X1003269Y529900D01*
X1000255Y531149D01*
X997949Y533455D01*
X996700Y536469D01*
X996700Y539731D01*
X997949Y542745D01*
X1000255Y545051D01*
X1003269Y546300D01*
X1006531Y546300D01*
X1009545Y545051D01*
X1011851Y542745D01*
X1013100Y539731D01*
X1013100Y536469D01*
X1011851Y533455D01*
X1009545Y531149D01*
X1006531Y529900D01*
X1003269Y529900D01*
G37*
%LPD*%
%LPC*%
G36*
X1003269Y606100D02*
X1003269Y606100D01*
X1000255Y607349D01*
X997949Y609655D01*
X996700Y612669D01*
X996700Y615931D01*
X997949Y618945D01*
X1000255Y621251D01*
X1003269Y622500D01*
X1006531Y622500D01*
X1009545Y621251D01*
X1011851Y618945D01*
X1013100Y615931D01*
X1013100Y612669D01*
X1011851Y609655D01*
X1009545Y607349D01*
X1006531Y606100D01*
X1003269Y606100D01*
G37*
%LPD*%
%LPC*%
G36*
X977869Y593400D02*
X977869Y593400D01*
X974855Y594649D01*
X972549Y596955D01*
X971300Y599969D01*
X971300Y603231D01*
X972549Y606245D01*
X974855Y608551D01*
X977869Y609800D01*
X981131Y609800D01*
X984145Y608551D01*
X986451Y606245D01*
X987700Y603231D01*
X987700Y599969D01*
X986451Y596955D01*
X984145Y594649D01*
X981131Y593400D01*
X977869Y593400D01*
G37*
%LPD*%
%LPC*%
G36*
X1003269Y555300D02*
X1003269Y555300D01*
X1000255Y556549D01*
X997949Y558855D01*
X996700Y561869D01*
X996700Y565131D01*
X997949Y568145D01*
X1000255Y570451D01*
X1003269Y571700D01*
X1006531Y571700D01*
X1009545Y570451D01*
X1011851Y568145D01*
X1013100Y565131D01*
X1013100Y561869D01*
X1011851Y558855D01*
X1009545Y556549D01*
X1006531Y555300D01*
X1003269Y555300D01*
G37*
%LPD*%
%LPC*%
G36*
X977869Y568000D02*
X977869Y568000D01*
X974855Y569249D01*
X972549Y571555D01*
X971300Y574569D01*
X971300Y577831D01*
X972549Y580845D01*
X974855Y583151D01*
X977869Y584400D01*
X981131Y584400D01*
X984145Y583151D01*
X986451Y580845D01*
X987700Y577831D01*
X987700Y574569D01*
X986451Y571555D01*
X984145Y569249D01*
X981131Y568000D01*
X977869Y568000D01*
G37*
%LPD*%
%LPC*%
G36*
X1003269Y580700D02*
X1003269Y580700D01*
X1000255Y581949D01*
X997949Y584255D01*
X996700Y587269D01*
X996700Y590531D01*
X997949Y593545D01*
X1000255Y595851D01*
X1003269Y597100D01*
X1006531Y597100D01*
X1009545Y595851D01*
X1011851Y593545D01*
X1013100Y590531D01*
X1013100Y587269D01*
X1011851Y584255D01*
X1009545Y581949D01*
X1006531Y580700D01*
X1003269Y580700D01*
G37*
%LPD*%
%LPC*%
G36*
X977869Y542600D02*
X977869Y542600D01*
X974855Y543849D01*
X972549Y546155D01*
X971300Y549169D01*
X971300Y552431D01*
X972549Y555445D01*
X974855Y557751D01*
X977869Y559000D01*
X981131Y559000D01*
X984145Y557751D01*
X986451Y555445D01*
X987700Y552431D01*
X987700Y549169D01*
X986451Y546155D01*
X984145Y543849D01*
X981131Y542600D01*
X977869Y542600D01*
G37*
%LPD*%
%LPC*%
G36*
X436137Y253209D02*
X436137Y253209D01*
X434209Y255137D01*
X434209Y257863D01*
X435058Y258712D01*
X435070Y258728D01*
X435085Y258740D01*
X435141Y258828D01*
X435201Y258911D01*
X435207Y258930D01*
X435218Y258947D01*
X435243Y259048D01*
X435274Y259147D01*
X435273Y259166D01*
X435278Y259186D01*
X435270Y259289D01*
X435267Y259392D01*
X435261Y259411D01*
X435259Y259431D01*
X435219Y259526D01*
X435183Y259623D01*
X435171Y259639D01*
X435163Y259657D01*
X435058Y259788D01*
X434209Y260637D01*
X434209Y263363D01*
X435308Y264462D01*
X435320Y264478D01*
X435335Y264490D01*
X435391Y264578D01*
X435451Y264661D01*
X435457Y264680D01*
X435468Y264697D01*
X435493Y264798D01*
X435524Y264897D01*
X435523Y264916D01*
X435528Y264936D01*
X435520Y265039D01*
X435517Y265142D01*
X435511Y265161D01*
X435509Y265181D01*
X435469Y265276D01*
X435433Y265373D01*
X435421Y265389D01*
X435413Y265407D01*
X435338Y265501D01*
X435333Y265510D01*
X435327Y265515D01*
X435308Y265538D01*
X434209Y266637D01*
X434209Y269363D01*
X435308Y270462D01*
X435320Y270478D01*
X435335Y270490D01*
X435391Y270578D01*
X435451Y270661D01*
X435457Y270680D01*
X435468Y270697D01*
X435493Y270798D01*
X435524Y270897D01*
X435523Y270916D01*
X435528Y270936D01*
X435520Y271039D01*
X435517Y271142D01*
X435511Y271161D01*
X435509Y271181D01*
X435469Y271276D01*
X435433Y271373D01*
X435421Y271389D01*
X435413Y271407D01*
X435308Y271538D01*
X434209Y272637D01*
X434209Y275363D01*
X435308Y276462D01*
X435320Y276478D01*
X435335Y276490D01*
X435391Y276578D01*
X435451Y276661D01*
X435457Y276680D01*
X435468Y276697D01*
X435493Y276798D01*
X435524Y276897D01*
X435523Y276916D01*
X435528Y276936D01*
X435520Y277039D01*
X435517Y277142D01*
X435511Y277161D01*
X435509Y277181D01*
X435469Y277276D01*
X435433Y277373D01*
X435420Y277389D01*
X435413Y277407D01*
X435308Y277538D01*
X434209Y278637D01*
X434209Y281363D01*
X436137Y283291D01*
X438863Y283291D01*
X440791Y281363D01*
X440791Y278637D01*
X439692Y277538D01*
X439680Y277522D01*
X439665Y277510D01*
X439609Y277422D01*
X439549Y277339D01*
X439543Y277320D01*
X439532Y277303D01*
X439507Y277202D01*
X439476Y277103D01*
X439477Y277084D01*
X439472Y277064D01*
X439480Y276961D01*
X439483Y276858D01*
X439489Y276839D01*
X439491Y276819D01*
X439531Y276724D01*
X439567Y276627D01*
X439579Y276611D01*
X439587Y276593D01*
X439692Y276462D01*
X440791Y275363D01*
X440791Y272637D01*
X439692Y271538D01*
X439680Y271522D01*
X439665Y271510D01*
X439609Y271422D01*
X439549Y271339D01*
X439543Y271320D01*
X439532Y271303D01*
X439507Y271202D01*
X439476Y271103D01*
X439477Y271084D01*
X439472Y271064D01*
X439480Y270961D01*
X439483Y270858D01*
X439489Y270839D01*
X439491Y270819D01*
X439531Y270724D01*
X439567Y270627D01*
X439580Y270611D01*
X439587Y270593D01*
X439692Y270462D01*
X440791Y269363D01*
X440791Y266637D01*
X439692Y265538D01*
X439680Y265522D01*
X439665Y265510D01*
X439635Y265463D01*
X439620Y265447D01*
X439607Y265420D01*
X439549Y265339D01*
X439543Y265320D01*
X439532Y265303D01*
X439507Y265202D01*
X439476Y265103D01*
X439477Y265084D01*
X439472Y265064D01*
X439480Y264961D01*
X439483Y264858D01*
X439489Y264839D01*
X439491Y264819D01*
X439531Y264724D01*
X439567Y264627D01*
X439580Y264611D01*
X439587Y264593D01*
X439692Y264462D01*
X440791Y263363D01*
X440791Y260637D01*
X439942Y259788D01*
X439930Y259772D01*
X439915Y259760D01*
X439859Y259672D01*
X439799Y259589D01*
X439793Y259570D01*
X439782Y259553D01*
X439757Y259452D01*
X439726Y259353D01*
X439727Y259334D01*
X439722Y259314D01*
X439730Y259211D01*
X439733Y259108D01*
X439739Y259089D01*
X439741Y259069D01*
X439781Y258974D01*
X439817Y258877D01*
X439830Y258861D01*
X439837Y258843D01*
X439942Y258712D01*
X440791Y257863D01*
X440791Y255137D01*
X438863Y253209D01*
X436137Y253209D01*
G37*
%LPD*%
%LPC*%
G36*
X650002Y741074D02*
X650002Y741074D01*
X648904Y742173D01*
X648887Y742185D01*
X648875Y742200D01*
X648788Y742256D01*
X648704Y742317D01*
X648685Y742323D01*
X648668Y742333D01*
X648568Y742359D01*
X648469Y742389D01*
X648449Y742389D01*
X648429Y742393D01*
X648326Y742385D01*
X648223Y742383D01*
X648204Y742376D01*
X648184Y742374D01*
X648089Y742334D01*
X647992Y742298D01*
X647976Y742286D01*
X647958Y742278D01*
X647827Y742173D01*
X646863Y741209D01*
X644137Y741209D01*
X642209Y743137D01*
X642209Y745863D01*
X644137Y747791D01*
X646863Y747791D01*
X647962Y746692D01*
X647978Y746680D01*
X647990Y746665D01*
X648078Y746609D01*
X648161Y746549D01*
X648180Y746543D01*
X648197Y746532D01*
X648298Y746507D01*
X648397Y746476D01*
X648416Y746477D01*
X648436Y746472D01*
X648539Y746480D01*
X648642Y746483D01*
X648661Y746489D01*
X648681Y746491D01*
X648776Y746531D01*
X648873Y746567D01*
X648889Y746579D01*
X648907Y746587D01*
X649038Y746692D01*
X650002Y747656D01*
X652728Y747656D01*
X653577Y746807D01*
X653593Y746796D01*
X653606Y746780D01*
X653693Y746724D01*
X653777Y746664D01*
X653796Y746658D01*
X653812Y746647D01*
X653913Y746622D01*
X654012Y746591D01*
X654032Y746592D01*
X654051Y746587D01*
X654154Y746595D01*
X654258Y746598D01*
X654276Y746605D01*
X654296Y746606D01*
X654391Y746647D01*
X654489Y746682D01*
X654504Y746695D01*
X654523Y746702D01*
X654653Y746807D01*
X655617Y747771D01*
X658344Y747771D01*
X659192Y746923D01*
X659208Y746911D01*
X659221Y746895D01*
X659308Y746839D01*
X659392Y746779D01*
X659411Y746773D01*
X659428Y746762D01*
X659528Y746737D01*
X659627Y746707D01*
X659647Y746707D01*
X659666Y746702D01*
X659769Y746710D01*
X659873Y746713D01*
X659892Y746720D01*
X659911Y746721D01*
X660006Y746762D01*
X660104Y746797D01*
X660120Y746810D01*
X660138Y746818D01*
X660269Y746923D01*
X661233Y747886D01*
X663959Y747886D01*
X665886Y745959D01*
X665886Y743233D01*
X663959Y741305D01*
X661233Y741305D01*
X660384Y742154D01*
X660368Y742165D01*
X660355Y742181D01*
X660268Y742237D01*
X660184Y742297D01*
X660165Y742303D01*
X660148Y742314D01*
X660048Y742339D01*
X659949Y742369D01*
X659929Y742369D01*
X659910Y742374D01*
X659807Y742366D01*
X659703Y742363D01*
X659684Y742356D01*
X659665Y742355D01*
X659570Y742314D01*
X659472Y742279D01*
X659457Y742266D01*
X659438Y742258D01*
X659307Y742154D01*
X658344Y741190D01*
X655617Y741190D01*
X654769Y742038D01*
X654753Y742050D01*
X654740Y742066D01*
X654653Y742122D01*
X654569Y742182D01*
X654550Y742188D01*
X654533Y742199D01*
X654433Y742224D01*
X654334Y742254D01*
X654314Y742254D01*
X654295Y742259D01*
X654192Y742251D01*
X654088Y742248D01*
X654069Y742241D01*
X654049Y742239D01*
X653955Y742199D01*
X653857Y742163D01*
X653841Y742151D01*
X653823Y742143D01*
X653692Y742038D01*
X652728Y741074D01*
X650002Y741074D01*
G37*
%LPD*%
%LPC*%
G36*
X600827Y844900D02*
X600827Y844900D01*
X598475Y845875D01*
X596675Y847675D01*
X595700Y850027D01*
X595700Y852573D01*
X596675Y854925D01*
X598475Y856725D01*
X600827Y857700D01*
X603373Y857700D01*
X605725Y856725D01*
X607525Y854925D01*
X608500Y852573D01*
X608500Y850027D01*
X607525Y847675D01*
X605725Y845875D01*
X603373Y844900D01*
X600827Y844900D01*
G37*
%LPD*%
%LPC*%
G36*
X575427Y844900D02*
X575427Y844900D01*
X573075Y845875D01*
X571275Y847675D01*
X570300Y850027D01*
X570300Y852573D01*
X571275Y854925D01*
X573075Y856725D01*
X575427Y857700D01*
X577973Y857700D01*
X580325Y856725D01*
X582125Y854925D01*
X583100Y852573D01*
X583100Y850027D01*
X582125Y847675D01*
X580325Y845875D01*
X577973Y844900D01*
X575427Y844900D01*
G37*
%LPD*%
%LPC*%
G36*
X550027Y844900D02*
X550027Y844900D01*
X547675Y845875D01*
X545875Y847675D01*
X544900Y850027D01*
X544900Y852573D01*
X545875Y854925D01*
X547675Y856725D01*
X550027Y857700D01*
X552573Y857700D01*
X554925Y856725D01*
X556725Y854925D01*
X557700Y852573D01*
X557700Y850027D01*
X556725Y847675D01*
X554925Y845875D01*
X552573Y844900D01*
X550027Y844900D01*
G37*
%LPD*%
%LPC*%
G36*
X524627Y844900D02*
X524627Y844900D01*
X522275Y845875D01*
X520475Y847675D01*
X519500Y850027D01*
X519500Y852573D01*
X520475Y854925D01*
X522275Y856725D01*
X524627Y857700D01*
X527173Y857700D01*
X529525Y856725D01*
X531325Y854925D01*
X532300Y852573D01*
X532300Y850027D01*
X531325Y847675D01*
X529525Y845875D01*
X527173Y844900D01*
X524627Y844900D01*
G37*
%LPD*%
%LPC*%
G36*
X499227Y844900D02*
X499227Y844900D01*
X496875Y845875D01*
X495075Y847675D01*
X494100Y850027D01*
X494100Y852573D01*
X495075Y854925D01*
X496875Y856725D01*
X499227Y857700D01*
X501773Y857700D01*
X504125Y856725D01*
X505925Y854925D01*
X506900Y852573D01*
X506900Y850027D01*
X505925Y847675D01*
X504125Y845875D01*
X501773Y844900D01*
X499227Y844900D01*
G37*
%LPD*%
%LPC*%
G36*
X600827Y768700D02*
X600827Y768700D01*
X598475Y769675D01*
X596675Y771475D01*
X595700Y773827D01*
X595700Y776373D01*
X596675Y778725D01*
X598475Y780525D01*
X600827Y781500D01*
X603373Y781500D01*
X605725Y780525D01*
X607525Y778725D01*
X608500Y776373D01*
X608500Y773827D01*
X607525Y771475D01*
X605725Y769675D01*
X603373Y768700D01*
X600827Y768700D01*
G37*
%LPD*%
%LPC*%
G36*
X575427Y768700D02*
X575427Y768700D01*
X573075Y769675D01*
X571275Y771475D01*
X570300Y773827D01*
X570300Y776373D01*
X571275Y778725D01*
X573075Y780525D01*
X575427Y781500D01*
X577973Y781500D01*
X580325Y780525D01*
X582125Y778725D01*
X583100Y776373D01*
X583100Y773827D01*
X582125Y771475D01*
X580325Y769675D01*
X577973Y768700D01*
X575427Y768700D01*
G37*
%LPD*%
%LPC*%
G36*
X550027Y768700D02*
X550027Y768700D01*
X547675Y769675D01*
X545875Y771475D01*
X544900Y773827D01*
X544900Y776373D01*
X545875Y778725D01*
X547675Y780525D01*
X550027Y781500D01*
X552573Y781500D01*
X554925Y780525D01*
X556725Y778725D01*
X557700Y776373D01*
X557700Y773827D01*
X556725Y771475D01*
X554925Y769675D01*
X552573Y768700D01*
X550027Y768700D01*
G37*
%LPD*%
%LPC*%
G36*
X499227Y768700D02*
X499227Y768700D01*
X496875Y769675D01*
X495075Y771475D01*
X494100Y773827D01*
X494100Y776373D01*
X495075Y778725D01*
X496875Y780525D01*
X499227Y781500D01*
X501773Y781500D01*
X504125Y780525D01*
X505925Y778725D01*
X506900Y776373D01*
X506900Y773827D01*
X505925Y771475D01*
X504125Y769675D01*
X501773Y768700D01*
X499227Y768700D01*
G37*
%LPD*%
%LPC*%
G36*
X524627Y768700D02*
X524627Y768700D01*
X522275Y769675D01*
X520475Y771475D01*
X519500Y773827D01*
X519500Y776373D01*
X520475Y778725D01*
X522275Y780525D01*
X524627Y781500D01*
X527173Y781500D01*
X529525Y780525D01*
X531325Y778725D01*
X532300Y776373D01*
X532300Y773827D01*
X531325Y771475D01*
X529525Y769675D01*
X527173Y768700D01*
X524627Y768700D01*
G37*
%LPD*%
%LPC*%
G36*
X1039423Y506673D02*
X1039423Y506673D01*
X1039423Y519859D01*
X1041358Y519552D01*
X1043568Y518834D01*
X1045639Y517779D01*
X1047519Y516413D01*
X1049163Y514769D01*
X1050529Y512889D01*
X1051584Y510818D01*
X1052302Y508608D01*
X1052609Y506673D01*
X1039423Y506673D01*
G37*
%LPD*%
%LPC*%
G36*
X1039423Y661573D02*
X1039423Y661573D01*
X1039423Y674759D01*
X1041358Y674452D01*
X1043568Y673734D01*
X1045639Y672679D01*
X1047519Y671313D01*
X1049163Y669669D01*
X1050529Y667789D01*
X1051584Y665718D01*
X1052302Y663508D01*
X1052609Y661573D01*
X1039423Y661573D01*
G37*
%LPD*%
%LPC*%
G36*
X1039423Y658527D02*
X1039423Y658527D01*
X1052609Y658527D01*
X1052302Y656592D01*
X1051584Y654382D01*
X1050529Y652311D01*
X1049163Y650431D01*
X1047519Y648787D01*
X1045639Y647421D01*
X1043568Y646366D01*
X1041358Y645648D01*
X1039423Y645341D01*
X1039423Y658527D01*
G37*
%LPD*%
%LPC*%
G36*
X1039423Y503627D02*
X1039423Y503627D01*
X1052609Y503627D01*
X1052302Y501692D01*
X1051584Y499482D01*
X1050529Y497411D01*
X1049163Y495531D01*
X1047519Y493887D01*
X1045639Y492521D01*
X1043568Y491466D01*
X1041358Y490748D01*
X1039423Y490441D01*
X1039423Y503627D01*
G37*
%LPD*%
%LPC*%
G36*
X1023191Y661573D02*
X1023191Y661573D01*
X1023498Y663508D01*
X1024216Y665718D01*
X1025271Y667789D01*
X1026637Y669669D01*
X1028281Y671313D01*
X1030161Y672679D01*
X1032232Y673734D01*
X1034442Y674452D01*
X1036377Y674759D01*
X1036377Y661573D01*
X1023191Y661573D01*
G37*
%LPD*%
%LPC*%
G36*
X1023191Y506673D02*
X1023191Y506673D01*
X1023498Y508608D01*
X1024216Y510818D01*
X1025271Y512889D01*
X1026637Y514769D01*
X1028281Y516413D01*
X1030161Y517779D01*
X1032232Y518834D01*
X1034442Y519552D01*
X1036377Y519859D01*
X1036377Y506673D01*
X1023191Y506673D01*
G37*
%LPD*%
%LPC*%
G36*
X1034442Y645648D02*
X1034442Y645648D01*
X1032232Y646366D01*
X1030161Y647421D01*
X1028281Y648787D01*
X1026637Y650431D01*
X1025271Y652311D01*
X1024216Y654382D01*
X1023498Y656592D01*
X1023191Y658527D01*
X1036377Y658527D01*
X1036377Y645341D01*
X1034442Y645648D01*
G37*
%LPD*%
%LPC*%
G36*
X1034442Y490748D02*
X1034442Y490748D01*
X1032232Y491466D01*
X1030161Y492521D01*
X1028281Y493887D01*
X1026637Y495531D01*
X1025271Y497411D01*
X1024216Y499482D01*
X1023498Y501692D01*
X1023191Y503627D01*
X1036377Y503627D01*
X1036377Y490441D01*
X1034442Y490748D01*
G37*
%LPD*%
%LPC*%
G36*
X68095Y568323D02*
X68095Y568323D01*
X68287Y569291D01*
X68931Y570846D01*
X69866Y572244D01*
X71056Y573434D01*
X72455Y574369D01*
X72759Y574495D01*
X72841Y574546D01*
X72927Y574592D01*
X72945Y574611D01*
X72968Y574624D01*
X73030Y574699D01*
X73097Y574770D01*
X73108Y574794D01*
X73125Y574814D01*
X73159Y574905D01*
X73200Y574993D01*
X73203Y575019D01*
X73213Y575043D01*
X73217Y575141D01*
X73228Y575237D01*
X73222Y575263D01*
X73223Y575289D01*
X73196Y575383D01*
X73175Y575478D01*
X73162Y575500D01*
X73155Y575525D01*
X73099Y575605D01*
X73049Y575689D01*
X73029Y575706D01*
X73014Y575727D01*
X72936Y575785D01*
X72862Y575849D01*
X72838Y575859D01*
X72817Y575874D01*
X72725Y575904D01*
X72634Y575941D01*
X72602Y575944D01*
X72583Y575950D01*
X72550Y575950D01*
X72467Y575959D01*
X69412Y575959D01*
X66459Y578912D01*
X66459Y583088D01*
X69412Y586041D01*
X73588Y586041D01*
X76541Y583088D01*
X76541Y578912D01*
X74076Y576447D01*
X74063Y576429D01*
X74045Y576414D01*
X73991Y576329D01*
X73933Y576248D01*
X73926Y576226D01*
X73913Y576206D01*
X73890Y576109D01*
X73860Y576013D01*
X73861Y575990D01*
X73855Y575967D01*
X73864Y575867D01*
X73867Y575767D01*
X73874Y575745D01*
X73876Y575722D01*
X73916Y575630D01*
X73951Y575536D01*
X73965Y575518D01*
X73975Y575497D01*
X74042Y575422D01*
X74105Y575344D01*
X74124Y575331D01*
X74140Y575314D01*
X74227Y575265D01*
X74312Y575211D01*
X74334Y575205D01*
X74354Y575194D01*
X74453Y575175D01*
X74550Y575151D01*
X74573Y575152D01*
X74596Y575148D01*
X74763Y575163D01*
X74977Y575205D01*
X74977Y568323D01*
X68095Y568323D01*
G37*
%LPD*%
%LPC*%
G36*
X69412Y633959D02*
X69412Y633959D01*
X66459Y636912D01*
X66459Y641088D01*
X69412Y644041D01*
X72467Y644041D01*
X72563Y644056D01*
X72660Y644066D01*
X72684Y644076D01*
X72710Y644080D01*
X72796Y644126D01*
X72885Y644166D01*
X72904Y644183D01*
X72928Y644196D01*
X72994Y644266D01*
X73066Y644332D01*
X73079Y644355D01*
X73097Y644374D01*
X73138Y644462D01*
X73185Y644548D01*
X73189Y644573D01*
X73201Y644597D01*
X73211Y644694D01*
X73229Y644790D01*
X73225Y644816D01*
X73228Y644841D01*
X73207Y644937D01*
X73193Y645033D01*
X73181Y645056D01*
X73175Y645082D01*
X73125Y645165D01*
X73081Y645252D01*
X73063Y645271D01*
X73049Y645293D01*
X72975Y645356D01*
X72906Y645424D01*
X72877Y645440D01*
X72862Y645453D01*
X72831Y645465D01*
X72759Y645505D01*
X72455Y645631D01*
X71056Y646566D01*
X69866Y647756D01*
X68931Y649154D01*
X68287Y650709D01*
X68095Y651677D01*
X74977Y651677D01*
X74977Y644795D01*
X74763Y644837D01*
X74740Y644838D01*
X74718Y644845D01*
X74617Y644842D01*
X74517Y644846D01*
X74495Y644839D01*
X74472Y644839D01*
X74378Y644804D01*
X74281Y644775D01*
X74263Y644762D01*
X74241Y644754D01*
X74163Y644691D01*
X74080Y644634D01*
X74067Y644615D01*
X74049Y644601D01*
X73994Y644516D01*
X73935Y644435D01*
X73928Y644413D01*
X73916Y644394D01*
X73891Y644296D01*
X73861Y644200D01*
X73861Y644177D01*
X73856Y644155D01*
X73864Y644055D01*
X73865Y643955D01*
X73873Y643933D01*
X73875Y643910D01*
X73914Y643818D01*
X73948Y643723D01*
X73962Y643705D01*
X73971Y643684D01*
X74076Y643553D01*
X76541Y641088D01*
X76541Y636912D01*
X73588Y633959D01*
X69412Y633959D01*
G37*
%LPD*%
%LPC*%
G36*
X594637Y316709D02*
X594637Y316709D01*
X592709Y318637D01*
X592709Y321363D01*
X594637Y323291D01*
X597363Y323291D01*
X598962Y321692D01*
X598978Y321680D01*
X598990Y321665D01*
X599078Y321609D01*
X599161Y321549D01*
X599180Y321543D01*
X599197Y321532D01*
X599298Y321507D01*
X599397Y321476D01*
X599416Y321477D01*
X599436Y321472D01*
X599539Y321480D01*
X599642Y321483D01*
X599661Y321489D01*
X599681Y321491D01*
X599776Y321531D01*
X599873Y321567D01*
X599889Y321579D01*
X599907Y321587D01*
X600038Y321692D01*
X601637Y323291D01*
X604363Y323291D01*
X605962Y321692D01*
X605978Y321680D01*
X605990Y321665D01*
X606078Y321609D01*
X606161Y321549D01*
X606180Y321543D01*
X606197Y321532D01*
X606298Y321507D01*
X606397Y321476D01*
X606416Y321477D01*
X606436Y321472D01*
X606539Y321480D01*
X606642Y321483D01*
X606661Y321489D01*
X606681Y321491D01*
X606776Y321531D01*
X606873Y321567D01*
X606889Y321580D01*
X606907Y321587D01*
X607038Y321692D01*
X608637Y323291D01*
X611363Y323291D01*
X613291Y321363D01*
X613291Y318637D01*
X611363Y316709D01*
X608637Y316709D01*
X607038Y318308D01*
X607022Y318320D01*
X607010Y318335D01*
X606922Y318391D01*
X606839Y318451D01*
X606820Y318457D01*
X606803Y318468D01*
X606702Y318493D01*
X606603Y318524D01*
X606584Y318523D01*
X606564Y318528D01*
X606461Y318520D01*
X606358Y318517D01*
X606339Y318511D01*
X606319Y318509D01*
X606224Y318469D01*
X606127Y318433D01*
X606111Y318421D01*
X606093Y318413D01*
X605962Y318308D01*
X604363Y316709D01*
X601637Y316709D01*
X600038Y318308D01*
X600022Y318320D01*
X600010Y318335D01*
X599922Y318391D01*
X599839Y318451D01*
X599820Y318457D01*
X599803Y318468D01*
X599702Y318493D01*
X599603Y318524D01*
X599584Y318523D01*
X599564Y318528D01*
X599461Y318520D01*
X599358Y318517D01*
X599339Y318511D01*
X599319Y318509D01*
X599224Y318469D01*
X599127Y318433D01*
X599111Y318420D01*
X599093Y318413D01*
X598962Y318308D01*
X597363Y316709D01*
X594637Y316709D01*
G37*
%LPD*%
%LPC*%
G36*
X770137Y46709D02*
X770137Y46709D01*
X768209Y48637D01*
X768209Y51363D01*
X770137Y53291D01*
X772863Y53291D01*
X773490Y52664D01*
X773506Y52652D01*
X773518Y52637D01*
X773606Y52581D01*
X773689Y52521D01*
X773708Y52515D01*
X773725Y52504D01*
X773826Y52479D01*
X773925Y52448D01*
X773944Y52449D01*
X773964Y52444D01*
X774067Y52452D01*
X774170Y52455D01*
X774189Y52461D01*
X774209Y52463D01*
X774304Y52503D01*
X774401Y52539D01*
X774417Y52551D01*
X774435Y52559D01*
X774566Y52664D01*
X775193Y53291D01*
X777919Y53291D01*
X778546Y52664D01*
X778562Y52652D01*
X778574Y52637D01*
X778662Y52581D01*
X778745Y52521D01*
X778764Y52515D01*
X778781Y52504D01*
X778882Y52479D01*
X778981Y52448D01*
X779000Y52449D01*
X779020Y52444D01*
X779123Y52452D01*
X779226Y52455D01*
X779245Y52461D01*
X779265Y52463D01*
X779360Y52503D01*
X779457Y52539D01*
X779473Y52552D01*
X779491Y52559D01*
X779622Y52664D01*
X780249Y53291D01*
X782975Y53291D01*
X784903Y51363D01*
X784903Y48637D01*
X782975Y46709D01*
X780249Y46709D01*
X779622Y47336D01*
X779606Y47348D01*
X779594Y47363D01*
X779506Y47419D01*
X779423Y47479D01*
X779404Y47485D01*
X779387Y47496D01*
X779286Y47521D01*
X779187Y47552D01*
X779168Y47551D01*
X779148Y47556D01*
X779045Y47548D01*
X778942Y47545D01*
X778923Y47539D01*
X778903Y47537D01*
X778808Y47497D01*
X778711Y47461D01*
X778695Y47449D01*
X778677Y47441D01*
X778546Y47336D01*
X777919Y46709D01*
X775193Y46709D01*
X774566Y47336D01*
X774550Y47348D01*
X774538Y47363D01*
X774450Y47419D01*
X774367Y47479D01*
X774348Y47485D01*
X774331Y47496D01*
X774230Y47521D01*
X774131Y47552D01*
X774112Y47551D01*
X774092Y47556D01*
X773989Y47548D01*
X773886Y47545D01*
X773867Y47539D01*
X773847Y47537D01*
X773752Y47497D01*
X773655Y47461D01*
X773639Y47448D01*
X773621Y47441D01*
X773490Y47336D01*
X772863Y46709D01*
X770137Y46709D01*
G37*
%LPD*%
%LPC*%
G36*
X557137Y72209D02*
X557137Y72209D01*
X555209Y74137D01*
X555209Y76863D01*
X557137Y78791D01*
X559863Y78791D01*
X560490Y78164D01*
X560506Y78152D01*
X560518Y78137D01*
X560606Y78081D01*
X560689Y78021D01*
X560708Y78015D01*
X560725Y78004D01*
X560826Y77979D01*
X560925Y77948D01*
X560944Y77949D01*
X560964Y77944D01*
X561067Y77952D01*
X561170Y77955D01*
X561189Y77961D01*
X561209Y77963D01*
X561304Y78003D01*
X561401Y78039D01*
X561417Y78052D01*
X561435Y78059D01*
X561566Y78164D01*
X562193Y78791D01*
X564919Y78791D01*
X565546Y78164D01*
X565562Y78152D01*
X565574Y78137D01*
X565662Y78081D01*
X565745Y78021D01*
X565764Y78015D01*
X565781Y78004D01*
X565882Y77979D01*
X565981Y77948D01*
X566000Y77949D01*
X566020Y77944D01*
X566123Y77952D01*
X566226Y77955D01*
X566245Y77961D01*
X566265Y77963D01*
X566360Y78003D01*
X566457Y78039D01*
X566473Y78052D01*
X566491Y78059D01*
X566622Y78164D01*
X567249Y78791D01*
X569975Y78791D01*
X571903Y76863D01*
X571903Y74137D01*
X569975Y72209D01*
X567249Y72209D01*
X566622Y72836D01*
X566606Y72848D01*
X566594Y72863D01*
X566506Y72919D01*
X566423Y72979D01*
X566404Y72985D01*
X566387Y72996D01*
X566286Y73021D01*
X566187Y73052D01*
X566168Y73051D01*
X566148Y73056D01*
X566045Y73048D01*
X565942Y73045D01*
X565923Y73039D01*
X565903Y73037D01*
X565808Y72997D01*
X565711Y72961D01*
X565695Y72949D01*
X565677Y72941D01*
X565546Y72836D01*
X564919Y72209D01*
X562193Y72209D01*
X561566Y72836D01*
X561550Y72848D01*
X561538Y72863D01*
X561450Y72919D01*
X561367Y72979D01*
X561348Y72985D01*
X561331Y72996D01*
X561230Y73021D01*
X561131Y73052D01*
X561112Y73051D01*
X561092Y73056D01*
X560989Y73048D01*
X560886Y73045D01*
X560867Y73039D01*
X560847Y73037D01*
X560752Y72997D01*
X560655Y72961D01*
X560639Y72949D01*
X560621Y72941D01*
X560490Y72836D01*
X559863Y72209D01*
X557137Y72209D01*
G37*
%LPD*%
%LPC*%
G36*
X338637Y721709D02*
X338637Y721709D01*
X336709Y723637D01*
X336709Y726363D01*
X338637Y728291D01*
X339948Y728291D01*
X339968Y728294D01*
X339987Y728292D01*
X340089Y728314D01*
X340191Y728330D01*
X340208Y728340D01*
X340228Y728344D01*
X340317Y728397D01*
X340408Y728446D01*
X340422Y728460D01*
X340439Y728470D01*
X340506Y728549D01*
X340578Y728624D01*
X340586Y728642D01*
X340599Y728657D01*
X340638Y728753D01*
X340671Y728825D01*
X342637Y730791D01*
X343448Y730791D01*
X343468Y730794D01*
X343487Y730792D01*
X343589Y730814D01*
X343691Y730830D01*
X343708Y730840D01*
X343728Y730844D01*
X343817Y730897D01*
X343908Y730946D01*
X343922Y730960D01*
X343939Y730970D01*
X344006Y731049D01*
X344078Y731124D01*
X344086Y731142D01*
X344099Y731157D01*
X344138Y731253D01*
X344181Y731347D01*
X344183Y731367D01*
X344191Y731385D01*
X344209Y731552D01*
X344209Y732045D01*
X346137Y733973D01*
X348863Y733973D01*
X350791Y732045D01*
X350791Y729319D01*
X348863Y727391D01*
X348052Y727391D01*
X348032Y727388D01*
X348013Y727390D01*
X347911Y727368D01*
X347809Y727352D01*
X347792Y727342D01*
X347772Y727338D01*
X347683Y727285D01*
X347592Y727236D01*
X347578Y727222D01*
X347561Y727212D01*
X347494Y727133D01*
X347422Y727058D01*
X347414Y727040D01*
X347401Y727025D01*
X347362Y726929D01*
X347319Y726835D01*
X347317Y726815D01*
X347309Y726797D01*
X347291Y726630D01*
X347291Y726137D01*
X345363Y724209D01*
X344052Y724209D01*
X344032Y724206D01*
X344013Y724208D01*
X343911Y724186D01*
X343809Y724170D01*
X343792Y724160D01*
X343772Y724156D01*
X343683Y724103D01*
X343592Y724054D01*
X343578Y724040D01*
X343561Y724030D01*
X343494Y723951D01*
X343422Y723876D01*
X343414Y723858D01*
X343401Y723843D01*
X343362Y723747D01*
X343329Y723675D01*
X341363Y721709D01*
X338637Y721709D01*
G37*
%LPD*%
%LPC*%
G36*
X788989Y589209D02*
X788989Y589209D01*
X787061Y591137D01*
X787061Y593863D01*
X788910Y595712D01*
X788922Y595728D01*
X788937Y595740D01*
X788993Y595828D01*
X789053Y595911D01*
X789059Y595930D01*
X789070Y595947D01*
X789095Y596048D01*
X789126Y596147D01*
X789125Y596166D01*
X789130Y596186D01*
X789122Y596289D01*
X789119Y596392D01*
X789113Y596411D01*
X789111Y596431D01*
X789071Y596526D01*
X789035Y596623D01*
X789022Y596639D01*
X789015Y596657D01*
X788910Y596788D01*
X787061Y598637D01*
X787061Y601363D01*
X788989Y603291D01*
X791715Y603291D01*
X793643Y601363D01*
X793643Y598637D01*
X791794Y596788D01*
X791782Y596772D01*
X791767Y596760D01*
X791711Y596672D01*
X791651Y596589D01*
X791645Y596570D01*
X791634Y596553D01*
X791609Y596452D01*
X791578Y596353D01*
X791579Y596334D01*
X791574Y596314D01*
X791582Y596211D01*
X791585Y596108D01*
X791591Y596089D01*
X791593Y596069D01*
X791633Y595974D01*
X791669Y595877D01*
X791681Y595861D01*
X791689Y595843D01*
X791794Y595712D01*
X793643Y593863D01*
X793643Y591137D01*
X791715Y589209D01*
X788989Y589209D01*
G37*
%LPD*%
%LPC*%
G36*
X775885Y589209D02*
X775885Y589209D01*
X773957Y591137D01*
X773957Y593863D01*
X775806Y595712D01*
X775818Y595728D01*
X775833Y595740D01*
X775889Y595828D01*
X775949Y595911D01*
X775955Y595930D01*
X775966Y595947D01*
X775991Y596048D01*
X776022Y596147D01*
X776021Y596166D01*
X776026Y596186D01*
X776018Y596289D01*
X776015Y596392D01*
X776009Y596411D01*
X776007Y596431D01*
X775967Y596526D01*
X775931Y596623D01*
X775918Y596639D01*
X775911Y596657D01*
X775806Y596788D01*
X773957Y598637D01*
X773957Y601363D01*
X775885Y603291D01*
X778611Y603291D01*
X780539Y601363D01*
X780539Y598637D01*
X778690Y596788D01*
X778678Y596772D01*
X778663Y596760D01*
X778607Y596672D01*
X778547Y596589D01*
X778541Y596570D01*
X778530Y596553D01*
X778505Y596452D01*
X778474Y596353D01*
X778475Y596334D01*
X778470Y596314D01*
X778478Y596211D01*
X778481Y596108D01*
X778487Y596089D01*
X778489Y596069D01*
X778529Y595974D01*
X778565Y595877D01*
X778577Y595861D01*
X778585Y595843D01*
X778690Y595712D01*
X780539Y593863D01*
X780539Y591137D01*
X778611Y589209D01*
X775885Y589209D01*
G37*
%LPD*%
%LPC*%
G36*
X291137Y678265D02*
X291137Y678265D01*
X289209Y680193D01*
X289209Y682919D01*
X291137Y684847D01*
X293863Y684847D01*
X295240Y683470D01*
X295256Y683458D01*
X295268Y683443D01*
X295356Y683387D01*
X295439Y683327D01*
X295458Y683321D01*
X295475Y683310D01*
X295576Y683285D01*
X295675Y683254D01*
X295694Y683255D01*
X295714Y683250D01*
X295817Y683258D01*
X295920Y683261D01*
X295939Y683267D01*
X295959Y683269D01*
X296054Y683309D01*
X296151Y683345D01*
X296167Y683358D01*
X296185Y683365D01*
X296316Y683470D01*
X298137Y685291D01*
X300863Y685291D01*
X302791Y683363D01*
X302791Y680637D01*
X300863Y678709D01*
X298137Y678709D01*
X296760Y680086D01*
X296744Y680098D01*
X296732Y680113D01*
X296644Y680169D01*
X296561Y680229D01*
X296542Y680235D01*
X296525Y680246D01*
X296424Y680271D01*
X296325Y680302D01*
X296306Y680301D01*
X296286Y680306D01*
X296183Y680298D01*
X296080Y680295D01*
X296061Y680289D01*
X296041Y680287D01*
X295946Y680247D01*
X295849Y680211D01*
X295833Y680199D01*
X295815Y680191D01*
X295684Y680086D01*
X293863Y678265D01*
X291137Y678265D01*
G37*
%LPD*%
%LPC*%
G36*
X808637Y166709D02*
X808637Y166709D01*
X806709Y168637D01*
X806709Y171363D01*
X808308Y172962D01*
X808320Y172978D01*
X808335Y172990D01*
X808391Y173078D01*
X808451Y173161D01*
X808457Y173180D01*
X808468Y173197D01*
X808493Y173298D01*
X808524Y173397D01*
X808523Y173416D01*
X808528Y173436D01*
X808520Y173539D01*
X808517Y173642D01*
X808511Y173661D01*
X808509Y173681D01*
X808469Y173776D01*
X808433Y173873D01*
X808420Y173889D01*
X808413Y173907D01*
X808308Y174038D01*
X806709Y175637D01*
X806709Y178363D01*
X808637Y180291D01*
X811363Y180291D01*
X813291Y178363D01*
X813291Y175637D01*
X811692Y174038D01*
X811680Y174022D01*
X811665Y174010D01*
X811609Y173922D01*
X811549Y173839D01*
X811543Y173820D01*
X811532Y173803D01*
X811507Y173702D01*
X811476Y173603D01*
X811477Y173584D01*
X811472Y173564D01*
X811480Y173461D01*
X811483Y173358D01*
X811489Y173339D01*
X811491Y173319D01*
X811531Y173224D01*
X811567Y173127D01*
X811579Y173111D01*
X811587Y173093D01*
X811692Y172962D01*
X813291Y171363D01*
X813291Y168637D01*
X811363Y166709D01*
X808637Y166709D01*
G37*
%LPD*%
%LPC*%
G36*
X204137Y236709D02*
X204137Y236709D01*
X202209Y238637D01*
X202209Y241363D01*
X204137Y243291D01*
X206863Y243291D01*
X208462Y241692D01*
X208478Y241680D01*
X208490Y241665D01*
X208578Y241609D01*
X208661Y241549D01*
X208680Y241543D01*
X208697Y241532D01*
X208798Y241507D01*
X208897Y241476D01*
X208916Y241477D01*
X208936Y241472D01*
X209039Y241480D01*
X209142Y241483D01*
X209161Y241489D01*
X209181Y241491D01*
X209276Y241531D01*
X209373Y241567D01*
X209389Y241579D01*
X209407Y241587D01*
X209538Y241692D01*
X211137Y243291D01*
X213863Y243291D01*
X215791Y241363D01*
X215791Y238637D01*
X213863Y236709D01*
X211137Y236709D01*
X209538Y238308D01*
X209522Y238320D01*
X209510Y238335D01*
X209422Y238391D01*
X209339Y238451D01*
X209320Y238457D01*
X209303Y238468D01*
X209202Y238493D01*
X209103Y238524D01*
X209084Y238523D01*
X209064Y238528D01*
X208961Y238520D01*
X208858Y238517D01*
X208839Y238511D01*
X208819Y238509D01*
X208724Y238469D01*
X208627Y238433D01*
X208611Y238420D01*
X208593Y238413D01*
X208462Y238308D01*
X206863Y236709D01*
X204137Y236709D01*
G37*
%LPD*%
%LPC*%
G36*
X768637Y391709D02*
X768637Y391709D01*
X766709Y393637D01*
X766709Y395000D01*
X766706Y395020D01*
X766708Y395039D01*
X766686Y395141D01*
X766670Y395243D01*
X766660Y395260D01*
X766656Y395280D01*
X766603Y395369D01*
X766554Y395460D01*
X766540Y395474D01*
X766530Y395491D01*
X766451Y395558D01*
X766376Y395630D01*
X766358Y395638D01*
X766343Y395651D01*
X766247Y395690D01*
X766153Y395733D01*
X766133Y395735D01*
X766115Y395743D01*
X765948Y395761D01*
X763137Y395761D01*
X761209Y397689D01*
X761209Y400415D01*
X763137Y402343D01*
X765863Y402343D01*
X767791Y400415D01*
X767791Y399052D01*
X767794Y399032D01*
X767792Y399013D01*
X767814Y398911D01*
X767830Y398809D01*
X767840Y398792D01*
X767844Y398772D01*
X767897Y398683D01*
X767946Y398592D01*
X767960Y398578D01*
X767970Y398561D01*
X768049Y398494D01*
X768124Y398422D01*
X768142Y398414D01*
X768157Y398401D01*
X768253Y398362D01*
X768347Y398319D01*
X768367Y398317D01*
X768385Y398309D01*
X768552Y398291D01*
X771363Y398291D01*
X773291Y396363D01*
X773291Y393637D01*
X771363Y391709D01*
X768637Y391709D01*
G37*
%LPD*%
%LPC*%
G36*
X1138637Y816709D02*
X1138637Y816709D01*
X1136709Y818637D01*
X1136709Y821363D01*
X1138637Y823291D01*
X1141363Y823291D01*
X1142462Y822192D01*
X1142478Y822180D01*
X1142490Y822165D01*
X1142578Y822109D01*
X1142661Y822049D01*
X1142680Y822043D01*
X1142697Y822032D01*
X1142798Y822007D01*
X1142897Y821976D01*
X1142916Y821977D01*
X1142936Y821972D01*
X1143039Y821980D01*
X1143142Y821983D01*
X1143161Y821989D01*
X1143181Y821991D01*
X1143276Y822031D01*
X1143373Y822067D01*
X1143389Y822079D01*
X1143407Y822087D01*
X1143538Y822192D01*
X1144637Y823291D01*
X1147363Y823291D01*
X1149291Y821363D01*
X1149291Y818637D01*
X1147363Y816709D01*
X1144637Y816709D01*
X1143538Y817808D01*
X1143522Y817820D01*
X1143510Y817835D01*
X1143422Y817891D01*
X1143339Y817951D01*
X1143320Y817957D01*
X1143303Y817968D01*
X1143202Y817993D01*
X1143103Y818024D01*
X1143084Y818023D01*
X1143064Y818028D01*
X1142961Y818020D01*
X1142858Y818017D01*
X1142839Y818011D01*
X1142819Y818009D01*
X1142724Y817969D01*
X1142627Y817933D01*
X1142611Y817920D01*
X1142593Y817913D01*
X1142462Y817808D01*
X1141363Y816709D01*
X1138637Y816709D01*
G37*
%LPD*%
%LPC*%
G36*
X727522Y386594D02*
X727522Y386594D01*
X726423Y387693D01*
X726407Y387704D01*
X726394Y387720D01*
X726307Y387776D01*
X726223Y387836D01*
X726204Y387842D01*
X726188Y387853D01*
X726087Y387878D01*
X725988Y387909D01*
X725968Y387908D01*
X725949Y387913D01*
X725846Y387905D01*
X725742Y387902D01*
X725724Y387895D01*
X725704Y387894D01*
X725609Y387853D01*
X725511Y387818D01*
X725496Y387805D01*
X725477Y387798D01*
X725347Y387693D01*
X724363Y386709D01*
X721637Y386709D01*
X719709Y388637D01*
X719709Y391363D01*
X721637Y393291D01*
X724363Y393291D01*
X725462Y392192D01*
X725478Y392180D01*
X725490Y392165D01*
X725578Y392109D01*
X725661Y392049D01*
X725680Y392043D01*
X725697Y392032D01*
X725798Y392007D01*
X725897Y391976D01*
X725916Y391977D01*
X725936Y391972D01*
X726039Y391980D01*
X726142Y391983D01*
X726161Y391989D01*
X726181Y391991D01*
X726276Y392031D01*
X726373Y392067D01*
X726389Y392079D01*
X726407Y392087D01*
X726538Y392192D01*
X727522Y393176D01*
X730248Y393176D01*
X732176Y391248D01*
X732176Y388522D01*
X730248Y386594D01*
X727522Y386594D01*
G37*
%LPD*%
%LPC*%
G36*
X394740Y306959D02*
X394740Y306959D01*
X392959Y308740D01*
X392959Y311260D01*
X394740Y313041D01*
X397259Y313041D01*
X397410Y312891D01*
X397468Y312849D01*
X397520Y312799D01*
X397567Y312777D01*
X397609Y312747D01*
X397678Y312726D01*
X397743Y312696D01*
X397795Y312690D01*
X397845Y312675D01*
X397916Y312676D01*
X397987Y312669D01*
X398038Y312680D01*
X398090Y312681D01*
X398158Y312706D01*
X398228Y312721D01*
X398273Y312748D01*
X398321Y312765D01*
X398377Y312810D01*
X398439Y312847D01*
X398473Y312887D01*
X398513Y312919D01*
X398552Y312979D01*
X398599Y313034D01*
X398618Y313082D01*
X398646Y313126D01*
X398664Y313195D01*
X398691Y313262D01*
X398699Y313333D01*
X398707Y313365D01*
X398705Y313388D01*
X398709Y313429D01*
X398709Y315363D01*
X400637Y317291D01*
X403363Y317291D01*
X405291Y315363D01*
X405291Y312637D01*
X403363Y310709D01*
X400637Y310709D01*
X400340Y311006D01*
X400282Y311048D01*
X400230Y311097D01*
X400183Y311119D01*
X400141Y311149D01*
X400072Y311171D01*
X400007Y311201D01*
X399955Y311207D01*
X399905Y311222D01*
X399834Y311220D01*
X399763Y311228D01*
X399712Y311217D01*
X399660Y311215D01*
X399592Y311191D01*
X399522Y311176D01*
X399477Y311149D01*
X399429Y311131D01*
X399373Y311086D01*
X399311Y311049D01*
X399277Y311010D01*
X399237Y310977D01*
X399198Y310917D01*
X399151Y310863D01*
X399132Y310814D01*
X399104Y310770D01*
X399086Y310701D01*
X399059Y310634D01*
X399051Y310563D01*
X399043Y310532D01*
X399045Y310509D01*
X399041Y310468D01*
X399041Y308740D01*
X397260Y306959D01*
X394740Y306959D01*
G37*
%LPD*%
%LPC*%
G36*
X668637Y736709D02*
X668637Y736709D01*
X666709Y738637D01*
X666709Y741363D01*
X668637Y743291D01*
X671363Y743291D01*
X671990Y742664D01*
X672006Y742652D01*
X672018Y742637D01*
X672106Y742581D01*
X672189Y742521D01*
X672208Y742515D01*
X672225Y742504D01*
X672326Y742479D01*
X672425Y742448D01*
X672444Y742449D01*
X672464Y742444D01*
X672567Y742452D01*
X672670Y742455D01*
X672689Y742461D01*
X672709Y742463D01*
X672804Y742503D01*
X672901Y742539D01*
X672917Y742551D01*
X672935Y742559D01*
X673066Y742664D01*
X673693Y743291D01*
X676419Y743291D01*
X678347Y741363D01*
X678347Y738637D01*
X676419Y736709D01*
X673693Y736709D01*
X673066Y737336D01*
X673050Y737348D01*
X673038Y737363D01*
X672950Y737419D01*
X672867Y737479D01*
X672848Y737485D01*
X672831Y737496D01*
X672730Y737521D01*
X672631Y737552D01*
X672612Y737551D01*
X672592Y737556D01*
X672489Y737548D01*
X672386Y737545D01*
X672367Y737539D01*
X672347Y737537D01*
X672252Y737497D01*
X672155Y737461D01*
X672139Y737448D01*
X672121Y737441D01*
X671990Y737336D01*
X671363Y736709D01*
X668637Y736709D01*
G37*
%LPD*%
%LPC*%
G36*
X484137Y551153D02*
X484137Y551153D01*
X482209Y553081D01*
X482209Y555807D01*
X482836Y556434D01*
X482848Y556450D01*
X482863Y556462D01*
X482919Y556550D01*
X482979Y556633D01*
X482985Y556652D01*
X482996Y556669D01*
X483021Y556770D01*
X483052Y556869D01*
X483051Y556888D01*
X483056Y556908D01*
X483048Y557011D01*
X483045Y557114D01*
X483039Y557133D01*
X483037Y557153D01*
X482997Y557248D01*
X482961Y557345D01*
X482948Y557361D01*
X482941Y557379D01*
X482836Y557510D01*
X482209Y558137D01*
X482209Y560863D01*
X484137Y562791D01*
X486863Y562791D01*
X488791Y560863D01*
X488791Y558137D01*
X488164Y557510D01*
X488152Y557494D01*
X488137Y557482D01*
X488081Y557394D01*
X488021Y557311D01*
X488015Y557292D01*
X488004Y557275D01*
X487979Y557174D01*
X487948Y557075D01*
X487949Y557056D01*
X487944Y557036D01*
X487952Y556933D01*
X487955Y556830D01*
X487961Y556811D01*
X487963Y556791D01*
X488003Y556696D01*
X488039Y556599D01*
X488051Y556583D01*
X488059Y556565D01*
X488164Y556434D01*
X488791Y555807D01*
X488791Y553081D01*
X486863Y551153D01*
X484137Y551153D01*
G37*
%LPD*%
%LPC*%
G36*
X484137Y566153D02*
X484137Y566153D01*
X482209Y568081D01*
X482209Y570807D01*
X482836Y571434D01*
X482848Y571450D01*
X482863Y571462D01*
X482919Y571550D01*
X482979Y571633D01*
X482985Y571652D01*
X482996Y571669D01*
X483021Y571770D01*
X483052Y571869D01*
X483051Y571888D01*
X483056Y571908D01*
X483048Y572011D01*
X483045Y572114D01*
X483039Y572133D01*
X483037Y572153D01*
X482997Y572248D01*
X482961Y572345D01*
X482949Y572361D01*
X482941Y572379D01*
X482836Y572510D01*
X482209Y573137D01*
X482209Y575863D01*
X484137Y577791D01*
X486863Y577791D01*
X488791Y575863D01*
X488791Y573137D01*
X488164Y572510D01*
X488152Y572494D01*
X488137Y572482D01*
X488081Y572394D01*
X488021Y572311D01*
X488015Y572292D01*
X488004Y572275D01*
X487979Y572174D01*
X487948Y572075D01*
X487949Y572056D01*
X487944Y572036D01*
X487952Y571933D01*
X487955Y571830D01*
X487961Y571811D01*
X487963Y571791D01*
X488003Y571696D01*
X488039Y571599D01*
X488052Y571583D01*
X488059Y571565D01*
X488164Y571434D01*
X488791Y570807D01*
X488791Y568081D01*
X486863Y566153D01*
X484137Y566153D01*
G37*
%LPD*%
%LPC*%
G36*
X828637Y761653D02*
X828637Y761653D01*
X826709Y763581D01*
X826709Y766307D01*
X827336Y766934D01*
X827348Y766950D01*
X827363Y766962D01*
X827394Y767011D01*
X827399Y767016D01*
X827403Y767024D01*
X827419Y767050D01*
X827479Y767133D01*
X827485Y767152D01*
X827496Y767169D01*
X827521Y767270D01*
X827552Y767369D01*
X827551Y767388D01*
X827556Y767408D01*
X827548Y767511D01*
X827545Y767614D01*
X827539Y767633D01*
X827537Y767653D01*
X827497Y767748D01*
X827461Y767845D01*
X827449Y767861D01*
X827441Y767879D01*
X827336Y768010D01*
X826709Y768637D01*
X826709Y771363D01*
X828637Y773291D01*
X831363Y773291D01*
X833291Y771363D01*
X833291Y768637D01*
X832664Y768010D01*
X832652Y767994D01*
X832637Y767982D01*
X832581Y767894D01*
X832521Y767811D01*
X832515Y767792D01*
X832504Y767775D01*
X832479Y767674D01*
X832448Y767575D01*
X832449Y767556D01*
X832444Y767536D01*
X832452Y767433D01*
X832455Y767330D01*
X832461Y767311D01*
X832463Y767291D01*
X832503Y767196D01*
X832539Y767099D01*
X832552Y767083D01*
X832559Y767065D01*
X832664Y766934D01*
X833291Y766307D01*
X833291Y763581D01*
X831363Y761653D01*
X828637Y761653D01*
G37*
%LPD*%
%LPC*%
G36*
X368137Y720209D02*
X368137Y720209D01*
X366209Y722137D01*
X366209Y724863D01*
X368137Y726791D01*
X370863Y726791D01*
X371462Y726192D01*
X371478Y726180D01*
X371490Y726165D01*
X371578Y726109D01*
X371661Y726049D01*
X371680Y726043D01*
X371697Y726032D01*
X371798Y726007D01*
X371897Y725976D01*
X371916Y725977D01*
X371936Y725972D01*
X372039Y725980D01*
X372142Y725983D01*
X372161Y725989D01*
X372181Y725991D01*
X372276Y726031D01*
X372373Y726067D01*
X372389Y726080D01*
X372407Y726087D01*
X372538Y726192D01*
X373137Y726791D01*
X375863Y726791D01*
X377791Y724863D01*
X377791Y722137D01*
X375863Y720209D01*
X373137Y720209D01*
X372538Y720808D01*
X372522Y720820D01*
X372510Y720835D01*
X372434Y720884D01*
X372418Y720897D01*
X372409Y720901D01*
X372339Y720951D01*
X372320Y720957D01*
X372303Y720968D01*
X372202Y720993D01*
X372103Y721024D01*
X372084Y721023D01*
X372064Y721028D01*
X371961Y721020D01*
X371858Y721017D01*
X371839Y721011D01*
X371819Y721009D01*
X371724Y720969D01*
X371627Y720933D01*
X371611Y720921D01*
X371593Y720913D01*
X371520Y720855D01*
X371516Y720853D01*
X371513Y720849D01*
X371462Y720808D01*
X370863Y720209D01*
X368137Y720209D01*
G37*
%LPD*%
%LPC*%
G36*
X351637Y720209D02*
X351637Y720209D01*
X349709Y722137D01*
X349709Y724863D01*
X351637Y726791D01*
X354363Y726791D01*
X354962Y726192D01*
X354978Y726180D01*
X354990Y726165D01*
X355078Y726109D01*
X355161Y726049D01*
X355180Y726043D01*
X355197Y726032D01*
X355298Y726007D01*
X355397Y725976D01*
X355416Y725977D01*
X355436Y725972D01*
X355539Y725980D01*
X355642Y725983D01*
X355661Y725989D01*
X355681Y725991D01*
X355776Y726031D01*
X355873Y726067D01*
X355889Y726080D01*
X355907Y726087D01*
X356038Y726192D01*
X356637Y726791D01*
X359363Y726791D01*
X361291Y724863D01*
X361291Y722137D01*
X359363Y720209D01*
X356637Y720209D01*
X356038Y720808D01*
X356022Y720820D01*
X356010Y720835D01*
X355934Y720884D01*
X355918Y720897D01*
X355909Y720901D01*
X355839Y720951D01*
X355820Y720957D01*
X355803Y720968D01*
X355702Y720993D01*
X355603Y721024D01*
X355584Y721023D01*
X355564Y721028D01*
X355461Y721020D01*
X355358Y721017D01*
X355339Y721011D01*
X355319Y721009D01*
X355224Y720969D01*
X355127Y720933D01*
X355111Y720921D01*
X355093Y720913D01*
X355020Y720855D01*
X355016Y720853D01*
X355013Y720849D01*
X354962Y720808D01*
X354363Y720209D01*
X351637Y720209D01*
G37*
%LPD*%
%LPC*%
G36*
X1118923Y543273D02*
X1118923Y543273D01*
X1118923Y551827D01*
X1119786Y551690D01*
X1121312Y551194D01*
X1122741Y550466D01*
X1124039Y549523D01*
X1125173Y548389D01*
X1126116Y547091D01*
X1126844Y545662D01*
X1127340Y544136D01*
X1127477Y543273D01*
X1118923Y543273D01*
G37*
%LPD*%
%LPC*%
G36*
X1118923Y540227D02*
X1118923Y540227D01*
X1127477Y540227D01*
X1127340Y539364D01*
X1126844Y537838D01*
X1126116Y536409D01*
X1125173Y535111D01*
X1124039Y533977D01*
X1122741Y533034D01*
X1121312Y532306D01*
X1119786Y531810D01*
X1118923Y531673D01*
X1118923Y540227D01*
G37*
%LPD*%
%LPC*%
G36*
X1107323Y543273D02*
X1107323Y543273D01*
X1107460Y544136D01*
X1107956Y545662D01*
X1108684Y547091D01*
X1109627Y548389D01*
X1110761Y549523D01*
X1112059Y550466D01*
X1113488Y551194D01*
X1115014Y551690D01*
X1115877Y551827D01*
X1115877Y543273D01*
X1107323Y543273D01*
G37*
%LPD*%
%LPC*%
G36*
X1115014Y531810D02*
X1115014Y531810D01*
X1113488Y532306D01*
X1112059Y533034D01*
X1110761Y533977D01*
X1109627Y535111D01*
X1108684Y536409D01*
X1107956Y537838D01*
X1107460Y539364D01*
X1107323Y540227D01*
X1115877Y540227D01*
X1115877Y531673D01*
X1115014Y531810D01*
G37*
%LPD*%
%LPC*%
G36*
X1012920Y805117D02*
X1012920Y805117D01*
X1012920Y813640D01*
X1013776Y813504D01*
X1015298Y813010D01*
X1016722Y812284D01*
X1018016Y811344D01*
X1019147Y810213D01*
X1020087Y808919D01*
X1020813Y807494D01*
X1021308Y805973D01*
X1021443Y805117D01*
X1012920Y805117D01*
G37*
%LPD*%
%LPC*%
G36*
X1089120Y805117D02*
X1089120Y805117D01*
X1089120Y813640D01*
X1089976Y813504D01*
X1091498Y813010D01*
X1092922Y812284D01*
X1094216Y811344D01*
X1095347Y810213D01*
X1096287Y808919D01*
X1097013Y807494D01*
X1097508Y805973D01*
X1097643Y805117D01*
X1089120Y805117D01*
G37*
%LPD*%
%LPC*%
G36*
X1063720Y805117D02*
X1063720Y805117D01*
X1063720Y813640D01*
X1064576Y813504D01*
X1066098Y813010D01*
X1067522Y812284D01*
X1068816Y811344D01*
X1069947Y810213D01*
X1070887Y808919D01*
X1071613Y807494D01*
X1072108Y805973D01*
X1072243Y805117D01*
X1063720Y805117D01*
G37*
%LPD*%
%LPC*%
G36*
X1038320Y805117D02*
X1038320Y805117D01*
X1038320Y813640D01*
X1039176Y813504D01*
X1040698Y813010D01*
X1042122Y812284D01*
X1043416Y811344D01*
X1044547Y810213D01*
X1045487Y808919D01*
X1046213Y807494D01*
X1046708Y805973D01*
X1046843Y805117D01*
X1038320Y805117D01*
G37*
%LPD*%
%LPC*%
G36*
X1001351Y805117D02*
X1001351Y805117D01*
X1001487Y805973D01*
X1001981Y807494D01*
X1002707Y808919D01*
X1003647Y810213D01*
X1004778Y811344D01*
X1006072Y812284D01*
X1007497Y813010D01*
X1009018Y813504D01*
X1009874Y813640D01*
X1009874Y805117D01*
X1001351Y805117D01*
G37*
%LPD*%
%LPC*%
G36*
X1038320Y802071D02*
X1038320Y802071D01*
X1046843Y802071D01*
X1046708Y801215D01*
X1046213Y799693D01*
X1045487Y798269D01*
X1044547Y796975D01*
X1043416Y795844D01*
X1042122Y794904D01*
X1040698Y794178D01*
X1039176Y793683D01*
X1038320Y793548D01*
X1038320Y802071D01*
G37*
%LPD*%
%LPC*%
G36*
X1077551Y805117D02*
X1077551Y805117D01*
X1077687Y805973D01*
X1078181Y807494D01*
X1078907Y808919D01*
X1079847Y810213D01*
X1080978Y811344D01*
X1082272Y812284D01*
X1083697Y813010D01*
X1085218Y813504D01*
X1086074Y813640D01*
X1086074Y805117D01*
X1077551Y805117D01*
G37*
%LPD*%
%LPC*%
G36*
X1089120Y802071D02*
X1089120Y802071D01*
X1097643Y802071D01*
X1097508Y801215D01*
X1097013Y799693D01*
X1096287Y798269D01*
X1095347Y796975D01*
X1094216Y795844D01*
X1092922Y794904D01*
X1091498Y794178D01*
X1089976Y793683D01*
X1089120Y793548D01*
X1089120Y802071D01*
G37*
%LPD*%
%LPC*%
G36*
X1012920Y802071D02*
X1012920Y802071D01*
X1021443Y802071D01*
X1021308Y801215D01*
X1020813Y799693D01*
X1020087Y798269D01*
X1019147Y796975D01*
X1018016Y795844D01*
X1016722Y794904D01*
X1015298Y794178D01*
X1013776Y793683D01*
X1012920Y793548D01*
X1012920Y802071D01*
G37*
%LPD*%
%LPC*%
G36*
X1063720Y802071D02*
X1063720Y802071D01*
X1072243Y802071D01*
X1072108Y801215D01*
X1071613Y799693D01*
X1070887Y798269D01*
X1069947Y796975D01*
X1068816Y795844D01*
X1067522Y794904D01*
X1066098Y794178D01*
X1064576Y793683D01*
X1063720Y793548D01*
X1063720Y802071D01*
G37*
%LPD*%
%LPC*%
G36*
X1052151Y805117D02*
X1052151Y805117D01*
X1052287Y805973D01*
X1052781Y807494D01*
X1053507Y808919D01*
X1054447Y810213D01*
X1055578Y811344D01*
X1056872Y812284D01*
X1058297Y813010D01*
X1059818Y813504D01*
X1060674Y813640D01*
X1060674Y805117D01*
X1052151Y805117D01*
G37*
%LPD*%
%LPC*%
G36*
X1026751Y805117D02*
X1026751Y805117D01*
X1026887Y805973D01*
X1027381Y807494D01*
X1028107Y808919D01*
X1029047Y810213D01*
X1030178Y811344D01*
X1031472Y812284D01*
X1032897Y813010D01*
X1034418Y813504D01*
X1035274Y813640D01*
X1035274Y805117D01*
X1026751Y805117D01*
G37*
%LPD*%
%LPC*%
G36*
X1009018Y793683D02*
X1009018Y793683D01*
X1007497Y794178D01*
X1006072Y794904D01*
X1004778Y795844D01*
X1003647Y796975D01*
X1002707Y798269D01*
X1001981Y799693D01*
X1001487Y801215D01*
X1001351Y802071D01*
X1009874Y802071D01*
X1009874Y793548D01*
X1009018Y793683D01*
G37*
%LPD*%
%LPC*%
G36*
X1085218Y793683D02*
X1085218Y793683D01*
X1083697Y794178D01*
X1082272Y794904D01*
X1080978Y795844D01*
X1079847Y796975D01*
X1078907Y798269D01*
X1078181Y799693D01*
X1077687Y801215D01*
X1077551Y802071D01*
X1086074Y802071D01*
X1086074Y793548D01*
X1085218Y793683D01*
G37*
%LPD*%
%LPC*%
G36*
X1034418Y793683D02*
X1034418Y793683D01*
X1032897Y794178D01*
X1031472Y794904D01*
X1030178Y795844D01*
X1029047Y796975D01*
X1028107Y798269D01*
X1027381Y799693D01*
X1026887Y801215D01*
X1026751Y802071D01*
X1035274Y802071D01*
X1035274Y793548D01*
X1034418Y793683D01*
G37*
%LPD*%
%LPC*%
G36*
X1059818Y793683D02*
X1059818Y793683D01*
X1058297Y794178D01*
X1056872Y794904D01*
X1055578Y795844D01*
X1054447Y796975D01*
X1053507Y798269D01*
X1052781Y799693D01*
X1052287Y801215D01*
X1052151Y802071D01*
X1060674Y802071D01*
X1060674Y793548D01*
X1059818Y793683D01*
G37*
%LPD*%
%LPC*%
G36*
X1048533Y186459D02*
X1048533Y186459D01*
X1046459Y188533D01*
X1046459Y191467D01*
X1048533Y193541D01*
X1051467Y193541D01*
X1053541Y191467D01*
X1053541Y188533D01*
X1051467Y186459D01*
X1048533Y186459D01*
G37*
%LPD*%
%LPC*%
G36*
X1068533Y146459D02*
X1068533Y146459D01*
X1066459Y148533D01*
X1066459Y151467D01*
X1068533Y153541D01*
X1071467Y153541D01*
X1073541Y151467D01*
X1073541Y148533D01*
X1071467Y146459D01*
X1068533Y146459D01*
G37*
%LPD*%
%LPC*%
G36*
X988533Y266459D02*
X988533Y266459D01*
X986459Y268533D01*
X986459Y271467D01*
X988533Y273541D01*
X991467Y273541D01*
X993541Y271467D01*
X993541Y268533D01*
X991467Y266459D01*
X988533Y266459D01*
G37*
%LPD*%
%LPC*%
G36*
X938533Y267441D02*
X938533Y267441D01*
X936459Y269515D01*
X936459Y272449D01*
X938533Y274523D01*
X941467Y274523D01*
X943541Y272449D01*
X943541Y269515D01*
X941467Y267441D01*
X938533Y267441D01*
G37*
%LPD*%
%LPC*%
G36*
X1104033Y273459D02*
X1104033Y273459D01*
X1101959Y275533D01*
X1101959Y278467D01*
X1104033Y280541D01*
X1106967Y280541D01*
X1109041Y278467D01*
X1109041Y275533D01*
X1106967Y273459D01*
X1104033Y273459D01*
G37*
%LPD*%
%LPC*%
G36*
X928533Y386459D02*
X928533Y386459D01*
X926459Y388533D01*
X926459Y391467D01*
X928533Y393541D01*
X931467Y393541D01*
X933541Y391467D01*
X933541Y388533D01*
X931467Y386459D01*
X928533Y386459D01*
G37*
%LPD*%
%LPC*%
G36*
X1102574Y304919D02*
X1102574Y304919D01*
X1100500Y306993D01*
X1100500Y309926D01*
X1102574Y312000D01*
X1105507Y312000D01*
X1107581Y309926D01*
X1107581Y306993D01*
X1105507Y304919D01*
X1102574Y304919D01*
G37*
%LPD*%
%LPC*%
G36*
X1103533Y285959D02*
X1103533Y285959D01*
X1101459Y288033D01*
X1101459Y290967D01*
X1103533Y293041D01*
X1106467Y293041D01*
X1108541Y290967D01*
X1108541Y288033D01*
X1106467Y285959D01*
X1103533Y285959D01*
G37*
%LPD*%
%LPC*%
G36*
X1098533Y136459D02*
X1098533Y136459D01*
X1096459Y138533D01*
X1096459Y141467D01*
X1098533Y143541D01*
X1101467Y143541D01*
X1103541Y141467D01*
X1103541Y138533D01*
X1101467Y136459D01*
X1098533Y136459D01*
G37*
%LPD*%
%LPC*%
G36*
X988533Y316459D02*
X988533Y316459D01*
X986459Y318533D01*
X986459Y321467D01*
X988533Y323541D01*
X991467Y323541D01*
X993541Y321467D01*
X993541Y318533D01*
X991467Y316459D01*
X988533Y316459D01*
G37*
%LPD*%
%LPC*%
G36*
X938533Y296459D02*
X938533Y296459D01*
X936459Y298533D01*
X936459Y301467D01*
X938533Y303541D01*
X941467Y303541D01*
X943541Y301467D01*
X943541Y298533D01*
X941467Y296459D01*
X938533Y296459D01*
G37*
%LPD*%
%LPC*%
G36*
X988533Y296459D02*
X988533Y296459D01*
X986459Y298533D01*
X986459Y301467D01*
X988533Y303541D01*
X991467Y303541D01*
X993541Y301467D01*
X993541Y298533D01*
X991467Y296459D01*
X988533Y296459D01*
G37*
%LPD*%
%LPC*%
G36*
X938824Y246169D02*
X938824Y246169D01*
X936750Y248243D01*
X936750Y251176D01*
X938824Y253250D01*
X941757Y253250D01*
X943831Y251176D01*
X943831Y248243D01*
X941757Y246169D01*
X938824Y246169D01*
G37*
%LPD*%
%LPC*%
G36*
X938574Y326500D02*
X938574Y326500D01*
X936500Y328574D01*
X936500Y331507D01*
X938574Y333581D01*
X941507Y333581D01*
X943581Y331507D01*
X943581Y328574D01*
X941507Y326500D01*
X938574Y326500D01*
G37*
%LPD*%
%LPC*%
G36*
X1028533Y96459D02*
X1028533Y96459D01*
X1026459Y98533D01*
X1026459Y101467D01*
X1028533Y103541D01*
X1031467Y103541D01*
X1033541Y101467D01*
X1033541Y98533D01*
X1031467Y96459D01*
X1028533Y96459D01*
G37*
%LPD*%
%LPC*%
G36*
X1048533Y256459D02*
X1048533Y256459D01*
X1046459Y258533D01*
X1046459Y261467D01*
X1048533Y263541D01*
X1051467Y263541D01*
X1053541Y261467D01*
X1053541Y258533D01*
X1051467Y256459D01*
X1048533Y256459D01*
G37*
%LPD*%
%LPC*%
G36*
X1131033Y71459D02*
X1131033Y71459D01*
X1128959Y73533D01*
X1128959Y76467D01*
X1131033Y78541D01*
X1133967Y78541D01*
X1136041Y76467D01*
X1136041Y73533D01*
X1133967Y71459D01*
X1131033Y71459D01*
G37*
%LPD*%
%LPC*%
G36*
X1078533Y196459D02*
X1078533Y196459D01*
X1076459Y198533D01*
X1076459Y201467D01*
X1078533Y203541D01*
X1081467Y203541D01*
X1083541Y201467D01*
X1083541Y198533D01*
X1081467Y196459D01*
X1078533Y196459D01*
G37*
%LPD*%
%LPC*%
G36*
X981023Y628523D02*
X981023Y628523D01*
X981023Y636093D01*
X982188Y635862D01*
X983865Y635167D01*
X985375Y634158D01*
X986658Y632875D01*
X987667Y631365D01*
X988362Y629688D01*
X988593Y628523D01*
X981023Y628523D01*
G37*
%LPD*%
%LPC*%
G36*
X981023Y625477D02*
X981023Y625477D01*
X988593Y625477D01*
X988362Y624312D01*
X987667Y622635D01*
X986658Y621125D01*
X985375Y619842D01*
X983865Y618833D01*
X982188Y618138D01*
X981023Y617907D01*
X981023Y625477D01*
G37*
%LPD*%
%LPC*%
G36*
X970407Y628523D02*
X970407Y628523D01*
X970638Y629688D01*
X971333Y631365D01*
X972342Y632875D01*
X973625Y634158D01*
X975135Y635167D01*
X976812Y635862D01*
X977977Y636093D01*
X977977Y628523D01*
X970407Y628523D01*
G37*
%LPD*%
%LPC*%
G36*
X976812Y618138D02*
X976812Y618138D01*
X975135Y618833D01*
X973625Y619842D01*
X972342Y621125D01*
X971333Y622635D01*
X970638Y624312D01*
X970407Y625477D01*
X977977Y625477D01*
X977977Y617907D01*
X976812Y618138D01*
G37*
%LPD*%
%LPC*%
G36*
X148637Y776709D02*
X148637Y776709D01*
X146709Y778637D01*
X146709Y781363D01*
X148637Y783291D01*
X151363Y783291D01*
X153291Y781363D01*
X153291Y778637D01*
X151363Y776709D01*
X148637Y776709D01*
G37*
%LPD*%
%LPC*%
G36*
X138637Y776709D02*
X138637Y776709D01*
X136709Y778637D01*
X136709Y781363D01*
X138637Y783291D01*
X141363Y783291D01*
X143291Y781363D01*
X143291Y778637D01*
X141363Y776709D01*
X138637Y776709D01*
G37*
%LPD*%
%LPC*%
G36*
X608637Y756709D02*
X608637Y756709D01*
X606709Y758637D01*
X606709Y761363D01*
X608637Y763291D01*
X611363Y763291D01*
X613291Y761363D01*
X613291Y758637D01*
X611363Y756709D01*
X608637Y756709D01*
G37*
%LPD*%
%LPC*%
G36*
X478637Y756709D02*
X478637Y756709D01*
X476709Y758637D01*
X476709Y761363D01*
X478637Y763291D01*
X481363Y763291D01*
X483291Y761363D01*
X483291Y758637D01*
X481363Y756709D01*
X478637Y756709D01*
G37*
%LPD*%
%LPC*%
G36*
X788137Y744209D02*
X788137Y744209D01*
X786209Y746137D01*
X786209Y748863D01*
X788137Y750791D01*
X790863Y750791D01*
X792791Y748863D01*
X792791Y746137D01*
X790863Y744209D01*
X788137Y744209D01*
G37*
%LPD*%
%LPC*%
G36*
X298637Y736709D02*
X298637Y736709D01*
X296709Y738637D01*
X296709Y741363D01*
X298637Y743291D01*
X301363Y743291D01*
X303291Y741363D01*
X303291Y738637D01*
X301363Y736709D01*
X298637Y736709D01*
G37*
%LPD*%
%LPC*%
G36*
X801137Y736709D02*
X801137Y736709D01*
X799209Y738637D01*
X799209Y741363D01*
X801137Y743291D01*
X803863Y743291D01*
X805791Y741363D01*
X805791Y738637D01*
X803863Y736709D01*
X801137Y736709D01*
G37*
%LPD*%
%LPC*%
G36*
X148637Y736709D02*
X148637Y736709D01*
X146709Y738637D01*
X146709Y741363D01*
X148637Y743291D01*
X151363Y743291D01*
X153291Y741363D01*
X153291Y738637D01*
X151363Y736709D01*
X148637Y736709D01*
G37*
%LPD*%
%LPC*%
G36*
X723137Y731209D02*
X723137Y731209D01*
X721209Y733137D01*
X721209Y735863D01*
X723137Y737791D01*
X725863Y737791D01*
X727791Y735863D01*
X727791Y733137D01*
X725863Y731209D01*
X723137Y731209D01*
G37*
%LPD*%
%LPC*%
G36*
X138637Y726709D02*
X138637Y726709D01*
X136709Y728637D01*
X136709Y731363D01*
X138637Y733291D01*
X141363Y733291D01*
X143291Y731363D01*
X143291Y728637D01*
X141363Y726709D01*
X138637Y726709D01*
G37*
%LPD*%
%LPC*%
G36*
X108637Y726709D02*
X108637Y726709D01*
X106709Y728637D01*
X106709Y731363D01*
X108637Y733291D01*
X111363Y733291D01*
X113291Y731363D01*
X113291Y728637D01*
X111363Y726709D01*
X108637Y726709D01*
G37*
%LPD*%
%LPC*%
G36*
X777647Y716709D02*
X777647Y716709D01*
X775719Y718637D01*
X775719Y721363D01*
X777647Y723291D01*
X780373Y723291D01*
X782301Y721363D01*
X782301Y718637D01*
X780373Y716709D01*
X777647Y716709D01*
G37*
%LPD*%
%LPC*%
G36*
X1008637Y706709D02*
X1008637Y706709D01*
X1006709Y708637D01*
X1006709Y711363D01*
X1008637Y713291D01*
X1011363Y713291D01*
X1013291Y711363D01*
X1013291Y708637D01*
X1011363Y706709D01*
X1008637Y706709D01*
G37*
%LPD*%
%LPC*%
G36*
X128637Y706709D02*
X128637Y706709D01*
X126709Y708637D01*
X126709Y711363D01*
X128637Y713291D01*
X131363Y713291D01*
X133291Y711363D01*
X133291Y708637D01*
X131363Y706709D01*
X128637Y706709D01*
G37*
%LPD*%
%LPC*%
G36*
X118637Y706709D02*
X118637Y706709D01*
X116709Y708637D01*
X116709Y711363D01*
X118637Y713291D01*
X121363Y713291D01*
X123291Y711363D01*
X123291Y708637D01*
X121363Y706709D01*
X118637Y706709D01*
G37*
%LPD*%
%LPC*%
G36*
X258637Y696709D02*
X258637Y696709D01*
X256709Y698637D01*
X256709Y701363D01*
X258637Y703291D01*
X261363Y703291D01*
X263291Y701363D01*
X263291Y698637D01*
X261363Y696709D01*
X258637Y696709D01*
G37*
%LPD*%
%LPC*%
G36*
X708137Y693709D02*
X708137Y693709D01*
X706209Y695637D01*
X706209Y698363D01*
X708137Y700291D01*
X710863Y700291D01*
X712791Y698363D01*
X712791Y695637D01*
X710863Y693709D01*
X708137Y693709D01*
G37*
%LPD*%
%LPC*%
G36*
X766137Y691109D02*
X766137Y691109D01*
X764209Y693037D01*
X764209Y695763D01*
X766137Y697691D01*
X768863Y697691D01*
X770791Y695763D01*
X770791Y693037D01*
X768863Y691109D01*
X766137Y691109D01*
G37*
%LPD*%
%LPC*%
G36*
X326137Y689209D02*
X326137Y689209D01*
X324209Y691137D01*
X324209Y693863D01*
X326137Y695791D01*
X328863Y695791D01*
X330791Y693863D01*
X330791Y691137D01*
X328863Y689209D01*
X326137Y689209D01*
G37*
%LPD*%
%LPC*%
G36*
X858637Y686709D02*
X858637Y686709D01*
X856709Y688637D01*
X856709Y691363D01*
X858637Y693291D01*
X861363Y693291D01*
X863291Y691363D01*
X863291Y688637D01*
X861363Y686709D01*
X858637Y686709D01*
G37*
%LPD*%
%LPC*%
G36*
X118637Y686709D02*
X118637Y686709D01*
X116709Y688637D01*
X116709Y691363D01*
X118637Y693291D01*
X121363Y693291D01*
X123291Y691363D01*
X123291Y688637D01*
X121363Y686709D01*
X118637Y686709D01*
G37*
%LPD*%
%LPC*%
G36*
X376137Y678209D02*
X376137Y678209D01*
X374209Y680137D01*
X374209Y682863D01*
X376137Y684791D01*
X378863Y684791D01*
X380791Y682863D01*
X380791Y680137D01*
X378863Y678209D01*
X376137Y678209D01*
G37*
%LPD*%
%LPC*%
G36*
X98637Y676709D02*
X98637Y676709D01*
X96709Y678637D01*
X96709Y681363D01*
X98637Y683291D01*
X101363Y683291D01*
X103291Y681363D01*
X103291Y678637D01*
X101363Y676709D01*
X98637Y676709D01*
G37*
%LPD*%
%LPC*%
G36*
X858637Y676709D02*
X858637Y676709D01*
X856709Y678637D01*
X856709Y681363D01*
X858637Y683291D01*
X861363Y683291D01*
X863291Y681363D01*
X863291Y678637D01*
X861363Y676709D01*
X858637Y676709D01*
G37*
%LPD*%
%LPC*%
G36*
X108637Y676709D02*
X108637Y676709D01*
X106709Y678637D01*
X106709Y681363D01*
X108637Y683291D01*
X111363Y683291D01*
X113291Y681363D01*
X113291Y678637D01*
X111363Y676709D01*
X108637Y676709D01*
G37*
%LPD*%
%LPC*%
G36*
X803637Y670709D02*
X803637Y670709D01*
X801709Y672637D01*
X801709Y675363D01*
X803637Y677291D01*
X806363Y677291D01*
X808291Y675363D01*
X808291Y672637D01*
X806363Y670709D01*
X803637Y670709D01*
G37*
%LPD*%
%LPC*%
G36*
X1054637Y666709D02*
X1054637Y666709D01*
X1052709Y668637D01*
X1052709Y671363D01*
X1054637Y673291D01*
X1057363Y673291D01*
X1059291Y671363D01*
X1059291Y668637D01*
X1057363Y666709D01*
X1054637Y666709D01*
G37*
%LPD*%
%LPC*%
G36*
X228637Y666709D02*
X228637Y666709D01*
X226709Y668637D01*
X226709Y671363D01*
X228637Y673291D01*
X231363Y673291D01*
X233291Y671363D01*
X233291Y668637D01*
X231363Y666709D01*
X228637Y666709D01*
G37*
%LPD*%
%LPC*%
G36*
X344137Y661209D02*
X344137Y661209D01*
X342209Y663137D01*
X342209Y665863D01*
X344137Y667791D01*
X346863Y667791D01*
X348791Y665863D01*
X348791Y663137D01*
X346863Y661209D01*
X344137Y661209D01*
G37*
%LPD*%
%LPC*%
G36*
X290637Y648209D02*
X290637Y648209D01*
X288709Y650137D01*
X288709Y652863D01*
X290637Y654791D01*
X293363Y654791D01*
X295291Y652863D01*
X295291Y650137D01*
X293363Y648209D01*
X290637Y648209D01*
G37*
%LPD*%
%LPC*%
G36*
X678637Y645209D02*
X678637Y645209D01*
X676709Y647137D01*
X676709Y649863D01*
X678637Y651791D01*
X681363Y651791D01*
X683291Y649863D01*
X683291Y647137D01*
X681363Y645209D01*
X678637Y645209D01*
G37*
%LPD*%
%LPC*%
G36*
X731637Y626709D02*
X731637Y626709D01*
X729709Y628637D01*
X729709Y631363D01*
X731637Y633291D01*
X734363Y633291D01*
X736291Y631363D01*
X736291Y628637D01*
X734363Y626709D01*
X731637Y626709D01*
G37*
%LPD*%
%LPC*%
G36*
X376137Y623209D02*
X376137Y623209D01*
X374209Y625137D01*
X374209Y627863D01*
X376137Y629791D01*
X378863Y629791D01*
X380791Y627863D01*
X380791Y625137D01*
X378863Y623209D01*
X376137Y623209D01*
G37*
%LPD*%
%LPC*%
G36*
X774637Y622209D02*
X774637Y622209D01*
X772709Y624137D01*
X772709Y626863D01*
X774637Y628791D01*
X777363Y628791D01*
X779291Y626863D01*
X779291Y624137D01*
X777363Y622209D01*
X774637Y622209D01*
G37*
%LPD*%
%LPC*%
G36*
X750137Y621709D02*
X750137Y621709D01*
X748209Y623637D01*
X748209Y626363D01*
X750137Y628291D01*
X752863Y628291D01*
X754791Y626363D01*
X754791Y623637D01*
X752863Y621709D01*
X750137Y621709D01*
G37*
%LPD*%
%LPC*%
G36*
X293637Y621209D02*
X293637Y621209D01*
X291709Y623137D01*
X291709Y625863D01*
X293637Y627791D01*
X296363Y627791D01*
X298291Y625863D01*
X298291Y623137D01*
X296363Y621209D01*
X293637Y621209D01*
G37*
%LPD*%
%LPC*%
G36*
X683137Y620709D02*
X683137Y620709D01*
X681209Y622637D01*
X681209Y625363D01*
X683137Y627291D01*
X685863Y627291D01*
X687791Y625363D01*
X687791Y622637D01*
X685863Y620709D01*
X683137Y620709D01*
G37*
%LPD*%
%LPC*%
G36*
X788989Y616709D02*
X788989Y616709D01*
X787061Y618637D01*
X787061Y621363D01*
X788989Y623291D01*
X791715Y623291D01*
X793643Y621363D01*
X793643Y618637D01*
X791715Y616709D01*
X788989Y616709D01*
G37*
%LPD*%
%LPC*%
G36*
X349547Y609799D02*
X349547Y609799D01*
X347619Y611727D01*
X347619Y614453D01*
X349547Y616381D01*
X352273Y616381D01*
X354201Y614453D01*
X354201Y611727D01*
X352273Y609799D01*
X349547Y609799D01*
G37*
%LPD*%
%LPC*%
G36*
X329137Y609688D02*
X329137Y609688D01*
X327209Y611616D01*
X327209Y614342D01*
X329137Y616270D01*
X331863Y616270D01*
X333791Y614342D01*
X333791Y611616D01*
X331863Y609688D01*
X329137Y609688D01*
G37*
%LPD*%
%LPC*%
G36*
X92637Y609209D02*
X92637Y609209D01*
X90709Y611137D01*
X90709Y613863D01*
X92637Y615791D01*
X95363Y615791D01*
X97291Y613863D01*
X97291Y611137D01*
X95363Y609209D01*
X92637Y609209D01*
G37*
%LPD*%
%LPC*%
G36*
X108637Y606709D02*
X108637Y606709D01*
X106709Y608637D01*
X106709Y611363D01*
X108637Y613291D01*
X111363Y613291D01*
X113291Y611363D01*
X113291Y608637D01*
X111363Y606709D01*
X108637Y606709D01*
G37*
%LPD*%
%LPC*%
G36*
X336137Y601709D02*
X336137Y601709D01*
X334209Y603637D01*
X334209Y606363D01*
X336137Y608291D01*
X338863Y608291D01*
X340791Y606363D01*
X340791Y603637D01*
X338863Y601709D01*
X336137Y601709D01*
G37*
%LPD*%
%LPC*%
G36*
X311137Y601657D02*
X311137Y601657D01*
X309209Y603585D01*
X309209Y606311D01*
X311137Y608239D01*
X313863Y608239D01*
X315791Y606311D01*
X315791Y603585D01*
X313863Y601657D01*
X311137Y601657D01*
G37*
%LPD*%
%LPC*%
G36*
X258137Y601209D02*
X258137Y601209D01*
X256209Y603137D01*
X256209Y605863D01*
X258137Y607791D01*
X260863Y607791D01*
X262791Y605863D01*
X262791Y603137D01*
X260863Y601209D01*
X258137Y601209D01*
G37*
%LPD*%
%LPC*%
G36*
X446085Y589709D02*
X446085Y589709D01*
X444157Y591637D01*
X444157Y594363D01*
X446085Y596291D01*
X448811Y596291D01*
X450739Y594363D01*
X450739Y591637D01*
X448811Y589709D01*
X446085Y589709D01*
G37*
%LPD*%
%LPC*%
G36*
X454189Y586709D02*
X454189Y586709D01*
X452261Y588637D01*
X452261Y591363D01*
X454189Y593291D01*
X456915Y593291D01*
X458843Y591363D01*
X458843Y588637D01*
X456915Y586709D01*
X454189Y586709D01*
G37*
%LPD*%
%LPC*%
G36*
X446085Y564209D02*
X446085Y564209D01*
X444157Y566137D01*
X444157Y568863D01*
X446085Y570791D01*
X448811Y570791D01*
X450739Y568863D01*
X450739Y566137D01*
X448811Y564209D01*
X446085Y564209D01*
G37*
%LPD*%
%LPC*%
G36*
X458637Y563709D02*
X458637Y563709D01*
X456709Y565637D01*
X456709Y568363D01*
X458637Y570291D01*
X461363Y570291D01*
X463291Y568363D01*
X463291Y565637D01*
X461363Y563709D01*
X458637Y563709D01*
G37*
%LPD*%
%LPC*%
G36*
X378137Y561209D02*
X378137Y561209D01*
X376209Y563137D01*
X376209Y565863D01*
X378137Y567791D01*
X380863Y567791D01*
X382791Y565863D01*
X382791Y563137D01*
X380863Y561209D01*
X378137Y561209D01*
G37*
%LPD*%
%LPC*%
G36*
X328137Y561209D02*
X328137Y561209D01*
X326209Y563137D01*
X326209Y565863D01*
X328137Y567791D01*
X330863Y567791D01*
X332791Y565863D01*
X332791Y563137D01*
X330863Y561209D01*
X328137Y561209D01*
G37*
%LPD*%
%LPC*%
G36*
X308637Y556709D02*
X308637Y556709D01*
X306709Y558637D01*
X306709Y561363D01*
X308637Y563291D01*
X311363Y563291D01*
X313291Y561363D01*
X313291Y558637D01*
X311363Y556709D01*
X308637Y556709D01*
G37*
%LPD*%
%LPC*%
G36*
X28637Y546709D02*
X28637Y546709D01*
X26709Y548637D01*
X26709Y551363D01*
X28637Y553291D01*
X31363Y553291D01*
X33291Y551363D01*
X33291Y548637D01*
X31363Y546709D01*
X28637Y546709D01*
G37*
%LPD*%
%LPC*%
G36*
X511137Y536709D02*
X511137Y536709D01*
X509209Y538637D01*
X509209Y541363D01*
X511137Y543291D01*
X513863Y543291D01*
X515791Y541363D01*
X515791Y538637D01*
X513863Y536709D01*
X511137Y536709D01*
G37*
%LPD*%
%LPC*%
G36*
X498637Y536709D02*
X498637Y536709D01*
X496709Y538637D01*
X496709Y541363D01*
X498637Y543291D01*
X501363Y543291D01*
X503291Y541363D01*
X503291Y538637D01*
X501363Y536709D01*
X498637Y536709D01*
G37*
%LPD*%
%LPC*%
G36*
X683637Y536709D02*
X683637Y536709D01*
X681709Y538637D01*
X681709Y541363D01*
X683637Y543291D01*
X686363Y543291D01*
X688291Y541363D01*
X688291Y538637D01*
X686363Y536709D01*
X683637Y536709D01*
G37*
%LPD*%
%LPC*%
G36*
X598637Y536709D02*
X598637Y536709D01*
X596709Y538637D01*
X596709Y541363D01*
X598637Y543291D01*
X601363Y543291D01*
X603291Y541363D01*
X603291Y538637D01*
X601363Y536709D01*
X598637Y536709D01*
G37*
%LPD*%
%LPC*%
G36*
X576137Y536709D02*
X576137Y536709D01*
X574209Y538637D01*
X574209Y541363D01*
X576137Y543291D01*
X578863Y543291D01*
X580791Y541363D01*
X580791Y538637D01*
X578863Y536709D01*
X576137Y536709D01*
G37*
%LPD*%
%LPC*%
G36*
X548637Y536709D02*
X548637Y536709D01*
X546709Y538637D01*
X546709Y541363D01*
X548637Y543291D01*
X551363Y543291D01*
X553291Y541363D01*
X553291Y538637D01*
X551363Y536709D01*
X548637Y536709D01*
G37*
%LPD*%
%LPC*%
G36*
X538637Y536709D02*
X538637Y536709D01*
X536709Y538637D01*
X536709Y541363D01*
X538637Y543291D01*
X541363Y543291D01*
X543291Y541363D01*
X543291Y538637D01*
X541363Y536709D01*
X538637Y536709D01*
G37*
%LPD*%
%LPC*%
G36*
X523637Y536709D02*
X523637Y536709D01*
X521709Y538637D01*
X521709Y541363D01*
X523637Y543291D01*
X526363Y543291D01*
X528291Y541363D01*
X528291Y538637D01*
X526363Y536709D01*
X523637Y536709D01*
G37*
%LPD*%
%LPC*%
G36*
X348637Y533709D02*
X348637Y533709D01*
X346709Y535637D01*
X346709Y538363D01*
X348637Y540291D01*
X351363Y540291D01*
X353291Y538363D01*
X353291Y535637D01*
X351363Y533709D01*
X348637Y533709D01*
G37*
%LPD*%
%LPC*%
G36*
X718637Y526709D02*
X718637Y526709D01*
X716709Y528637D01*
X716709Y531363D01*
X718637Y533291D01*
X721363Y533291D01*
X723291Y531363D01*
X723291Y528637D01*
X721363Y526709D01*
X718637Y526709D01*
G37*
%LPD*%
%LPC*%
G36*
X653637Y516709D02*
X653637Y516709D01*
X651709Y518637D01*
X651709Y521363D01*
X653637Y523291D01*
X656363Y523291D01*
X658291Y521363D01*
X658291Y518637D01*
X656363Y516709D01*
X653637Y516709D01*
G37*
%LPD*%
%LPC*%
G36*
X498637Y516709D02*
X498637Y516709D01*
X496709Y518637D01*
X496709Y521363D01*
X498637Y523291D01*
X501363Y523291D01*
X503291Y521363D01*
X503291Y518637D01*
X501363Y516709D01*
X498637Y516709D01*
G37*
%LPD*%
%LPC*%
G36*
X478637Y516709D02*
X478637Y516709D01*
X476709Y518637D01*
X476709Y521363D01*
X478637Y523291D01*
X481363Y523291D01*
X483291Y521363D01*
X483291Y518637D01*
X481363Y516709D01*
X478637Y516709D01*
G37*
%LPD*%
%LPC*%
G36*
X418637Y506709D02*
X418637Y506709D01*
X416709Y508637D01*
X416709Y511363D01*
X418637Y513291D01*
X421363Y513291D01*
X423291Y511363D01*
X423291Y508637D01*
X421363Y506709D01*
X418637Y506709D01*
G37*
%LPD*%
%LPC*%
G36*
X358637Y506709D02*
X358637Y506709D01*
X356709Y508637D01*
X356709Y511363D01*
X358637Y513291D01*
X361363Y513291D01*
X363291Y511363D01*
X363291Y508637D01*
X361363Y506709D01*
X358637Y506709D01*
G37*
%LPD*%
%LPC*%
G36*
X688637Y506709D02*
X688637Y506709D01*
X686709Y508637D01*
X686709Y511363D01*
X688637Y513291D01*
X691363Y513291D01*
X693291Y511363D01*
X693291Y508637D01*
X691363Y506709D01*
X688637Y506709D01*
G37*
%LPD*%
%LPC*%
G36*
X678637Y506709D02*
X678637Y506709D01*
X676709Y508637D01*
X676709Y511363D01*
X678637Y513291D01*
X681363Y513291D01*
X683291Y511363D01*
X683291Y508637D01*
X681363Y506709D01*
X678637Y506709D01*
G37*
%LPD*%
%LPC*%
G36*
X668637Y506709D02*
X668637Y506709D01*
X666709Y508637D01*
X666709Y511363D01*
X668637Y513291D01*
X671363Y513291D01*
X673291Y511363D01*
X673291Y508637D01*
X671363Y506709D01*
X668637Y506709D01*
G37*
%LPD*%
%LPC*%
G36*
X598637Y506709D02*
X598637Y506709D01*
X596709Y508637D01*
X596709Y511363D01*
X598637Y513291D01*
X601363Y513291D01*
X603291Y511363D01*
X603291Y508637D01*
X601363Y506709D01*
X598637Y506709D01*
G37*
%LPD*%
%LPC*%
G36*
X588637Y506709D02*
X588637Y506709D01*
X586709Y508637D01*
X586709Y511363D01*
X588637Y513291D01*
X591363Y513291D01*
X593291Y511363D01*
X593291Y508637D01*
X591363Y506709D01*
X588637Y506709D01*
G37*
%LPD*%
%LPC*%
G36*
X578637Y506709D02*
X578637Y506709D01*
X576709Y508637D01*
X576709Y511363D01*
X578637Y513291D01*
X581363Y513291D01*
X583291Y511363D01*
X583291Y508637D01*
X581363Y506709D01*
X578637Y506709D01*
G37*
%LPD*%
%LPC*%
G36*
X528637Y506709D02*
X528637Y506709D01*
X526709Y508637D01*
X526709Y511363D01*
X528637Y513291D01*
X531363Y513291D01*
X533291Y511363D01*
X533291Y508637D01*
X531363Y506709D01*
X528637Y506709D01*
G37*
%LPD*%
%LPC*%
G36*
X528637Y496709D02*
X528637Y496709D01*
X526709Y498637D01*
X526709Y501363D01*
X528637Y503291D01*
X531363Y503291D01*
X533291Y501363D01*
X533291Y498637D01*
X531363Y496709D01*
X528637Y496709D01*
G37*
%LPD*%
%LPC*%
G36*
X338637Y496709D02*
X338637Y496709D01*
X336709Y498637D01*
X336709Y501363D01*
X338637Y503291D01*
X341363Y503291D01*
X343291Y501363D01*
X343291Y498637D01*
X341363Y496709D01*
X338637Y496709D01*
G37*
%LPD*%
%LPC*%
G36*
X658637Y496709D02*
X658637Y496709D01*
X656709Y498637D01*
X656709Y501363D01*
X658637Y503291D01*
X661363Y503291D01*
X663291Y501363D01*
X663291Y498637D01*
X661363Y496709D01*
X658637Y496709D01*
G37*
%LPD*%
%LPC*%
G36*
X648637Y496709D02*
X648637Y496709D01*
X646709Y498637D01*
X646709Y501363D01*
X648637Y503291D01*
X651363Y503291D01*
X653291Y501363D01*
X653291Y498637D01*
X651363Y496709D01*
X648637Y496709D01*
G37*
%LPD*%
%LPC*%
G36*
X548637Y496709D02*
X548637Y496709D01*
X546709Y498637D01*
X546709Y501363D01*
X548637Y503291D01*
X551363Y503291D01*
X553291Y501363D01*
X553291Y498637D01*
X551363Y496709D01*
X548637Y496709D01*
G37*
%LPD*%
%LPC*%
G36*
X248637Y496709D02*
X248637Y496709D01*
X246709Y498637D01*
X246709Y501363D01*
X248637Y503291D01*
X251363Y503291D01*
X253291Y501363D01*
X253291Y498637D01*
X251363Y496709D01*
X248637Y496709D01*
G37*
%LPD*%
%LPC*%
G36*
X648637Y486709D02*
X648637Y486709D01*
X646709Y488637D01*
X646709Y491363D01*
X648637Y493291D01*
X651363Y493291D01*
X653291Y491363D01*
X653291Y488637D01*
X651363Y486709D01*
X648637Y486709D01*
G37*
%LPD*%
%LPC*%
G36*
X618637Y486709D02*
X618637Y486709D01*
X616709Y488637D01*
X616709Y491363D01*
X618637Y493291D01*
X621363Y493291D01*
X623291Y491363D01*
X623291Y488637D01*
X621363Y486709D01*
X618637Y486709D01*
G37*
%LPD*%
%LPC*%
G36*
X578637Y486709D02*
X578637Y486709D01*
X576709Y488637D01*
X576709Y491363D01*
X578637Y493291D01*
X581363Y493291D01*
X583291Y491363D01*
X583291Y488637D01*
X581363Y486709D01*
X578637Y486709D01*
G37*
%LPD*%
%LPC*%
G36*
X558637Y486709D02*
X558637Y486709D01*
X556709Y488637D01*
X556709Y491363D01*
X558637Y493291D01*
X561363Y493291D01*
X563291Y491363D01*
X563291Y488637D01*
X561363Y486709D01*
X558637Y486709D01*
G37*
%LPD*%
%LPC*%
G36*
X538637Y486709D02*
X538637Y486709D01*
X536709Y488637D01*
X536709Y491363D01*
X538637Y493291D01*
X541363Y493291D01*
X543291Y491363D01*
X543291Y488637D01*
X541363Y486709D01*
X538637Y486709D01*
G37*
%LPD*%
%LPC*%
G36*
X388637Y486709D02*
X388637Y486709D01*
X386709Y488637D01*
X386709Y491363D01*
X388637Y493291D01*
X391363Y493291D01*
X393291Y491363D01*
X393291Y488637D01*
X391363Y486709D01*
X388637Y486709D01*
G37*
%LPD*%
%LPC*%
G36*
X618637Y476709D02*
X618637Y476709D01*
X616709Y478637D01*
X616709Y481363D01*
X618637Y483291D01*
X621363Y483291D01*
X623291Y481363D01*
X623291Y478637D01*
X621363Y476709D01*
X618637Y476709D01*
G37*
%LPD*%
%LPC*%
G36*
X608637Y476709D02*
X608637Y476709D01*
X606709Y478637D01*
X606709Y481363D01*
X608637Y483291D01*
X611363Y483291D01*
X613291Y481363D01*
X613291Y478637D01*
X611363Y476709D01*
X608637Y476709D01*
G37*
%LPD*%
%LPC*%
G36*
X598637Y476709D02*
X598637Y476709D01*
X596709Y478637D01*
X596709Y481363D01*
X598637Y483291D01*
X601363Y483291D01*
X603291Y481363D01*
X603291Y478637D01*
X601363Y476709D01*
X598637Y476709D01*
G37*
%LPD*%
%LPC*%
G36*
X568637Y476709D02*
X568637Y476709D01*
X566709Y478637D01*
X566709Y481363D01*
X568637Y483291D01*
X571363Y483291D01*
X573291Y481363D01*
X573291Y478637D01*
X571363Y476709D01*
X568637Y476709D01*
G37*
%LPD*%
%LPC*%
G36*
X548637Y476709D02*
X548637Y476709D01*
X546709Y478637D01*
X546709Y481363D01*
X548637Y483291D01*
X551363Y483291D01*
X553291Y481363D01*
X553291Y478637D01*
X551363Y476709D01*
X548637Y476709D01*
G37*
%LPD*%
%LPC*%
G36*
X768637Y466709D02*
X768637Y466709D01*
X766709Y468637D01*
X766709Y471363D01*
X768637Y473291D01*
X771363Y473291D01*
X773291Y471363D01*
X773291Y468637D01*
X771363Y466709D01*
X768637Y466709D01*
G37*
%LPD*%
%LPC*%
G36*
X698637Y466709D02*
X698637Y466709D01*
X696709Y468637D01*
X696709Y471363D01*
X698637Y473291D01*
X701363Y473291D01*
X703291Y471363D01*
X703291Y468637D01*
X701363Y466709D01*
X698637Y466709D01*
G37*
%LPD*%
%LPC*%
G36*
X658637Y466709D02*
X658637Y466709D01*
X656709Y468637D01*
X656709Y471363D01*
X658637Y473291D01*
X661363Y473291D01*
X663291Y471363D01*
X663291Y468637D01*
X661363Y466709D01*
X658637Y466709D01*
G37*
%LPD*%
%LPC*%
G36*
X638637Y466709D02*
X638637Y466709D01*
X636709Y468637D01*
X636709Y471363D01*
X638637Y473291D01*
X641363Y473291D01*
X643291Y471363D01*
X643291Y468637D01*
X641363Y466709D01*
X638637Y466709D01*
G37*
%LPD*%
%LPC*%
G36*
X568637Y466709D02*
X568637Y466709D01*
X566709Y468637D01*
X566709Y471363D01*
X568637Y473291D01*
X571363Y473291D01*
X573291Y471363D01*
X573291Y468637D01*
X571363Y466709D01*
X568637Y466709D01*
G37*
%LPD*%
%LPC*%
G36*
X558637Y466709D02*
X558637Y466709D01*
X556709Y468637D01*
X556709Y471363D01*
X558637Y473291D01*
X561363Y473291D01*
X563291Y471363D01*
X563291Y468637D01*
X561363Y466709D01*
X558637Y466709D01*
G37*
%LPD*%
%LPC*%
G36*
X548637Y466709D02*
X548637Y466709D01*
X546709Y468637D01*
X546709Y471363D01*
X548637Y473291D01*
X551363Y473291D01*
X553291Y471363D01*
X553291Y468637D01*
X551363Y466709D01*
X548637Y466709D01*
G37*
%LPD*%
%LPC*%
G36*
X128637Y466709D02*
X128637Y466709D01*
X126709Y468637D01*
X126709Y471363D01*
X128637Y473291D01*
X131363Y473291D01*
X133291Y471363D01*
X133291Y468637D01*
X131363Y466709D01*
X128637Y466709D01*
G37*
%LPD*%
%LPC*%
G36*
X878137Y466209D02*
X878137Y466209D01*
X876209Y468137D01*
X876209Y470863D01*
X878137Y472791D01*
X880863Y472791D01*
X882791Y470863D01*
X882791Y468137D01*
X880863Y466209D01*
X878137Y466209D01*
G37*
%LPD*%
%LPC*%
G36*
X823137Y466209D02*
X823137Y466209D01*
X821209Y468137D01*
X821209Y470863D01*
X823137Y472791D01*
X825863Y472791D01*
X827791Y470863D01*
X827791Y468137D01*
X825863Y466209D01*
X823137Y466209D01*
G37*
%LPD*%
%LPC*%
G36*
X558637Y456709D02*
X558637Y456709D01*
X556709Y458637D01*
X556709Y461363D01*
X558637Y463291D01*
X561363Y463291D01*
X563291Y461363D01*
X563291Y458637D01*
X561363Y456709D01*
X558637Y456709D01*
G37*
%LPD*%
%LPC*%
G36*
X548637Y456709D02*
X548637Y456709D01*
X546709Y458637D01*
X546709Y461363D01*
X548637Y463291D01*
X551363Y463291D01*
X553291Y461363D01*
X553291Y458637D01*
X551363Y456709D01*
X548637Y456709D01*
G37*
%LPD*%
%LPC*%
G36*
X668637Y456709D02*
X668637Y456709D01*
X666709Y458637D01*
X666709Y461363D01*
X668637Y463291D01*
X671363Y463291D01*
X673291Y461363D01*
X673291Y458637D01*
X671363Y456709D01*
X668637Y456709D01*
G37*
%LPD*%
%LPC*%
G36*
X648637Y456709D02*
X648637Y456709D01*
X646709Y458637D01*
X646709Y461363D01*
X648637Y463291D01*
X651363Y463291D01*
X653291Y461363D01*
X653291Y458637D01*
X651363Y456709D01*
X648637Y456709D01*
G37*
%LPD*%
%LPC*%
G36*
X908637Y446709D02*
X908637Y446709D01*
X906709Y448637D01*
X906709Y451363D01*
X908637Y453291D01*
X911363Y453291D01*
X913291Y451363D01*
X913291Y448637D01*
X911363Y446709D01*
X908637Y446709D01*
G37*
%LPD*%
%LPC*%
G36*
X628637Y446709D02*
X628637Y446709D01*
X626709Y448637D01*
X626709Y451363D01*
X628637Y453291D01*
X631363Y453291D01*
X633291Y451363D01*
X633291Y448637D01*
X631363Y446709D01*
X628637Y446709D01*
G37*
%LPD*%
%LPC*%
G36*
X618637Y446709D02*
X618637Y446709D01*
X616709Y448637D01*
X616709Y451363D01*
X618637Y453291D01*
X621363Y453291D01*
X623291Y451363D01*
X623291Y448637D01*
X621363Y446709D01*
X618637Y446709D01*
G37*
%LPD*%
%LPC*%
G36*
X598637Y446709D02*
X598637Y446709D01*
X596709Y448637D01*
X596709Y451363D01*
X598637Y453291D01*
X601363Y453291D01*
X603291Y451363D01*
X603291Y448637D01*
X601363Y446709D01*
X598637Y446709D01*
G37*
%LPD*%
%LPC*%
G36*
X588637Y446709D02*
X588637Y446709D01*
X586709Y448637D01*
X586709Y451363D01*
X588637Y453291D01*
X591363Y453291D01*
X593291Y451363D01*
X593291Y448637D01*
X591363Y446709D01*
X588637Y446709D01*
G37*
%LPD*%
%LPC*%
G36*
X228637Y446709D02*
X228637Y446709D01*
X226709Y448637D01*
X226709Y451363D01*
X228637Y453291D01*
X231363Y453291D01*
X233291Y451363D01*
X233291Y448637D01*
X231363Y446709D01*
X228637Y446709D01*
G37*
%LPD*%
%LPC*%
G36*
X825637Y442209D02*
X825637Y442209D01*
X823709Y444137D01*
X823709Y446863D01*
X825637Y448791D01*
X828363Y448791D01*
X830291Y446863D01*
X830291Y444137D01*
X828363Y442209D01*
X825637Y442209D01*
G37*
%LPD*%
%LPC*%
G36*
X768637Y441709D02*
X768637Y441709D01*
X766709Y443637D01*
X766709Y446363D01*
X768637Y448291D01*
X771363Y448291D01*
X773291Y446363D01*
X773291Y443637D01*
X771363Y441709D01*
X768637Y441709D01*
G37*
%LPD*%
%LPC*%
G36*
X918637Y436709D02*
X918637Y436709D01*
X916709Y438637D01*
X916709Y441363D01*
X918637Y443291D01*
X921363Y443291D01*
X923291Y441363D01*
X923291Y438637D01*
X921363Y436709D01*
X918637Y436709D01*
G37*
%LPD*%
%LPC*%
G36*
X878637Y436709D02*
X878637Y436709D01*
X876709Y438637D01*
X876709Y441363D01*
X878637Y443291D01*
X881363Y443291D01*
X883291Y441363D01*
X883291Y438637D01*
X881363Y436709D01*
X878637Y436709D01*
G37*
%LPD*%
%LPC*%
G36*
X668637Y436709D02*
X668637Y436709D01*
X666709Y438637D01*
X666709Y441363D01*
X668637Y443291D01*
X671363Y443291D01*
X673291Y441363D01*
X673291Y438637D01*
X671363Y436709D01*
X668637Y436709D01*
G37*
%LPD*%
%LPC*%
G36*
X658637Y436709D02*
X658637Y436709D01*
X656709Y438637D01*
X656709Y441363D01*
X658637Y443291D01*
X661363Y443291D01*
X663291Y441363D01*
X663291Y438637D01*
X661363Y436709D01*
X658637Y436709D01*
G37*
%LPD*%
%LPC*%
G36*
X628637Y436709D02*
X628637Y436709D01*
X626709Y438637D01*
X626709Y441363D01*
X628637Y443291D01*
X631363Y443291D01*
X633291Y441363D01*
X633291Y438637D01*
X631363Y436709D01*
X628637Y436709D01*
G37*
%LPD*%
%LPC*%
G36*
X558637Y436709D02*
X558637Y436709D01*
X556709Y438637D01*
X556709Y441363D01*
X558637Y443291D01*
X561363Y443291D01*
X563291Y441363D01*
X563291Y438637D01*
X561363Y436709D01*
X558637Y436709D01*
G37*
%LPD*%
%LPC*%
G36*
X548637Y436709D02*
X548637Y436709D01*
X546709Y438637D01*
X546709Y441363D01*
X548637Y443291D01*
X551363Y443291D01*
X553291Y441363D01*
X553291Y438637D01*
X551363Y436709D01*
X548637Y436709D01*
G37*
%LPD*%
%LPC*%
G36*
X668637Y426709D02*
X668637Y426709D01*
X666709Y428637D01*
X666709Y431363D01*
X668637Y433291D01*
X671363Y433291D01*
X673291Y431363D01*
X673291Y428637D01*
X671363Y426709D01*
X668637Y426709D01*
G37*
%LPD*%
%LPC*%
G36*
X658637Y426709D02*
X658637Y426709D01*
X656709Y428637D01*
X656709Y431363D01*
X658637Y433291D01*
X661363Y433291D01*
X663291Y431363D01*
X663291Y428637D01*
X661363Y426709D01*
X658637Y426709D01*
G37*
%LPD*%
%LPC*%
G36*
X628637Y426709D02*
X628637Y426709D01*
X626709Y428637D01*
X626709Y431363D01*
X628637Y433291D01*
X631363Y433291D01*
X633291Y431363D01*
X633291Y428637D01*
X631363Y426709D01*
X628637Y426709D01*
G37*
%LPD*%
%LPC*%
G36*
X588637Y426709D02*
X588637Y426709D01*
X586709Y428637D01*
X586709Y431363D01*
X588637Y433291D01*
X591363Y433291D01*
X593291Y431363D01*
X593291Y428637D01*
X591363Y426709D01*
X588637Y426709D01*
G37*
%LPD*%
%LPC*%
G36*
X558637Y426709D02*
X558637Y426709D01*
X556709Y428637D01*
X556709Y431363D01*
X558637Y433291D01*
X561363Y433291D01*
X563291Y431363D01*
X563291Y428637D01*
X561363Y426709D01*
X558637Y426709D01*
G37*
%LPD*%
%LPC*%
G36*
X818637Y421709D02*
X818637Y421709D01*
X816709Y423637D01*
X816709Y426363D01*
X818637Y428291D01*
X821363Y428291D01*
X823291Y426363D01*
X823291Y423637D01*
X821363Y421709D01*
X818637Y421709D01*
G37*
%LPD*%
%LPC*%
G36*
X228637Y421709D02*
X228637Y421709D01*
X226709Y423637D01*
X226709Y426363D01*
X228637Y428291D01*
X231363Y428291D01*
X233291Y426363D01*
X233291Y423637D01*
X231363Y421709D01*
X228637Y421709D01*
G37*
%LPD*%
%LPC*%
G36*
X768637Y416709D02*
X768637Y416709D01*
X766709Y418637D01*
X766709Y421363D01*
X768637Y423291D01*
X771363Y423291D01*
X773291Y421363D01*
X773291Y418637D01*
X771363Y416709D01*
X768637Y416709D01*
G37*
%LPD*%
%LPC*%
G36*
X738637Y416709D02*
X738637Y416709D01*
X736709Y418637D01*
X736709Y421363D01*
X738637Y423291D01*
X741363Y423291D01*
X743291Y421363D01*
X743291Y418637D01*
X741363Y416709D01*
X738637Y416709D01*
G37*
%LPD*%
%LPC*%
G36*
X718637Y416709D02*
X718637Y416709D01*
X716709Y418637D01*
X716709Y421363D01*
X718637Y423291D01*
X721363Y423291D01*
X723291Y421363D01*
X723291Y418637D01*
X721363Y416709D01*
X718637Y416709D01*
G37*
%LPD*%
%LPC*%
G36*
X668637Y416709D02*
X668637Y416709D01*
X666709Y418637D01*
X666709Y421363D01*
X668637Y423291D01*
X671363Y423291D01*
X673291Y421363D01*
X673291Y418637D01*
X671363Y416709D01*
X668637Y416709D01*
G37*
%LPD*%
%LPC*%
G36*
X628637Y416709D02*
X628637Y416709D01*
X626709Y418637D01*
X626709Y421363D01*
X628637Y423291D01*
X631363Y423291D01*
X633291Y421363D01*
X633291Y418637D01*
X631363Y416709D01*
X628637Y416709D01*
G37*
%LPD*%
%LPC*%
G36*
X578637Y416709D02*
X578637Y416709D01*
X576709Y418637D01*
X576709Y421363D01*
X578637Y423291D01*
X581363Y423291D01*
X583291Y421363D01*
X583291Y418637D01*
X581363Y416709D01*
X578637Y416709D01*
G37*
%LPD*%
%LPC*%
G36*
X558637Y416709D02*
X558637Y416709D01*
X556709Y418637D01*
X556709Y421363D01*
X558637Y423291D01*
X561363Y423291D01*
X563291Y421363D01*
X563291Y418637D01*
X561363Y416709D01*
X558637Y416709D01*
G37*
%LPD*%
%LPC*%
G36*
X548637Y416709D02*
X548637Y416709D01*
X546709Y418637D01*
X546709Y421363D01*
X548637Y423291D01*
X551363Y423291D01*
X553291Y421363D01*
X553291Y418637D01*
X551363Y416709D01*
X548637Y416709D01*
G37*
%LPD*%
%LPC*%
G36*
X426637Y412209D02*
X426637Y412209D01*
X424709Y414137D01*
X424709Y416863D01*
X426637Y418791D01*
X429363Y418791D01*
X431291Y416863D01*
X431291Y414137D01*
X429363Y412209D01*
X426637Y412209D01*
G37*
%LPD*%
%LPC*%
G36*
X378637Y412209D02*
X378637Y412209D01*
X376709Y414137D01*
X376709Y416863D01*
X378637Y418791D01*
X381363Y418791D01*
X383291Y416863D01*
X383291Y414137D01*
X381363Y412209D01*
X378637Y412209D01*
G37*
%LPD*%
%LPC*%
G36*
X442637Y412209D02*
X442637Y412209D01*
X440709Y414137D01*
X440709Y416863D01*
X442637Y418791D01*
X445363Y418791D01*
X447291Y416863D01*
X447291Y414137D01*
X445363Y412209D01*
X442637Y412209D01*
G37*
%LPD*%
%LPC*%
G36*
X608637Y406709D02*
X608637Y406709D01*
X606709Y408637D01*
X606709Y411363D01*
X608637Y413291D01*
X611363Y413291D01*
X613291Y411363D01*
X613291Y408637D01*
X611363Y406709D01*
X608637Y406709D01*
G37*
%LPD*%
%LPC*%
G36*
X548637Y406709D02*
X548637Y406709D01*
X546709Y408637D01*
X546709Y411363D01*
X548637Y413291D01*
X551363Y413291D01*
X553291Y411363D01*
X553291Y408637D01*
X551363Y406709D01*
X548637Y406709D01*
G37*
%LPD*%
%LPC*%
G36*
X668637Y406709D02*
X668637Y406709D01*
X666709Y408637D01*
X666709Y411363D01*
X668637Y413291D01*
X671363Y413291D01*
X673291Y411363D01*
X673291Y408637D01*
X671363Y406709D01*
X668637Y406709D01*
G37*
%LPD*%
%LPC*%
G36*
X638637Y406709D02*
X638637Y406709D01*
X636709Y408637D01*
X636709Y411363D01*
X638637Y413291D01*
X641363Y413291D01*
X643291Y411363D01*
X643291Y408637D01*
X641363Y406709D01*
X638637Y406709D01*
G37*
%LPD*%
%LPC*%
G36*
X628637Y406709D02*
X628637Y406709D01*
X626709Y408637D01*
X626709Y411363D01*
X628637Y413291D01*
X631363Y413291D01*
X633291Y411363D01*
X633291Y408637D01*
X631363Y406709D01*
X628637Y406709D01*
G37*
%LPD*%
%LPC*%
G36*
X618637Y406709D02*
X618637Y406709D01*
X616709Y408637D01*
X616709Y411363D01*
X618637Y413291D01*
X621363Y413291D01*
X623291Y411363D01*
X623291Y408637D01*
X621363Y406709D01*
X618637Y406709D01*
G37*
%LPD*%
%LPC*%
G36*
X588637Y406709D02*
X588637Y406709D01*
X586709Y408637D01*
X586709Y411363D01*
X588637Y413291D01*
X591363Y413291D01*
X593291Y411363D01*
X593291Y408637D01*
X591363Y406709D01*
X588637Y406709D01*
G37*
%LPD*%
%LPC*%
G36*
X558637Y406709D02*
X558637Y406709D01*
X556709Y408637D01*
X556709Y411363D01*
X558637Y413291D01*
X561363Y413291D01*
X563291Y411363D01*
X563291Y408637D01*
X561363Y406709D01*
X558637Y406709D01*
G37*
%LPD*%
%LPC*%
G36*
X228637Y406709D02*
X228637Y406709D01*
X226709Y408637D01*
X226709Y411363D01*
X228637Y413291D01*
X231363Y413291D01*
X233291Y411363D01*
X233291Y408637D01*
X231363Y406709D01*
X228637Y406709D01*
G37*
%LPD*%
%LPC*%
G36*
X628637Y396709D02*
X628637Y396709D01*
X626709Y398637D01*
X626709Y401363D01*
X628637Y403291D01*
X631363Y403291D01*
X633291Y401363D01*
X633291Y398637D01*
X631363Y396709D01*
X628637Y396709D01*
G37*
%LPD*%
%LPC*%
G36*
X818637Y396709D02*
X818637Y396709D01*
X816709Y398637D01*
X816709Y401363D01*
X818637Y403291D01*
X821363Y403291D01*
X823291Y401363D01*
X823291Y398637D01*
X821363Y396709D01*
X818637Y396709D01*
G37*
%LPD*%
%LPC*%
G36*
X668637Y396709D02*
X668637Y396709D01*
X666709Y398637D01*
X666709Y401363D01*
X668637Y403291D01*
X671363Y403291D01*
X673291Y401363D01*
X673291Y398637D01*
X671363Y396709D01*
X668637Y396709D01*
G37*
%LPD*%
%LPC*%
G36*
X558637Y396709D02*
X558637Y396709D01*
X556709Y398637D01*
X556709Y401363D01*
X558637Y403291D01*
X561363Y403291D01*
X563291Y401363D01*
X563291Y398637D01*
X561363Y396709D01*
X558637Y396709D01*
G37*
%LPD*%
%LPC*%
G36*
X548637Y396709D02*
X548637Y396709D01*
X546709Y398637D01*
X546709Y401363D01*
X548637Y403291D01*
X551363Y403291D01*
X553291Y401363D01*
X553291Y398637D01*
X551363Y396709D01*
X548637Y396709D01*
G37*
%LPD*%
%LPC*%
G36*
X833637Y391709D02*
X833637Y391709D01*
X831709Y393637D01*
X831709Y396363D01*
X833637Y398291D01*
X836363Y398291D01*
X838291Y396363D01*
X838291Y393637D01*
X836363Y391709D01*
X833637Y391709D01*
G37*
%LPD*%
%LPC*%
G36*
X338637Y391209D02*
X338637Y391209D01*
X336709Y393137D01*
X336709Y395863D01*
X338637Y397791D01*
X341363Y397791D01*
X343291Y395863D01*
X343291Y393137D01*
X341363Y391209D01*
X338637Y391209D01*
G37*
%LPD*%
%LPC*%
G36*
X744637Y390709D02*
X744637Y390709D01*
X742709Y392637D01*
X742709Y395363D01*
X744637Y397291D01*
X747363Y397291D01*
X749291Y395363D01*
X749291Y392637D01*
X747363Y390709D01*
X744637Y390709D01*
G37*
%LPD*%
%LPC*%
G36*
X658637Y386709D02*
X658637Y386709D01*
X656709Y388637D01*
X656709Y391363D01*
X658637Y393291D01*
X661363Y393291D01*
X663291Y391363D01*
X663291Y388637D01*
X661363Y386709D01*
X658637Y386709D01*
G37*
%LPD*%
%LPC*%
G36*
X818637Y386709D02*
X818637Y386709D01*
X816709Y388637D01*
X816709Y391363D01*
X818637Y393291D01*
X821363Y393291D01*
X823291Y391363D01*
X823291Y388637D01*
X821363Y386709D01*
X818637Y386709D01*
G37*
%LPD*%
%LPC*%
G36*
X668637Y386709D02*
X668637Y386709D01*
X666709Y388637D01*
X666709Y391363D01*
X668637Y393291D01*
X671363Y393291D01*
X673291Y391363D01*
X673291Y388637D01*
X671363Y386709D01*
X668637Y386709D01*
G37*
%LPD*%
%LPC*%
G36*
X698637Y386709D02*
X698637Y386709D01*
X696709Y388637D01*
X696709Y391363D01*
X698637Y393291D01*
X701363Y393291D01*
X703291Y391363D01*
X703291Y388637D01*
X701363Y386709D01*
X698637Y386709D01*
G37*
%LPD*%
%LPC*%
G36*
X618637Y386709D02*
X618637Y386709D01*
X616709Y388637D01*
X616709Y391363D01*
X618637Y393291D01*
X621363Y393291D01*
X623291Y391363D01*
X623291Y388637D01*
X621363Y386709D01*
X618637Y386709D01*
G37*
%LPD*%
%LPC*%
G36*
X558637Y386709D02*
X558637Y386709D01*
X556709Y388637D01*
X556709Y391363D01*
X558637Y393291D01*
X561363Y393291D01*
X563291Y391363D01*
X563291Y388637D01*
X561363Y386709D01*
X558637Y386709D01*
G37*
%LPD*%
%LPC*%
G36*
X784637Y379209D02*
X784637Y379209D01*
X782709Y381137D01*
X782709Y383863D01*
X784637Y385791D01*
X787363Y385791D01*
X789291Y383863D01*
X789291Y381137D01*
X787363Y379209D01*
X784637Y379209D01*
G37*
%LPD*%
%LPC*%
G36*
X618637Y376709D02*
X618637Y376709D01*
X616709Y378637D01*
X616709Y381363D01*
X618637Y383291D01*
X621363Y383291D01*
X623291Y381363D01*
X623291Y378637D01*
X621363Y376709D01*
X618637Y376709D01*
G37*
%LPD*%
%LPC*%
G36*
X568637Y376709D02*
X568637Y376709D01*
X566709Y378637D01*
X566709Y381363D01*
X568637Y383291D01*
X571363Y383291D01*
X573291Y381363D01*
X573291Y378637D01*
X571363Y376709D01*
X568637Y376709D01*
G37*
%LPD*%
%LPC*%
G36*
X688637Y376709D02*
X688637Y376709D01*
X686709Y378637D01*
X686709Y381363D01*
X688637Y383291D01*
X691363Y383291D01*
X693291Y381363D01*
X693291Y378637D01*
X691363Y376709D01*
X688637Y376709D01*
G37*
%LPD*%
%LPC*%
G36*
X648637Y376709D02*
X648637Y376709D01*
X646709Y378637D01*
X646709Y381363D01*
X648637Y383291D01*
X651363Y383291D01*
X653291Y381363D01*
X653291Y378637D01*
X651363Y376709D01*
X648637Y376709D01*
G37*
%LPD*%
%LPC*%
G36*
X710137Y375209D02*
X710137Y375209D01*
X708209Y377137D01*
X708209Y379863D01*
X710137Y381791D01*
X712863Y381791D01*
X714791Y379863D01*
X714791Y377137D01*
X712863Y375209D01*
X710137Y375209D01*
G37*
%LPD*%
%LPC*%
G36*
X228637Y371709D02*
X228637Y371709D01*
X226709Y373637D01*
X226709Y376363D01*
X228637Y378291D01*
X231363Y378291D01*
X233291Y376363D01*
X233291Y373637D01*
X231363Y371709D01*
X228637Y371709D01*
G37*
%LPD*%
%LPC*%
G36*
X848637Y366709D02*
X848637Y366709D01*
X846709Y368637D01*
X846709Y371363D01*
X848637Y373291D01*
X851363Y373291D01*
X853291Y371363D01*
X853291Y368637D01*
X851363Y366709D01*
X848637Y366709D01*
G37*
%LPD*%
%LPC*%
G36*
X628637Y366709D02*
X628637Y366709D01*
X626709Y368637D01*
X626709Y371363D01*
X628637Y373291D01*
X631363Y373291D01*
X633291Y371363D01*
X633291Y368637D01*
X631363Y366709D01*
X628637Y366709D01*
G37*
%LPD*%
%LPC*%
G36*
X178637Y366709D02*
X178637Y366709D01*
X176709Y368637D01*
X176709Y371363D01*
X178637Y373291D01*
X181363Y373291D01*
X183291Y371363D01*
X183291Y368637D01*
X181363Y366709D01*
X178637Y366709D01*
G37*
%LPD*%
%LPC*%
G36*
X768637Y366209D02*
X768637Y366209D01*
X766709Y368137D01*
X766709Y370863D01*
X768637Y372791D01*
X771363Y372791D01*
X773291Y370863D01*
X773291Y368137D01*
X771363Y366209D01*
X768637Y366209D01*
G37*
%LPD*%
%LPC*%
G36*
X608637Y356709D02*
X608637Y356709D01*
X606709Y358637D01*
X606709Y361363D01*
X608637Y363291D01*
X611363Y363291D01*
X613291Y361363D01*
X613291Y358637D01*
X611363Y356709D01*
X608637Y356709D01*
G37*
%LPD*%
%LPC*%
G36*
X598637Y356709D02*
X598637Y356709D01*
X596709Y358637D01*
X596709Y361363D01*
X598637Y363291D01*
X601363Y363291D01*
X603291Y361363D01*
X603291Y358637D01*
X601363Y356709D01*
X598637Y356709D01*
G37*
%LPD*%
%LPC*%
G36*
X128637Y356709D02*
X128637Y356709D01*
X126709Y358637D01*
X126709Y361363D01*
X128637Y363291D01*
X131363Y363291D01*
X133291Y361363D01*
X133291Y358637D01*
X131363Y356709D01*
X128637Y356709D01*
G37*
%LPD*%
%LPC*%
G36*
X838637Y356709D02*
X838637Y356709D01*
X836709Y358637D01*
X836709Y361363D01*
X838637Y363291D01*
X841363Y363291D01*
X843291Y361363D01*
X843291Y358637D01*
X841363Y356709D01*
X838637Y356709D01*
G37*
%LPD*%
%LPC*%
G36*
X518637Y356709D02*
X518637Y356709D01*
X516709Y358637D01*
X516709Y361363D01*
X518637Y363291D01*
X521363Y363291D01*
X523291Y361363D01*
X523291Y358637D01*
X521363Y356709D01*
X518637Y356709D01*
G37*
%LPD*%
%LPC*%
G36*
X843637Y346709D02*
X843637Y346709D01*
X841709Y348637D01*
X841709Y351363D01*
X843637Y353291D01*
X846363Y353291D01*
X848291Y351363D01*
X848291Y348637D01*
X846363Y346709D01*
X843637Y346709D01*
G37*
%LPD*%
%LPC*%
G36*
X538637Y346709D02*
X538637Y346709D01*
X536709Y348637D01*
X536709Y351363D01*
X538637Y353291D01*
X541363Y353291D01*
X543291Y351363D01*
X543291Y348637D01*
X541363Y346709D01*
X538637Y346709D01*
G37*
%LPD*%
%LPC*%
G36*
X768637Y341209D02*
X768637Y341209D01*
X766709Y343137D01*
X766709Y345863D01*
X768637Y347791D01*
X771363Y347791D01*
X773291Y345863D01*
X773291Y343137D01*
X771363Y341209D01*
X768637Y341209D01*
G37*
%LPD*%
%LPC*%
G36*
X633637Y340209D02*
X633637Y340209D01*
X631709Y342137D01*
X631709Y344863D01*
X633637Y346791D01*
X636363Y346791D01*
X638291Y344863D01*
X638291Y342137D01*
X636363Y340209D01*
X633637Y340209D01*
G37*
%LPD*%
%LPC*%
G36*
X668637Y336709D02*
X668637Y336709D01*
X666709Y338637D01*
X666709Y341363D01*
X668637Y343291D01*
X671363Y343291D01*
X673291Y341363D01*
X673291Y338637D01*
X671363Y336709D01*
X668637Y336709D01*
G37*
%LPD*%
%LPC*%
G36*
X678637Y336709D02*
X678637Y336709D01*
X676709Y338637D01*
X676709Y341363D01*
X678637Y343291D01*
X681363Y343291D01*
X683291Y341363D01*
X683291Y338637D01*
X681363Y336709D01*
X678637Y336709D01*
G37*
%LPD*%
%LPC*%
G36*
X658637Y336709D02*
X658637Y336709D01*
X656709Y338637D01*
X656709Y341363D01*
X658637Y343291D01*
X661363Y343291D01*
X663291Y341363D01*
X663291Y338637D01*
X661363Y336709D01*
X658637Y336709D01*
G37*
%LPD*%
%LPC*%
G36*
X648637Y336709D02*
X648637Y336709D01*
X646709Y338637D01*
X646709Y341363D01*
X648637Y343291D01*
X651363Y343291D01*
X653291Y341363D01*
X653291Y338637D01*
X651363Y336709D01*
X648637Y336709D01*
G37*
%LPD*%
%LPC*%
G36*
X212637Y333709D02*
X212637Y333709D01*
X210709Y335637D01*
X210709Y338363D01*
X212637Y340291D01*
X215363Y340291D01*
X217291Y338363D01*
X217291Y335637D01*
X215363Y333709D01*
X212637Y333709D01*
G37*
%LPD*%
%LPC*%
G36*
X838637Y326709D02*
X838637Y326709D01*
X836709Y328637D01*
X836709Y331363D01*
X838637Y333291D01*
X841363Y333291D01*
X843291Y331363D01*
X843291Y328637D01*
X841363Y326709D01*
X838637Y326709D01*
G37*
%LPD*%
%LPC*%
G36*
X663637Y326709D02*
X663637Y326709D01*
X661709Y328637D01*
X661709Y331363D01*
X663637Y333291D01*
X666363Y333291D01*
X668291Y331363D01*
X668291Y328637D01*
X666363Y326709D01*
X663637Y326709D01*
G37*
%LPD*%
%LPC*%
G36*
X628693Y325709D02*
X628693Y325709D01*
X626765Y327637D01*
X626765Y330363D01*
X628693Y332291D01*
X631419Y332291D01*
X633347Y330363D01*
X633347Y327637D01*
X631419Y325709D01*
X628693Y325709D01*
G37*
%LPD*%
%LPC*%
G36*
X653637Y316709D02*
X653637Y316709D01*
X651709Y318637D01*
X651709Y321363D01*
X653637Y323291D01*
X656363Y323291D01*
X658291Y321363D01*
X658291Y318637D01*
X656363Y316709D01*
X653637Y316709D01*
G37*
%LPD*%
%LPC*%
G36*
X633749Y316709D02*
X633749Y316709D01*
X631821Y318637D01*
X631821Y321363D01*
X633749Y323291D01*
X636475Y323291D01*
X638403Y321363D01*
X638403Y318637D01*
X636475Y316709D01*
X633749Y316709D01*
G37*
%LPD*%
%LPC*%
G36*
X623637Y316709D02*
X623637Y316709D01*
X621709Y318637D01*
X621709Y321363D01*
X623637Y323291D01*
X626363Y323291D01*
X628291Y321363D01*
X628291Y318637D01*
X626363Y316709D01*
X623637Y316709D01*
G37*
%LPD*%
%LPC*%
G36*
X548637Y316709D02*
X548637Y316709D01*
X546709Y318637D01*
X546709Y321363D01*
X548637Y323291D01*
X551363Y323291D01*
X553291Y321363D01*
X553291Y318637D01*
X551363Y316709D01*
X548637Y316709D01*
G37*
%LPD*%
%LPC*%
G36*
X528637Y316709D02*
X528637Y316709D01*
X526709Y318637D01*
X526709Y321363D01*
X528637Y323291D01*
X531363Y323291D01*
X533291Y321363D01*
X533291Y318637D01*
X531363Y316709D01*
X528637Y316709D01*
G37*
%LPD*%
%LPC*%
G36*
X582637Y316709D02*
X582637Y316709D01*
X580709Y318637D01*
X580709Y321363D01*
X582637Y323291D01*
X585363Y323291D01*
X587291Y321363D01*
X587291Y318637D01*
X585363Y316709D01*
X582637Y316709D01*
G37*
%LPD*%
%LPC*%
G36*
X573637Y316709D02*
X573637Y316709D01*
X571709Y318637D01*
X571709Y321363D01*
X573637Y323291D01*
X576363Y323291D01*
X578291Y321363D01*
X578291Y318637D01*
X576363Y316709D01*
X573637Y316709D01*
G37*
%LPD*%
%LPC*%
G36*
X673637Y316709D02*
X673637Y316709D01*
X671709Y318637D01*
X671709Y321363D01*
X673637Y323291D01*
X676363Y323291D01*
X678291Y321363D01*
X678291Y318637D01*
X676363Y316709D01*
X673637Y316709D01*
G37*
%LPD*%
%LPC*%
G36*
X768637Y316209D02*
X768637Y316209D01*
X766709Y318137D01*
X766709Y320863D01*
X768637Y322791D01*
X771363Y322791D01*
X773291Y320863D01*
X773291Y318137D01*
X771363Y316209D01*
X768637Y316209D01*
G37*
%LPD*%
%LPC*%
G36*
X688637Y311709D02*
X688637Y311709D01*
X686709Y313637D01*
X686709Y316363D01*
X688637Y318291D01*
X691363Y318291D01*
X693291Y316363D01*
X693291Y313637D01*
X691363Y311709D01*
X688637Y311709D01*
G37*
%LPD*%
%LPC*%
G36*
X350689Y311709D02*
X350689Y311709D01*
X348761Y313637D01*
X348761Y316363D01*
X350689Y318291D01*
X353415Y318291D01*
X355343Y316363D01*
X355343Y313637D01*
X353415Y311709D01*
X350689Y311709D01*
G37*
%LPD*%
%LPC*%
G36*
X484137Y310761D02*
X484137Y310761D01*
X482209Y312689D01*
X482209Y315415D01*
X484137Y317343D01*
X486863Y317343D01*
X488791Y315415D01*
X488791Y312689D01*
X486863Y310761D01*
X484137Y310761D01*
G37*
%LPD*%
%LPC*%
G36*
X212637Y308709D02*
X212637Y308709D01*
X210709Y310637D01*
X210709Y313363D01*
X212637Y315291D01*
X215363Y315291D01*
X217291Y313363D01*
X217291Y310637D01*
X215363Y308709D01*
X212637Y308709D01*
G37*
%LPD*%
%LPC*%
G36*
X568637Y306709D02*
X568637Y306709D01*
X566709Y308637D01*
X566709Y311363D01*
X568637Y313291D01*
X571363Y313291D01*
X573291Y311363D01*
X573291Y308637D01*
X571363Y306709D01*
X568637Y306709D01*
G37*
%LPD*%
%LPC*%
G36*
X788637Y301709D02*
X788637Y301709D01*
X786709Y303637D01*
X786709Y306363D01*
X788637Y308291D01*
X791363Y308291D01*
X793291Y306363D01*
X793291Y303637D01*
X791363Y301709D01*
X788637Y301709D01*
G37*
%LPD*%
%LPC*%
G36*
X828637Y296709D02*
X828637Y296709D01*
X826709Y298637D01*
X826709Y301363D01*
X828637Y303291D01*
X831363Y303291D01*
X833291Y301363D01*
X833291Y298637D01*
X831363Y296709D01*
X828637Y296709D01*
G37*
%LPD*%
%LPC*%
G36*
X536137Y296709D02*
X536137Y296709D01*
X534209Y298637D01*
X534209Y301363D01*
X536137Y303291D01*
X538863Y303291D01*
X540791Y301363D01*
X540791Y298637D01*
X538863Y296709D01*
X536137Y296709D01*
G37*
%LPD*%
%LPC*%
G36*
X510637Y296709D02*
X510637Y296709D01*
X508709Y298637D01*
X508709Y301363D01*
X510637Y303291D01*
X513363Y303291D01*
X515291Y301363D01*
X515291Y298637D01*
X513363Y296709D01*
X510637Y296709D01*
G37*
%LPD*%
%LPC*%
G36*
X448637Y286709D02*
X448637Y286709D01*
X446709Y288637D01*
X446709Y291363D01*
X448637Y293291D01*
X451363Y293291D01*
X453291Y291363D01*
X453291Y288637D01*
X451363Y286709D01*
X448637Y286709D01*
G37*
%LPD*%
%LPC*%
G36*
X188637Y273209D02*
X188637Y273209D01*
X186709Y275137D01*
X186709Y277863D01*
X188637Y279791D01*
X191363Y279791D01*
X193291Y277863D01*
X193291Y275137D01*
X191363Y273209D01*
X188637Y273209D01*
G37*
%LPD*%
%LPC*%
G36*
X482137Y264209D02*
X482137Y264209D01*
X480209Y266137D01*
X480209Y268863D01*
X482137Y270791D01*
X484863Y270791D01*
X486791Y268863D01*
X486791Y266137D01*
X484863Y264209D01*
X482137Y264209D01*
G37*
%LPD*%
%LPC*%
G36*
X639637Y256209D02*
X639637Y256209D01*
X637709Y258137D01*
X637709Y260863D01*
X639637Y262791D01*
X642363Y262791D01*
X644291Y260863D01*
X644291Y258137D01*
X642363Y256209D01*
X639637Y256209D01*
G37*
%LPD*%
%LPC*%
G36*
X204137Y250709D02*
X204137Y250709D01*
X202209Y252637D01*
X202209Y255363D01*
X204137Y257291D01*
X206863Y257291D01*
X208791Y255363D01*
X208791Y252637D01*
X206863Y250709D01*
X204137Y250709D01*
G37*
%LPD*%
%LPC*%
G36*
X236137Y246709D02*
X236137Y246709D01*
X234209Y248637D01*
X234209Y251363D01*
X236137Y253291D01*
X238863Y253291D01*
X240791Y251363D01*
X240791Y248637D01*
X238863Y246709D01*
X236137Y246709D01*
G37*
%LPD*%
%LPC*%
G36*
X118637Y246709D02*
X118637Y246709D01*
X116709Y248637D01*
X116709Y251363D01*
X118637Y253291D01*
X121363Y253291D01*
X123291Y251363D01*
X123291Y248637D01*
X121363Y246709D01*
X118637Y246709D01*
G37*
%LPD*%
%LPC*%
G36*
X536137Y246709D02*
X536137Y246709D01*
X534209Y248637D01*
X534209Y251363D01*
X536137Y253291D01*
X538863Y253291D01*
X540791Y251363D01*
X540791Y248637D01*
X538863Y246709D01*
X536137Y246709D01*
G37*
%LPD*%
%LPC*%
G36*
X511137Y246709D02*
X511137Y246709D01*
X509209Y248637D01*
X509209Y251363D01*
X511137Y253291D01*
X513863Y253291D01*
X515791Y251363D01*
X515791Y248637D01*
X513863Y246709D01*
X511137Y246709D01*
G37*
%LPD*%
%LPC*%
G36*
X461137Y246709D02*
X461137Y246709D01*
X459209Y248637D01*
X459209Y251363D01*
X461137Y253291D01*
X463863Y253291D01*
X465791Y251363D01*
X465791Y248637D01*
X463863Y246709D01*
X461137Y246709D01*
G37*
%LPD*%
%LPC*%
G36*
X386637Y246709D02*
X386637Y246709D01*
X384709Y248637D01*
X384709Y251363D01*
X386637Y253291D01*
X389363Y253291D01*
X391291Y251363D01*
X391291Y248637D01*
X389363Y246709D01*
X386637Y246709D01*
G37*
%LPD*%
%LPC*%
G36*
X336637Y246709D02*
X336637Y246709D01*
X334709Y248637D01*
X334709Y251363D01*
X336637Y253291D01*
X339363Y253291D01*
X341291Y251363D01*
X341291Y248637D01*
X339363Y246709D01*
X336637Y246709D01*
G37*
%LPD*%
%LPC*%
G36*
X286637Y246709D02*
X286637Y246709D01*
X284709Y248637D01*
X284709Y251363D01*
X286637Y253291D01*
X289363Y253291D01*
X291291Y251363D01*
X291291Y248637D01*
X289363Y246709D01*
X286637Y246709D01*
G37*
%LPD*%
%LPC*%
G36*
X639637Y241709D02*
X639637Y241709D01*
X637709Y243637D01*
X637709Y246363D01*
X639637Y248291D01*
X642363Y248291D01*
X644291Y246363D01*
X644291Y243637D01*
X642363Y241709D01*
X639637Y241709D01*
G37*
%LPD*%
%LPC*%
G36*
X563637Y241209D02*
X563637Y241209D01*
X561709Y243137D01*
X561709Y245863D01*
X563637Y247791D01*
X566363Y247791D01*
X568291Y245863D01*
X568291Y243137D01*
X566363Y241209D01*
X563637Y241209D01*
G37*
%LPD*%
%LPC*%
G36*
X261637Y236709D02*
X261637Y236709D01*
X259709Y238637D01*
X259709Y241363D01*
X261637Y243291D01*
X264363Y243291D01*
X266291Y241363D01*
X266291Y238637D01*
X264363Y236709D01*
X261637Y236709D01*
G37*
%LPD*%
%LPC*%
G36*
X531637Y206709D02*
X531637Y206709D01*
X529709Y208637D01*
X529709Y211363D01*
X531637Y213291D01*
X534363Y213291D01*
X536291Y211363D01*
X536291Y208637D01*
X534363Y206709D01*
X531637Y206709D01*
G37*
%LPD*%
%LPC*%
G36*
X498637Y206709D02*
X498637Y206709D01*
X496709Y208637D01*
X496709Y211363D01*
X498637Y213291D01*
X501363Y213291D01*
X503291Y211363D01*
X503291Y208637D01*
X501363Y206709D01*
X498637Y206709D01*
G37*
%LPD*%
%LPC*%
G36*
X218637Y206709D02*
X218637Y206709D01*
X216709Y208637D01*
X216709Y211363D01*
X218637Y213291D01*
X221363Y213291D01*
X223291Y211363D01*
X223291Y208637D01*
X221363Y206709D01*
X218637Y206709D01*
G37*
%LPD*%
%LPC*%
G36*
X418637Y196209D02*
X418637Y196209D01*
X416709Y198137D01*
X416709Y200863D01*
X418637Y202791D01*
X421363Y202791D01*
X423291Y200863D01*
X423291Y198137D01*
X421363Y196209D01*
X418637Y196209D01*
G37*
%LPD*%
%LPC*%
G36*
X444637Y191709D02*
X444637Y191709D01*
X442709Y193637D01*
X442709Y196363D01*
X444637Y198291D01*
X447363Y198291D01*
X449291Y196363D01*
X449291Y193637D01*
X447363Y191709D01*
X444637Y191709D01*
G37*
%LPD*%
%LPC*%
G36*
X469637Y187209D02*
X469637Y187209D01*
X467709Y189137D01*
X467709Y191863D01*
X469637Y193791D01*
X472363Y193791D01*
X474291Y191863D01*
X474291Y189137D01*
X472363Y187209D01*
X469637Y187209D01*
G37*
%LPD*%
%LPC*%
G36*
X494137Y182709D02*
X494137Y182709D01*
X492209Y184637D01*
X492209Y187363D01*
X494137Y189291D01*
X496863Y189291D01*
X498791Y187363D01*
X498791Y184637D01*
X496863Y182709D01*
X494137Y182709D01*
G37*
%LPD*%
%LPC*%
G36*
X928637Y176709D02*
X928637Y176709D01*
X926709Y178637D01*
X926709Y181363D01*
X928637Y183291D01*
X931363Y183291D01*
X933291Y181363D01*
X933291Y178637D01*
X931363Y176709D01*
X928637Y176709D01*
G37*
%LPD*%
%LPC*%
G36*
X948637Y176709D02*
X948637Y176709D01*
X946709Y178637D01*
X946709Y181363D01*
X948637Y183291D01*
X951363Y183291D01*
X953291Y181363D01*
X953291Y178637D01*
X951363Y176709D01*
X948637Y176709D01*
G37*
%LPD*%
%LPC*%
G36*
X648637Y166709D02*
X648637Y166709D01*
X646709Y168637D01*
X646709Y171363D01*
X648637Y173291D01*
X651363Y173291D01*
X653291Y171363D01*
X653291Y168637D01*
X651363Y166709D01*
X648637Y166709D01*
G37*
%LPD*%
%LPC*%
G36*
X188637Y163209D02*
X188637Y163209D01*
X186709Y165137D01*
X186709Y167863D01*
X188637Y169791D01*
X191363Y169791D01*
X193291Y167863D01*
X193291Y165137D01*
X191363Y163209D01*
X188637Y163209D01*
G37*
%LPD*%
%LPC*%
G36*
X828637Y162209D02*
X828637Y162209D01*
X826709Y164137D01*
X826709Y166863D01*
X828637Y168791D01*
X831363Y168791D01*
X833291Y166863D01*
X833291Y164137D01*
X831363Y162209D01*
X828637Y162209D01*
G37*
%LPD*%
%LPC*%
G36*
X834137Y146709D02*
X834137Y146709D01*
X832209Y148637D01*
X832209Y151363D01*
X834137Y153291D01*
X836863Y153291D01*
X838791Y151363D01*
X838791Y148637D01*
X836863Y146709D01*
X834137Y146709D01*
G37*
%LPD*%
%LPC*%
G36*
X848637Y856709D02*
X848637Y856709D01*
X846709Y858637D01*
X846709Y861363D01*
X848637Y863291D01*
X851363Y863291D01*
X853291Y861363D01*
X853291Y858637D01*
X851363Y856709D01*
X848637Y856709D01*
G37*
%LPD*%
%LPC*%
G36*
X888637Y136709D02*
X888637Y136709D01*
X886709Y138637D01*
X886709Y141363D01*
X888637Y143291D01*
X891363Y143291D01*
X893291Y141363D01*
X893291Y138637D01*
X891363Y136709D01*
X888637Y136709D01*
G37*
%LPD*%
%LPC*%
G36*
X118637Y136709D02*
X118637Y136709D01*
X116709Y138637D01*
X116709Y141363D01*
X118637Y143291D01*
X121363Y143291D01*
X123291Y141363D01*
X123291Y138637D01*
X121363Y136709D01*
X118637Y136709D01*
G37*
%LPD*%
%LPC*%
G36*
X716137Y134209D02*
X716137Y134209D01*
X714209Y136137D01*
X714209Y138863D01*
X716137Y140791D01*
X718863Y140791D01*
X720791Y138863D01*
X720791Y136137D01*
X718863Y134209D01*
X716137Y134209D01*
G37*
%LPD*%
%LPC*%
G36*
X838637Y126709D02*
X838637Y126709D01*
X836709Y128637D01*
X836709Y131363D01*
X838637Y133291D01*
X841363Y133291D01*
X843291Y131363D01*
X843291Y128637D01*
X841363Y126709D01*
X838637Y126709D01*
G37*
%LPD*%
%LPC*%
G36*
X648637Y126709D02*
X648637Y126709D01*
X646709Y128637D01*
X646709Y131363D01*
X648637Y133291D01*
X651363Y133291D01*
X653291Y131363D01*
X653291Y128637D01*
X651363Y126709D01*
X648637Y126709D01*
G37*
%LPD*%
%LPC*%
G36*
X598637Y126709D02*
X598637Y126709D01*
X596709Y128637D01*
X596709Y131363D01*
X598637Y133291D01*
X601363Y133291D01*
X603291Y131363D01*
X603291Y128637D01*
X601363Y126709D01*
X598637Y126709D01*
G37*
%LPD*%
%LPC*%
G36*
X438637Y126709D02*
X438637Y126709D01*
X436709Y128637D01*
X436709Y131363D01*
X438637Y133291D01*
X441363Y133291D01*
X443291Y131363D01*
X443291Y128637D01*
X441363Y126709D01*
X438637Y126709D01*
G37*
%LPD*%
%LPC*%
G36*
X613637Y121709D02*
X613637Y121709D01*
X611709Y123637D01*
X611709Y126363D01*
X613637Y128291D01*
X616363Y128291D01*
X618291Y126363D01*
X618291Y123637D01*
X616363Y121709D01*
X613637Y121709D01*
G37*
%LPD*%
%LPC*%
G36*
X1158637Y106709D02*
X1158637Y106709D01*
X1156709Y108637D01*
X1156709Y111363D01*
X1158637Y113291D01*
X1161363Y113291D01*
X1163291Y111363D01*
X1163291Y108637D01*
X1161363Y106709D01*
X1158637Y106709D01*
G37*
%LPD*%
%LPC*%
G36*
X843637Y98209D02*
X843637Y98209D01*
X841709Y100137D01*
X841709Y102863D01*
X843637Y104791D01*
X846363Y104791D01*
X848291Y102863D01*
X848291Y100137D01*
X846363Y98209D01*
X843637Y98209D01*
G37*
%LPD*%
%LPC*%
G36*
X318637Y98209D02*
X318637Y98209D01*
X316709Y100137D01*
X316709Y102863D01*
X318637Y104791D01*
X321363Y104791D01*
X323291Y102863D01*
X323291Y100137D01*
X321363Y98209D01*
X318637Y98209D01*
G37*
%LPD*%
%LPC*%
G36*
X918637Y836709D02*
X918637Y836709D01*
X916709Y838637D01*
X916709Y841363D01*
X918637Y843291D01*
X921363Y843291D01*
X923291Y841363D01*
X923291Y838637D01*
X921363Y836709D01*
X918637Y836709D01*
G37*
%LPD*%
%LPC*%
G36*
X938637Y96709D02*
X938637Y96709D01*
X936709Y98637D01*
X936709Y101363D01*
X938637Y103291D01*
X941363Y103291D01*
X943291Y101363D01*
X943291Y98637D01*
X941363Y96709D01*
X938637Y96709D01*
G37*
%LPD*%
%LPC*%
G36*
X678637Y93709D02*
X678637Y93709D01*
X676709Y95637D01*
X676709Y98363D01*
X678637Y100291D01*
X681363Y100291D01*
X683291Y98363D01*
X683291Y95637D01*
X681363Y93709D01*
X678637Y93709D01*
G37*
%LPD*%
%LPC*%
G36*
X309137Y91969D02*
X309137Y91969D01*
X307209Y93896D01*
X307209Y96622D01*
X309137Y98550D01*
X311863Y98550D01*
X313791Y96622D01*
X313791Y93896D01*
X311863Y91969D01*
X309137Y91969D01*
G37*
%LPD*%
%LPC*%
G36*
X274137Y90709D02*
X274137Y90709D01*
X272209Y92637D01*
X272209Y95363D01*
X274137Y97291D01*
X276863Y97291D01*
X278791Y95363D01*
X278791Y92637D01*
X276863Y90709D01*
X274137Y90709D01*
G37*
%LPD*%
%LPC*%
G36*
X291137Y87917D02*
X291137Y87917D01*
X289209Y89844D01*
X289209Y92570D01*
X291137Y94498D01*
X293863Y94498D01*
X295791Y92570D01*
X295791Y89844D01*
X293863Y87917D01*
X291137Y87917D01*
G37*
%LPD*%
%LPC*%
G36*
X259137Y80761D02*
X259137Y80761D01*
X257209Y82689D01*
X257209Y85415D01*
X259137Y87343D01*
X261863Y87343D01*
X263791Y85415D01*
X263791Y82689D01*
X261863Y80761D01*
X259137Y80761D01*
G37*
%LPD*%
%LPC*%
G36*
X528637Y76709D02*
X528637Y76709D01*
X526709Y78637D01*
X526709Y81363D01*
X528637Y83291D01*
X531363Y83291D01*
X533291Y81363D01*
X533291Y78637D01*
X531363Y76709D01*
X528637Y76709D01*
G37*
%LPD*%
%LPC*%
G36*
X468637Y826709D02*
X468637Y826709D01*
X466709Y828637D01*
X466709Y831363D01*
X468637Y833291D01*
X471363Y833291D01*
X473291Y831363D01*
X473291Y828637D01*
X471363Y826709D01*
X468637Y826709D01*
G37*
%LPD*%
%LPC*%
G36*
X582137Y72209D02*
X582137Y72209D01*
X580209Y74137D01*
X580209Y76863D01*
X582137Y78791D01*
X584863Y78791D01*
X586791Y76863D01*
X586791Y74137D01*
X584863Y72209D01*
X582137Y72209D01*
G37*
%LPD*%
%LPC*%
G36*
X468637Y806709D02*
X468637Y806709D01*
X466709Y808637D01*
X466709Y811363D01*
X468637Y813291D01*
X471363Y813291D01*
X473291Y811363D01*
X473291Y808637D01*
X471363Y806709D01*
X468637Y806709D01*
G37*
%LPD*%
%LPC*%
G36*
X288637Y66709D02*
X288637Y66709D01*
X286709Y68637D01*
X286709Y71363D01*
X288637Y73291D01*
X291363Y73291D01*
X293291Y71363D01*
X293291Y68637D01*
X291363Y66709D01*
X288637Y66709D01*
G37*
%LPD*%
%LPC*%
G36*
X318637Y59209D02*
X318637Y59209D01*
X316709Y61137D01*
X316709Y63863D01*
X318637Y65791D01*
X321363Y65791D01*
X323291Y63863D01*
X323291Y61137D01*
X321363Y59209D01*
X318637Y59209D01*
G37*
%LPD*%
%LPC*%
G36*
X303637Y59209D02*
X303637Y59209D01*
X301709Y61137D01*
X301709Y63863D01*
X303637Y65791D01*
X306363Y65791D01*
X308291Y63863D01*
X308291Y61137D01*
X306363Y59209D01*
X303637Y59209D01*
G37*
%LPD*%
%LPC*%
G36*
X281137Y58709D02*
X281137Y58709D01*
X279209Y60637D01*
X279209Y63363D01*
X281137Y65291D01*
X283863Y65291D01*
X285791Y63363D01*
X285791Y60637D01*
X283863Y58709D01*
X281137Y58709D01*
G37*
%LPD*%
%LPC*%
G36*
X259137Y58709D02*
X259137Y58709D01*
X257209Y60637D01*
X257209Y63363D01*
X259137Y65291D01*
X261863Y65291D01*
X263791Y63363D01*
X263791Y60637D01*
X261863Y58709D01*
X259137Y58709D01*
G37*
%LPD*%
%LPC*%
G36*
X478637Y56709D02*
X478637Y56709D01*
X476709Y58637D01*
X476709Y61363D01*
X478637Y63291D01*
X481363Y63291D01*
X483291Y61363D01*
X483291Y58637D01*
X481363Y56709D01*
X478637Y56709D01*
G37*
%LPD*%
%LPC*%
G36*
X438637Y56709D02*
X438637Y56709D01*
X436709Y58637D01*
X436709Y61363D01*
X438637Y63291D01*
X441363Y63291D01*
X443291Y61363D01*
X443291Y58637D01*
X441363Y56709D01*
X438637Y56709D01*
G37*
%LPD*%
%LPC*%
G36*
X478637Y806709D02*
X478637Y806709D01*
X476709Y808637D01*
X476709Y811363D01*
X478637Y813291D01*
X481363Y813291D01*
X483291Y811363D01*
X483291Y808637D01*
X481363Y806709D01*
X478637Y806709D01*
G37*
%LPD*%
%LPC*%
G36*
X328637Y796709D02*
X328637Y796709D01*
X326709Y798637D01*
X326709Y801363D01*
X328637Y803291D01*
X331363Y803291D01*
X333291Y801363D01*
X333291Y798637D01*
X331363Y796709D01*
X328637Y796709D01*
G37*
%LPD*%
%LPC*%
G36*
X755137Y46709D02*
X755137Y46709D01*
X753209Y48637D01*
X753209Y51363D01*
X755137Y53291D01*
X757863Y53291D01*
X759791Y51363D01*
X759791Y48637D01*
X757863Y46709D01*
X755137Y46709D01*
G37*
%LPD*%
%LPC*%
G36*
X745137Y46709D02*
X745137Y46709D01*
X743209Y48637D01*
X743209Y51363D01*
X745137Y53291D01*
X747863Y53291D01*
X749791Y51363D01*
X749791Y48637D01*
X747863Y46709D01*
X745137Y46709D01*
G37*
%LPD*%
%LPC*%
G36*
X1063637Y46709D02*
X1063637Y46709D01*
X1061709Y48637D01*
X1061709Y51363D01*
X1063637Y53291D01*
X1066363Y53291D01*
X1068291Y51363D01*
X1068291Y48637D01*
X1066363Y46709D01*
X1063637Y46709D01*
G37*
%LPD*%
%LPC*%
G36*
X795137Y36709D02*
X795137Y36709D01*
X793209Y38637D01*
X793209Y41363D01*
X795137Y43291D01*
X797863Y43291D01*
X799791Y41363D01*
X799791Y38637D01*
X797863Y36709D01*
X795137Y36709D01*
G37*
%LPD*%
%LPC*%
G36*
X760137Y36709D02*
X760137Y36709D01*
X758209Y38637D01*
X758209Y41363D01*
X760137Y43291D01*
X762863Y43291D01*
X764791Y41363D01*
X764791Y38637D01*
X762863Y36709D01*
X760137Y36709D01*
G37*
%LPD*%
%LPC*%
G36*
X118637Y36709D02*
X118637Y36709D01*
X116709Y38637D01*
X116709Y41363D01*
X118637Y43291D01*
X121363Y43291D01*
X123291Y41363D01*
X123291Y38637D01*
X121363Y36709D01*
X118637Y36709D01*
G37*
%LPD*%
%LPC*%
G36*
X324637Y36209D02*
X324637Y36209D01*
X322709Y38137D01*
X322709Y40863D01*
X324637Y42791D01*
X327363Y42791D01*
X329291Y40863D01*
X329291Y38137D01*
X327363Y36209D01*
X324637Y36209D01*
G37*
%LPD*%
%LPC*%
G36*
X958637Y26709D02*
X958637Y26709D01*
X956709Y28637D01*
X956709Y31363D01*
X958637Y33291D01*
X961363Y33291D01*
X963291Y31363D01*
X963291Y28637D01*
X961363Y26709D01*
X958637Y26709D01*
G37*
%LPD*%
%LPC*%
G36*
X748637Y26709D02*
X748637Y26709D01*
X746709Y28637D01*
X746709Y31363D01*
X748637Y33291D01*
X751363Y33291D01*
X753291Y31363D01*
X753291Y28637D01*
X751363Y26709D01*
X748637Y26709D01*
G37*
%LPD*%
%LPC*%
G36*
X638637Y26709D02*
X638637Y26709D01*
X636709Y28637D01*
X636709Y31363D01*
X638637Y33291D01*
X641363Y33291D01*
X643291Y31363D01*
X643291Y28637D01*
X641363Y26709D01*
X638637Y26709D01*
G37*
%LPD*%
%LPC*%
G36*
X638637Y16709D02*
X638637Y16709D01*
X636709Y18637D01*
X636709Y21363D01*
X638637Y23291D01*
X641363Y23291D01*
X643291Y21363D01*
X643291Y18637D01*
X641363Y16709D01*
X638637Y16709D01*
G37*
%LPD*%
%LPC*%
G36*
X36023Y654723D02*
X36023Y654723D01*
X36023Y661605D01*
X36991Y661413D01*
X38546Y660769D01*
X39944Y659834D01*
X41134Y658644D01*
X42069Y657246D01*
X42713Y655691D01*
X42905Y654723D01*
X36023Y654723D01*
G37*
%LPD*%
%LPC*%
G36*
X78023Y568323D02*
X78023Y568323D01*
X78023Y575205D01*
X78991Y575013D01*
X80546Y574369D01*
X81944Y573434D01*
X83134Y572244D01*
X84069Y570846D01*
X84713Y569291D01*
X84905Y568323D01*
X78023Y568323D01*
G37*
%LPD*%
%LPC*%
G36*
X78023Y654723D02*
X78023Y654723D01*
X78023Y661605D01*
X78991Y661413D01*
X80546Y660769D01*
X81944Y659834D01*
X83134Y658644D01*
X84069Y657246D01*
X84713Y655691D01*
X84905Y654723D01*
X78023Y654723D01*
G37*
%LPD*%
%LPC*%
G36*
X36023Y568323D02*
X36023Y568323D01*
X36023Y575205D01*
X36991Y575013D01*
X38546Y574369D01*
X39944Y573434D01*
X41134Y572244D01*
X42069Y570846D01*
X42713Y569291D01*
X42905Y568323D01*
X36023Y568323D01*
G37*
%LPD*%
%LPC*%
G36*
X36023Y565277D02*
X36023Y565277D01*
X42905Y565277D01*
X42713Y564309D01*
X42069Y562754D01*
X41134Y561356D01*
X39944Y560166D01*
X38546Y559231D01*
X36991Y558587D01*
X36023Y558395D01*
X36023Y565277D01*
G37*
%LPD*%
%LPC*%
G36*
X78023Y565277D02*
X78023Y565277D01*
X84905Y565277D01*
X84713Y564309D01*
X84069Y562754D01*
X83134Y561356D01*
X81944Y560166D01*
X80546Y559231D01*
X78991Y558587D01*
X78023Y558395D01*
X78023Y565277D01*
G37*
%LPD*%
%LPC*%
G36*
X68095Y654723D02*
X68095Y654723D01*
X68287Y655691D01*
X68931Y657246D01*
X69866Y658644D01*
X71056Y659834D01*
X72454Y660769D01*
X74009Y661413D01*
X74977Y661605D01*
X74977Y654723D01*
X68095Y654723D01*
G37*
%LPD*%
%LPC*%
G36*
X26095Y654723D02*
X26095Y654723D01*
X26287Y655691D01*
X26931Y657246D01*
X27866Y658644D01*
X29056Y659834D01*
X30454Y660769D01*
X32009Y661413D01*
X32977Y661605D01*
X32977Y654723D01*
X26095Y654723D01*
G37*
%LPD*%
%LPC*%
G36*
X26095Y568323D02*
X26095Y568323D01*
X26287Y569291D01*
X26931Y570846D01*
X27866Y572244D01*
X29056Y573434D01*
X30454Y574369D01*
X32009Y575013D01*
X32977Y575205D01*
X32977Y568323D01*
X26095Y568323D01*
G37*
%LPD*%
%LPC*%
G36*
X36023Y651677D02*
X36023Y651677D01*
X42905Y651677D01*
X42713Y650709D01*
X42069Y649154D01*
X41134Y647756D01*
X39944Y646566D01*
X38546Y645631D01*
X36991Y644987D01*
X36023Y644795D01*
X36023Y651677D01*
G37*
%LPD*%
%LPC*%
G36*
X78023Y651677D02*
X78023Y651677D01*
X84905Y651677D01*
X84713Y650709D01*
X84069Y649154D01*
X83134Y647756D01*
X81944Y646566D01*
X80546Y645631D01*
X78991Y644987D01*
X78023Y644795D01*
X78023Y651677D01*
G37*
%LPD*%
%LPC*%
G36*
X32009Y558587D02*
X32009Y558587D01*
X30454Y559231D01*
X29056Y560166D01*
X27866Y561356D01*
X26931Y562754D01*
X26287Y564309D01*
X26095Y565277D01*
X32977Y565277D01*
X32977Y558395D01*
X32009Y558587D01*
G37*
%LPD*%
%LPC*%
G36*
X74009Y558587D02*
X74009Y558587D01*
X72454Y559231D01*
X71056Y560166D01*
X69866Y561356D01*
X68931Y562754D01*
X68287Y564309D01*
X68095Y565277D01*
X74977Y565277D01*
X74977Y558395D01*
X74009Y558587D01*
G37*
%LPD*%
%LPC*%
G36*
X32009Y644987D02*
X32009Y644987D01*
X30454Y645631D01*
X29056Y646566D01*
X27866Y647756D01*
X26931Y649154D01*
X26287Y650709D01*
X26095Y651677D01*
X32977Y651677D01*
X32977Y644795D01*
X32009Y644987D01*
G37*
%LPD*%
%LPC*%
G36*
X370740Y306959D02*
X370740Y306959D01*
X368959Y308740D01*
X368959Y311260D01*
X370740Y313041D01*
X373260Y313041D01*
X375041Y311260D01*
X375041Y308740D01*
X373260Y306959D01*
X370740Y306959D01*
G37*
%LPD*%
%LPC*%
G36*
X362740Y412459D02*
X362740Y412459D01*
X360959Y414240D01*
X360959Y416760D01*
X362740Y418541D01*
X365260Y418541D01*
X367041Y416760D01*
X367041Y414240D01*
X365260Y412459D01*
X362740Y412459D01*
G37*
%LPD*%
%LPC*%
G36*
X346740Y412459D02*
X346740Y412459D01*
X344959Y414240D01*
X344959Y416760D01*
X346740Y418541D01*
X349260Y418541D01*
X351041Y416760D01*
X351041Y414240D01*
X349260Y412459D01*
X346740Y412459D01*
G37*
%LPD*%
%LPC*%
G36*
X330740Y412459D02*
X330740Y412459D01*
X328959Y414240D01*
X328959Y416760D01*
X330740Y418541D01*
X333260Y418541D01*
X335041Y416760D01*
X335041Y414240D01*
X333260Y412459D01*
X330740Y412459D01*
G37*
%LPD*%
%LPC*%
G36*
X434740Y412459D02*
X434740Y412459D01*
X432959Y414240D01*
X432959Y416760D01*
X434740Y418541D01*
X437260Y418541D01*
X439041Y416760D01*
X439041Y414240D01*
X437260Y412459D01*
X434740Y412459D01*
G37*
%LPD*%
%LPC*%
G36*
X418740Y412459D02*
X418740Y412459D01*
X416959Y414240D01*
X416959Y416760D01*
X418740Y418541D01*
X421260Y418541D01*
X423041Y416760D01*
X423041Y414240D01*
X421260Y412459D01*
X418740Y412459D01*
G37*
%LPD*%
%LPC*%
G36*
X410740Y412459D02*
X410740Y412459D01*
X408959Y414240D01*
X408959Y416760D01*
X410740Y418541D01*
X413260Y418541D01*
X415041Y416760D01*
X415041Y414240D01*
X413260Y412459D01*
X410740Y412459D01*
G37*
%LPD*%
%LPC*%
G36*
X386740Y306959D02*
X386740Y306959D01*
X384959Y308740D01*
X384959Y311260D01*
X386740Y313041D01*
X389260Y313041D01*
X391041Y311260D01*
X391041Y308740D01*
X389260Y306959D01*
X386740Y306959D01*
G37*
%LPD*%
%LPC*%
G36*
X418740Y306959D02*
X418740Y306959D01*
X416959Y308740D01*
X416959Y311260D01*
X418740Y313041D01*
X421260Y313041D01*
X423041Y311260D01*
X423041Y308740D01*
X421260Y306959D01*
X418740Y306959D01*
G37*
%LPD*%
%LPC*%
G36*
X434740Y306959D02*
X434740Y306959D01*
X432959Y308740D01*
X432959Y311260D01*
X434740Y313041D01*
X437260Y313041D01*
X439041Y311260D01*
X439041Y308740D01*
X437260Y306959D01*
X434740Y306959D01*
G37*
%LPD*%
%LPC*%
G36*
X410740Y306959D02*
X410740Y306959D01*
X408959Y308740D01*
X408959Y311260D01*
X410740Y313041D01*
X413260Y313041D01*
X415041Y311260D01*
X415041Y308740D01*
X413260Y306959D01*
X410740Y306959D01*
G37*
%LPD*%
%LPC*%
G36*
X394740Y412459D02*
X394740Y412459D01*
X392959Y414240D01*
X392959Y416760D01*
X394740Y418541D01*
X397260Y418541D01*
X399041Y416760D01*
X399041Y414240D01*
X397260Y412459D01*
X394740Y412459D01*
G37*
%LPD*%
%LPC*%
G36*
X386740Y412459D02*
X386740Y412459D01*
X384959Y414240D01*
X384959Y416760D01*
X386740Y418541D01*
X389260Y418541D01*
X391041Y416760D01*
X391041Y414240D01*
X389260Y412459D01*
X386740Y412459D01*
G37*
%LPD*%
%LPC*%
G36*
X370740Y412459D02*
X370740Y412459D01*
X368959Y414240D01*
X368959Y416760D01*
X370740Y418541D01*
X373260Y418541D01*
X375041Y416760D01*
X375041Y414240D01*
X373260Y412459D01*
X370740Y412459D01*
G37*
%LPD*%
%LPC*%
G36*
X979499Y626999D02*
X979499Y626999D01*
X979499Y627001D01*
X979501Y627001D01*
X979501Y626999D01*
X979499Y626999D01*
G37*
%LPD*%
%LPC*%
G36*
X34499Y566799D02*
X34499Y566799D01*
X34499Y566801D01*
X34501Y566801D01*
X34501Y566799D01*
X34499Y566799D01*
G37*
%LPD*%
%LPC*%
G36*
X1011396Y803593D02*
X1011396Y803593D01*
X1011396Y803595D01*
X1011398Y803595D01*
X1011398Y803593D01*
X1011396Y803593D01*
G37*
%LPD*%
%LPC*%
G36*
X1062196Y803593D02*
X1062196Y803593D01*
X1062196Y803595D01*
X1062198Y803595D01*
X1062198Y803593D01*
X1062196Y803593D01*
G37*
%LPD*%
%LPC*%
G36*
X76499Y566799D02*
X76499Y566799D01*
X76499Y566801D01*
X76501Y566801D01*
X76501Y566799D01*
X76499Y566799D01*
G37*
%LPD*%
%LPC*%
G36*
X76499Y653199D02*
X76499Y653199D01*
X76499Y653201D01*
X76501Y653201D01*
X76501Y653199D01*
X76499Y653199D01*
G37*
%LPD*%
%LPC*%
G36*
X1037899Y660049D02*
X1037899Y660049D01*
X1037899Y660051D01*
X1037901Y660051D01*
X1037901Y660049D01*
X1037899Y660049D01*
G37*
%LPD*%
%LPC*%
G36*
X1087596Y803593D02*
X1087596Y803593D01*
X1087596Y803595D01*
X1087598Y803595D01*
X1087598Y803593D01*
X1087596Y803593D01*
G37*
%LPD*%
%LPC*%
G36*
X1037899Y505149D02*
X1037899Y505149D01*
X1037899Y505151D01*
X1037901Y505151D01*
X1037901Y505149D01*
X1037899Y505149D01*
G37*
%LPD*%
%LPC*%
G36*
X1036796Y803593D02*
X1036796Y803593D01*
X1036796Y803595D01*
X1036798Y803595D01*
X1036798Y803593D01*
X1036796Y803593D01*
G37*
%LPD*%
%LPC*%
G36*
X1117399Y541749D02*
X1117399Y541749D01*
X1117399Y541751D01*
X1117401Y541751D01*
X1117401Y541749D01*
X1117399Y541749D01*
G37*
%LPD*%
%LPC*%
G36*
X34499Y653199D02*
X34499Y653199D01*
X34499Y653201D01*
X34501Y653201D01*
X34501Y653199D01*
X34499Y653199D01*
G37*
%LPD*%
D10*
X1004900Y538100D03*
X979500Y550800D03*
X1004900Y563500D03*
X979500Y576200D03*
X1004900Y588900D03*
X979500Y601600D03*
X1004900Y614300D03*
X979500Y627000D03*
D11*
X1117400Y516350D03*
X1117400Y541750D03*
X1117400Y648850D03*
X1117400Y623450D03*
D12*
X1037900Y505150D03*
X1037900Y660050D03*
D13*
X557495Y618508D03*
X532095Y618508D03*
X506695Y618508D03*
X481295Y618508D03*
X1112997Y828994D03*
X1112997Y803594D03*
X1087597Y828994D03*
X1087597Y803594D03*
X1062197Y828994D03*
X1062197Y803594D03*
X1036797Y828994D03*
X1036797Y803594D03*
X1011397Y828994D03*
X1011397Y803594D03*
D14*
X551300Y775100D03*
X551300Y851300D03*
X525900Y775100D03*
X525900Y851300D03*
X500500Y775100D03*
X500500Y851300D03*
X576700Y775100D03*
X576700Y851300D03*
X602100Y775100D03*
X602100Y851300D03*
D15*
X1086000Y214500D03*
X1077000Y214500D03*
X1095000Y214500D03*
X1090500Y214500D03*
X1081500Y214500D03*
X1145500Y214500D03*
X1141500Y214500D03*
X1149500Y214500D03*
X1086000Y359500D03*
X1077000Y359500D03*
X1095000Y359500D03*
X1090500Y359500D03*
X1081500Y359500D03*
X1145500Y359500D03*
X1141500Y359500D03*
X1149500Y359500D03*
D16*
X76500Y653200D03*
X76500Y566800D03*
X34500Y653200D03*
X34500Y566800D03*
D17*
X40000Y735500D03*
X64500Y735500D03*
X90000Y735500D03*
X40000Y685500D03*
X65000Y685500D03*
X90000Y685500D03*
X120500Y830000D03*
X280000Y830000D03*
X440000Y829500D03*
X400000Y810000D03*
X419000Y783000D03*
X240000Y810000D03*
X258500Y783000D03*
X99000Y783500D03*
X80000Y810000D03*
X200500Y735000D03*
X225000Y735000D03*
X250000Y735000D03*
X200000Y685000D03*
X225000Y685000D03*
X360500Y735000D03*
X385000Y735000D03*
X410000Y735000D03*
X30000Y640000D03*
X60000Y640000D03*
X30000Y580000D03*
X60000Y580000D03*
X115500Y620000D03*
X115500Y600000D03*
X160000Y610000D03*
X115000Y576000D03*
X210000Y650000D03*
X210000Y624500D03*
X210000Y585000D03*
X210000Y570000D03*
X292500Y673000D03*
X302500Y692500D03*
X362500Y716500D03*
X377500Y651500D03*
X760000Y650000D03*
X780000Y650000D03*
X760000Y670000D03*
X780000Y670000D03*
X180000Y530000D03*
X180000Y420000D03*
X180000Y310000D03*
X180000Y200000D03*
X180000Y90000D03*
X180000Y460000D03*
X180000Y430000D03*
X180000Y410000D03*
X180000Y360000D03*
X180000Y340000D03*
X180000Y330000D03*
X180000Y300000D03*
D18*
X30000Y620000D02*
X30000Y640000D01*
X30000Y620000D02*
X30000Y600000D01*
X30000Y580000D01*
X50000Y630000D02*
X60000Y640000D01*
X50000Y630000D02*
X40000Y620000D01*
X30000Y620000D01*
X40000Y600000D02*
X60000Y580000D01*
X40000Y600000D02*
X30000Y600000D01*
D19*
X180000Y360000D02*
X180000Y300000D01*
X180000Y410000D02*
X180000Y460000D01*
D17*
X180000Y290000D03*
D19*
X180000Y300000D01*
D17*
X180000Y180000D03*
X180000Y70000D03*
D19*
X180000Y290000D01*
X180000Y70000D02*
X180000Y50000D01*
X200500Y29500D01*
X209500Y29500D01*
D17*
X540000Y360000D03*
X550000Y370000D03*
X560000Y380000D03*
X570000Y390000D03*
X580000Y400000D03*
X600000Y420000D03*
X600000Y440000D03*
X620000Y440000D03*
X610000Y430000D03*
X580000Y460000D03*
X580000Y470000D03*
X540000Y500000D03*
X550000Y490000D03*
X560000Y480000D03*
X640000Y460000D03*
X650000Y470000D03*
X660000Y480000D03*
X670000Y490000D03*
X680000Y500000D03*
X640000Y400000D03*
X650000Y390000D03*
X660000Y380000D03*
X670000Y370000D03*
X680000Y360000D03*
X50000Y60000D03*
X50000Y170000D03*
X50000Y280000D03*
X50000Y390000D03*
X50000Y500000D03*
D19*
X50000Y60000D01*
X80500Y29500D01*
X200500Y29500D01*
X90000Y685500D02*
X40000Y685500D01*
X40000Y735500D02*
X90000Y735500D01*
X99000Y791000D02*
X80000Y810000D01*
X99000Y791000D02*
X99000Y783500D01*
X99000Y791000D02*
X120500Y812500D01*
X120500Y830000D01*
X99000Y783500D02*
X90000Y774500D01*
X90000Y685500D01*
X40000Y685500D02*
X30000Y675500D01*
X30000Y640000D01*
X200500Y735000D02*
X250000Y735000D01*
X225000Y685000D02*
X200000Y685000D01*
X258500Y791500D02*
X240000Y810000D01*
X258500Y791500D02*
X258500Y783000D01*
X258500Y791500D02*
X280000Y813000D01*
X280000Y830000D01*
X258500Y783000D02*
X250000Y774500D01*
X250000Y735000D01*
X225000Y705000D02*
X225000Y685000D01*
X250000Y730000D02*
X250000Y735000D01*
X250000Y730000D02*
X225000Y705000D01*
X200000Y685000D02*
X145000Y630000D01*
X50000Y630000D01*
X360500Y735000D02*
X410000Y735000D01*
X419000Y791000D02*
X400000Y810000D01*
X419000Y791000D02*
X419000Y783000D01*
X419000Y791000D02*
X440000Y812000D01*
X440000Y829500D01*
X419000Y783000D02*
X410000Y774000D01*
X410000Y735000D01*
X340000Y740000D02*
X330000Y730000D01*
X340000Y740000D02*
X355500Y740000D01*
X360500Y735000D01*
X280000Y730000D02*
X250000Y730000D01*
X280000Y730000D02*
X290000Y730000D01*
X330000Y730000D01*
D17*
X740000Y190000D03*
X765000Y190000D03*
X790000Y190000D03*
X815000Y190000D03*
X740000Y140000D03*
X765000Y140000D03*
X790000Y140000D03*
X680000Y110000D03*
X740000Y100000D03*
X767448Y110000D03*
D20*
X740000Y190000D02*
X815000Y190000D01*
X790000Y140000D02*
X740000Y140000D01*
D17*
X420000Y150000D03*
X540000Y40000D03*
X590000Y40000D03*
D21*
X540000Y40000D01*
D17*
X390000Y30000D03*
X553500Y55000D03*
D21*
X553500Y53500D01*
X540000Y40000D01*
D17*
X490000Y60000D03*
D22*
X500000Y60000D01*
X520000Y40000D01*
X540000Y40000D01*
D17*
X356000Y394500D03*
X404000Y394500D03*
X340000Y310000D03*
X380000Y310000D03*
X428000Y310000D03*
X444000Y310000D03*
X236000Y310000D03*
D22*
X280000Y310000D01*
X340000Y310000D01*
X356000Y394500D02*
X404000Y394500D01*
X350000Y340000D02*
X380000Y310000D01*
X350000Y340000D02*
X310000Y340000D01*
X280000Y310000D01*
X398000Y340000D02*
X428000Y310000D01*
X398000Y340000D02*
X350000Y340000D01*
X414000Y340000D02*
X444000Y310000D01*
X414000Y340000D02*
X398000Y340000D01*
X356000Y394500D02*
X310000Y348500D01*
X310000Y340000D01*
D17*
X670000Y70000D03*
X840000Y70000D03*
X740000Y40000D03*
X630000Y100000D03*
X680000Y190000D03*
X680000Y140000D03*
X980000Y180000D03*
X1030000Y180000D03*
X950000Y190000D03*
X1000000Y190000D03*
X1000000Y280000D03*
X1010000Y310000D03*
X1090000Y250000D03*
X1090000Y280000D03*
X1090000Y296052D03*
X1090000Y312511D03*
X1050000Y327948D03*
X990000Y410000D03*
X1040000Y410000D03*
X740000Y700000D03*
X930000Y740000D03*
X950000Y690000D03*
X850000Y640000D03*
X850000Y620000D03*
X715000Y595000D03*
X740000Y595000D03*
X800000Y540000D03*
X825000Y540000D03*
X784500Y530000D03*
X770000Y480000D03*
X811000Y487500D03*
X835500Y487500D03*
X800000Y481500D03*
X860000Y481500D03*
X910000Y481500D03*
X819635Y439635D03*
X820000Y419944D03*
X820000Y383500D03*
X820000Y373552D03*
X820000Y320000D03*
X820000Y310000D03*
X820000Y260000D03*
X790000Y260000D03*
X764500Y260000D03*
X550000Y220000D03*
X500000Y670000D03*
X525500Y670000D03*
X557500Y670000D03*
X576500Y670000D03*
X599500Y670000D03*
D22*
X500000Y670000D01*
D17*
X500000Y590000D03*
X520000Y590000D03*
X550000Y590000D03*
X570000Y590000D03*
X600000Y590000D03*
D21*
X500000Y590000D01*
D17*
X483500Y564500D03*
D22*
X483500Y564995D01*
X480940Y567555D01*
X480940Y580940D01*
X490000Y590000D01*
X500000Y590000D01*
D17*
X450000Y530000D03*
X450000Y550000D03*
X450000Y700000D03*
X450000Y680000D03*
X470000Y700000D03*
X270000Y500000D03*
X380000Y500000D03*
X700000Y540000D03*
X870000Y450000D03*
X1050000Y460000D03*
X580000Y244500D03*
X600000Y244500D03*
X675000Y265500D03*
X1060000Y720000D03*
X1150000Y710000D03*
X940000Y740000D03*
D21*
X819635Y478865D02*
X819635Y439635D01*
X819635Y478865D02*
X811000Y487500D01*
X818996Y420948D02*
X820000Y419944D01*
X818996Y420948D02*
X818322Y420948D01*
X800000Y439270D01*
X800000Y481500D01*
X820000Y383500D02*
X820000Y373552D01*
D17*
X154500Y570000D03*
X317500Y580000D03*
X347000Y580000D03*
D21*
X342000Y580000D01*
X317500Y580000D01*
D17*
X367500Y580000D03*
D21*
X360000Y580000D01*
X357500Y580000D01*
X347000Y580000D01*
D17*
X297500Y580000D03*
D21*
X317500Y580000D01*
D17*
X342000Y580000D03*
X357500Y580000D03*
D21*
X292500Y673000D02*
X280000Y685500D01*
X280000Y730000D01*
X290000Y705000D02*
X302500Y692500D01*
X290000Y705000D02*
X290000Y730000D01*
X362500Y733000D02*
X362500Y716500D01*
X362500Y733000D02*
X360500Y735000D01*
X377500Y651500D02*
X362500Y636500D01*
X362500Y582500D02*
X360000Y580000D01*
X362500Y582500D02*
X362500Y636500D01*
D22*
X469000Y550000D02*
X483500Y564500D01*
X469000Y550000D02*
X450000Y550000D01*
D21*
X535000Y505000D02*
X540000Y500000D01*
X535000Y505000D02*
X500000Y505000D01*
X545000Y495000D02*
X550000Y490000D01*
X545000Y495000D02*
X500000Y495000D01*
X555000Y485000D02*
X560000Y480000D01*
X555000Y485000D02*
X500000Y485000D01*
X575000Y465000D02*
X580000Y470000D01*
X575000Y465000D02*
X500000Y465000D01*
X575000Y455000D02*
X580000Y460000D01*
X575000Y455000D02*
X500000Y455000D01*
X595000Y445000D02*
X600000Y440000D01*
X595000Y445000D02*
X500000Y445000D01*
X595000Y425000D02*
X600000Y420000D01*
X595000Y425000D02*
X500000Y425000D01*
X575000Y405000D02*
X580000Y400000D01*
X575000Y405000D02*
X500000Y405000D01*
X565000Y395000D02*
X570000Y390000D01*
X565000Y395000D02*
X500000Y395000D01*
X555000Y385000D02*
X560000Y380000D01*
X555000Y385000D02*
X500000Y385000D01*
X545000Y375000D02*
X550000Y370000D01*
X545000Y375000D02*
X500000Y375000D01*
X535000Y365000D02*
X540000Y360000D01*
X535000Y365000D02*
X500000Y365000D01*
X680000Y500000D02*
X720000Y500000D01*
X720000Y490000D02*
X670000Y490000D01*
X660000Y480000D02*
X720000Y480000D01*
X655000Y475000D02*
X650000Y470000D01*
X655000Y475000D02*
X720000Y475000D01*
X645000Y465000D02*
X640000Y460000D01*
X645000Y465000D02*
X720000Y465000D01*
X625000Y445000D02*
X620000Y440000D01*
X625000Y445000D02*
X720000Y445000D01*
X615000Y435000D02*
X610000Y430000D01*
X615000Y435000D02*
X720000Y435000D01*
X645000Y405000D02*
X640000Y400000D01*
X645000Y405000D02*
X720000Y405000D01*
X655000Y395000D02*
X650000Y390000D01*
X655000Y395000D02*
X720000Y395000D01*
X665000Y385000D02*
X660000Y380000D01*
X665000Y385000D02*
X720000Y385000D01*
X720000Y370000D02*
X670000Y370000D01*
X680000Y360000D02*
X720000Y360000D01*
D17*
X270000Y580000D03*
D21*
X297500Y580000D01*
D17*
X487500Y290000D03*
X512500Y290000D03*
D21*
X487500Y290000D01*
D17*
X250000Y150000D03*
X250000Y96000D03*
X270000Y62000D03*
X250000Y35322D03*
X360000Y40000D03*
X370000Y110000D03*
X370000Y160000D03*
X300000Y500000D03*
X740000Y290000D03*
X30000Y550000D03*
X640000Y30000D03*
X750000Y30000D03*
X890000Y140000D03*
X330000Y800000D03*
X580000Y490000D03*
X485500Y554444D03*
X512500Y540000D03*
X600000Y510000D03*
X485500Y574500D03*
X590000Y510000D03*
X485500Y569444D03*
X460000Y567000D03*
X447448Y567500D03*
X540000Y540000D03*
X580000Y510000D03*
X485500Y559500D03*
X455552Y590000D03*
X447448Y593000D03*
X259500Y604500D03*
X330500Y612979D03*
X110000Y610000D03*
X94000Y612500D03*
X620000Y450000D03*
X660000Y470000D03*
X630000Y440000D03*
X620000Y410000D03*
X660000Y390000D03*
X650000Y380000D03*
X630000Y420000D03*
X770000Y420000D03*
X824500Y469500D03*
X879500Y469500D03*
X827000Y445500D03*
X770000Y445000D03*
X770000Y369500D03*
X770000Y344500D03*
X770000Y319500D03*
X570000Y380000D03*
X550000Y320000D03*
X610000Y410000D03*
X675000Y320000D03*
X600000Y450000D03*
X600000Y540000D03*
X640000Y470000D03*
X380000Y415500D03*
X428000Y415500D03*
X444000Y415500D03*
X230000Y450000D03*
X230000Y425000D03*
X230000Y410000D03*
X340000Y394500D03*
X230000Y375000D03*
X292000Y651500D03*
X327500Y692500D03*
X377500Y681500D03*
X377500Y626500D03*
X480000Y810000D03*
X340000Y725000D03*
X292500Y681556D03*
X344000Y727500D03*
X347500Y730682D03*
X312500Y604948D03*
X353000Y723500D03*
X337500Y605000D03*
X358000Y723500D03*
X369500Y723500D03*
X374500Y723500D03*
X470000Y830000D03*
X250000Y500000D03*
X462500Y250000D03*
X512500Y250000D03*
X470000Y810000D03*
X530000Y80000D03*
X480000Y60000D03*
X650000Y170000D03*
X960000Y30000D03*
X352052Y315000D03*
X214000Y312000D03*
X402000Y314000D03*
X214000Y337000D03*
X237500Y250000D03*
X288000Y250000D03*
X338000Y250000D03*
X388000Y250000D03*
X880000Y440000D03*
X779010Y720000D03*
X767500Y694400D03*
X805000Y674000D03*
X776000Y625500D03*
X860000Y690000D03*
X1056000Y670000D03*
X360000Y510000D03*
X500000Y520000D03*
X480000Y520000D03*
X420000Y510000D03*
X220000Y210000D03*
X480000Y760000D03*
X610000Y760000D03*
X850000Y860000D03*
X290000Y70000D03*
X560000Y390000D03*
X580000Y420000D03*
X575000Y320000D03*
X560000Y470000D03*
X525000Y540000D03*
X570000Y470000D03*
X550000Y540000D03*
X590000Y430000D03*
X150000Y780000D03*
X120000Y40000D03*
X100000Y680000D03*
X120000Y140000D03*
X110000Y680000D03*
X120000Y250000D03*
X120000Y690000D03*
X130000Y360000D03*
X120000Y710000D03*
X130000Y470000D03*
X130000Y710000D03*
X110000Y730000D03*
X640000Y20000D03*
X140000Y730000D03*
X500000Y210000D03*
X450000Y290000D03*
X533000Y210000D03*
X520000Y360000D03*
X540000Y350000D03*
X150000Y740000D03*
X390000Y490000D03*
X140000Y780000D03*
X512000Y300000D03*
X570000Y310000D03*
X630000Y410000D03*
X770000Y395000D03*
X530000Y510000D03*
X500000Y540000D03*
X690000Y510000D03*
X590000Y450000D03*
X577500Y540000D03*
X770000Y470000D03*
X300000Y740000D03*
X230000Y670000D03*
X565000Y244500D03*
X537500Y300000D03*
X530000Y320000D03*
X485500Y314052D03*
X260000Y700000D03*
X910000Y450000D03*
X920000Y440000D03*
X830000Y300000D03*
X840000Y360000D03*
X720000Y530000D03*
X920000Y840000D03*
X630000Y450000D03*
X685000Y540000D03*
X590000Y410000D03*
X596000Y320000D03*
X786000Y382500D03*
X790000Y305000D03*
X655000Y520000D03*
X651365Y744365D03*
X650000Y490000D03*
X645500Y744500D03*
X650000Y500000D03*
X656980Y744480D03*
X680000Y510000D03*
X675056Y740000D03*
X670000Y510000D03*
X670000Y740000D03*
X550000Y440000D03*
X180000Y370000D03*
X560000Y440000D03*
X190000Y276500D03*
X560000Y430000D03*
X190000Y166500D03*
X263000Y240000D03*
X212500Y240000D03*
X660000Y500000D03*
X662596Y744596D03*
X437500Y274000D03*
X600000Y360000D03*
X437500Y268000D03*
X603000Y320000D03*
X437500Y262000D03*
X610000Y360000D03*
X437500Y256500D03*
X620000Y380000D03*
X610000Y320000D03*
X483500Y267500D03*
X537500Y250000D03*
X625000Y320000D03*
X437500Y280000D03*
X584000Y320000D03*
X630000Y430000D03*
X690000Y315000D03*
X471000Y190500D03*
X630000Y370000D03*
X495500Y186000D03*
X620000Y390000D03*
X641000Y259500D03*
X641000Y245000D03*
X446000Y195000D03*
X630000Y400000D03*
X635112Y320000D03*
X635000Y343500D03*
X420000Y199500D03*
X630056Y329000D03*
X558500Y75500D03*
X650000Y340000D03*
X563556Y75500D03*
X655000Y320000D03*
X568612Y75500D03*
X665000Y330000D03*
X600000Y130000D03*
X660000Y340000D03*
X583500Y75500D03*
X670000Y340000D03*
X680000Y340000D03*
X615000Y125000D03*
D23*
X412000Y310000D03*
D17*
X550000Y410000D03*
D23*
X388000Y310000D03*
D17*
X550000Y420000D03*
D23*
X372000Y310000D03*
D17*
X560000Y420000D03*
D23*
X436000Y310000D03*
D17*
X550000Y400000D03*
D23*
X420000Y310000D03*
D17*
X560000Y400000D03*
D23*
X396000Y310000D03*
D17*
X560000Y410000D03*
D23*
X388000Y415500D03*
D17*
X550000Y480000D03*
D23*
X348000Y415500D03*
D17*
X550000Y500000D03*
D23*
X372000Y415500D03*
D17*
X560000Y490000D03*
D23*
X364000Y415500D03*
D17*
X540000Y490000D03*
D23*
X412000Y415500D03*
D17*
X550000Y470000D03*
D23*
X436000Y415500D03*
D17*
X560000Y460000D03*
D23*
X396000Y415500D03*
D17*
X570000Y480000D03*
D23*
X420000Y415500D03*
D17*
X550000Y460000D03*
D23*
X332000Y415500D03*
D17*
X530000Y500000D03*
X789500Y747500D03*
X620000Y480000D03*
X670000Y460000D03*
X680000Y648500D03*
X845000Y350000D03*
X830000Y770000D03*
X600000Y480000D03*
X830000Y764944D03*
X610000Y480000D03*
X620000Y490000D03*
X802500Y740000D03*
X781612Y50000D03*
X740000Y420000D03*
X771500Y50000D03*
X764500Y399052D03*
X729000Y50000D03*
X728885Y389885D03*
X640000Y410000D03*
X680000Y97000D03*
X746500Y50000D03*
X746000Y394000D03*
X756500Y50000D03*
X670000Y420000D03*
X723000Y50000D03*
X723000Y390000D03*
X734865Y50135D03*
X670000Y410000D03*
X711500Y50000D03*
X700000Y390000D03*
X700000Y50000D03*
X690000Y380000D03*
X705865Y50135D03*
X670000Y390000D03*
X717365Y50135D03*
X711500Y378500D03*
X670000Y400000D03*
X717500Y137500D03*
X776556Y50000D03*
X720000Y420000D03*
X670000Y430000D03*
X820000Y400000D03*
X670000Y440000D03*
X820000Y425000D03*
X660000Y440000D03*
X835000Y395000D03*
X660000Y430000D03*
X820000Y390000D03*
X700000Y470000D03*
X684500Y624000D03*
X840000Y330000D03*
X840000Y130000D03*
X845000Y101500D03*
X940000Y100000D03*
X950000Y180000D03*
X930000Y180000D03*
X650000Y460000D03*
X850000Y370000D03*
X835500Y150000D03*
X1065000Y50000D03*
X329500Y564500D03*
X379500Y564500D03*
X350910Y613090D03*
X299500Y682000D03*
X345500Y664500D03*
X295000Y624500D03*
X310500Y95259D03*
X305000Y62500D03*
X292500Y91207D03*
X282500Y62000D03*
X260500Y84052D03*
X260500Y62000D03*
X205500Y254000D03*
X205500Y240000D03*
X440000Y60000D03*
X440000Y130000D03*
X1010000Y710000D03*
X751500Y625000D03*
X790352Y620000D03*
X733000Y630000D03*
X860000Y680000D03*
X709500Y697000D03*
X724500Y734500D03*
X790352Y592500D03*
X777248Y592500D03*
X777248Y600000D03*
X790352Y600000D03*
X796500Y40000D03*
X830000Y165500D03*
X1146000Y820000D03*
X761500Y40000D03*
X810000Y170000D03*
X810000Y177000D03*
X650000Y130000D03*
X1140000Y820000D03*
D24*
X940000Y300000D03*
X940000Y270982D03*
X940291Y249709D03*
X940041Y330041D03*
X930000Y390000D03*
X1100000Y140000D03*
X1132500Y75000D03*
X1080000Y200000D03*
X1030000Y100000D03*
X1050000Y260000D03*
X1050000Y190000D03*
X1070000Y150000D03*
D17*
X1160000Y110000D03*
D24*
X1106500Y218000D03*
D17*
X320000Y101500D03*
X320000Y62500D03*
X275500Y94000D03*
X326000Y39500D03*
D24*
X990000Y320000D03*
X1104041Y308459D03*
X990000Y300000D03*
X1105000Y289500D03*
X990000Y270000D03*
X1105500Y277000D03*
D17*
X340000Y500000D03*
X310000Y560000D03*
X350000Y537000D03*
M02*
