G04 EAGLE Gerber RS-274X export*
G75*
%MOMM*%
%FSLAX34Y34*%
%LPD*%
%INBottom Copper*%
%IPPOS*%
%AMOC8*
5,1,8,0,0,1.08239X$1,22.5*%
G01*
%ADD10R,1.335000X1.335000*%
%ADD11C,1.335000*%
%ADD12C,1.530000*%
%ADD13C,2.445000*%
%ADD14C,1.879600*%
%ADD15C,1.000000*%
%ADD16C,1.500000*%
%ADD17C,1.200000*%
%ADD18C,0.353200*%
%ADD19C,0.152400*%
%ADD20C,0.303200*%
%ADD21C,0.304800*%
%ADD22C,0.403200*%
%ADD23C,0.508000*%
%ADD24C,0.203200*%


D10*
X1004900Y538100D03*
D11*
X979500Y550800D03*
X1004900Y563500D03*
X979500Y576200D03*
X1004900Y588900D03*
X979500Y601600D03*
X1004900Y614300D03*
X979500Y627000D03*
D12*
X1117400Y516350D03*
X1117400Y541750D03*
X1117400Y648850D03*
X1117400Y623450D03*
D13*
X1037900Y505150D03*
X1037900Y660050D03*
D14*
X557495Y618508D03*
X532095Y618508D03*
X506695Y618508D03*
X481295Y618508D03*
X1112997Y828994D03*
X1112997Y803594D03*
X1087597Y828994D03*
X1087597Y803594D03*
X1062197Y828994D03*
X1062197Y803594D03*
X1036797Y828994D03*
X1036797Y803594D03*
X1011397Y828994D03*
X1011397Y803594D03*
D15*
X551300Y775100D03*
X551300Y851300D03*
X525900Y775100D03*
X525900Y851300D03*
X500500Y775100D03*
X500500Y851300D03*
X576700Y775100D03*
X576700Y851300D03*
X602100Y775100D03*
X602100Y851300D03*
D16*
X1086000Y214500D03*
X1077000Y214500D03*
X1095000Y214500D03*
X1090500Y214500D03*
X1081500Y214500D03*
X1145500Y214500D03*
X1141500Y214500D03*
X1149500Y214500D03*
X1086000Y359500D03*
X1077000Y359500D03*
X1095000Y359500D03*
X1090500Y359500D03*
X1081500Y359500D03*
X1145500Y359500D03*
X1141500Y359500D03*
X1149500Y359500D03*
D17*
X82500Y653200D02*
X70500Y653200D01*
X70500Y566800D02*
X82500Y566800D01*
X40500Y653200D02*
X28500Y653200D01*
X28500Y566800D02*
X40500Y566800D01*
D18*
X40000Y735500D03*
X64500Y735500D03*
X90000Y735500D03*
X40000Y685500D03*
X65000Y685500D03*
X90000Y685500D03*
X120500Y830000D03*
X280000Y830000D03*
X440000Y829500D03*
X400000Y810000D03*
X419000Y783000D03*
X240000Y810000D03*
X258500Y783000D03*
X99000Y783500D03*
X80000Y810000D03*
X200500Y735000D03*
X225000Y735000D03*
X250000Y735000D03*
X200000Y685000D03*
X225000Y685000D03*
X360500Y735000D03*
X385000Y735000D03*
X410000Y735000D03*
X30000Y640000D03*
X60000Y640000D03*
X30000Y580000D03*
X60000Y580000D03*
X115500Y620000D03*
X115500Y600000D03*
X160000Y610000D03*
X115000Y576000D03*
X210000Y650000D03*
X210000Y624500D03*
X210000Y585000D03*
X210000Y570000D03*
X292500Y673000D03*
X302500Y692500D03*
X362500Y716500D03*
X377500Y651500D03*
X760000Y650000D03*
X780000Y650000D03*
X760000Y670000D03*
X780000Y670000D03*
X180000Y530000D03*
X180000Y420000D03*
X180000Y310000D03*
X180000Y200000D03*
X180000Y90000D03*
X180000Y460000D03*
X180000Y430000D03*
X180000Y410000D03*
X180000Y360000D03*
X180000Y340000D03*
X180000Y330000D03*
X180000Y300000D03*
X180000Y290000D03*
X180000Y180000D03*
X180000Y70000D03*
X540000Y360000D03*
X550000Y370000D03*
X560000Y380000D03*
X570000Y390000D03*
X580000Y400000D03*
X600000Y420000D03*
X600000Y440000D03*
X620000Y440000D03*
X610000Y430000D03*
X580000Y460000D03*
X580000Y470000D03*
X540000Y500000D03*
X550000Y490000D03*
X560000Y480000D03*
X640000Y460000D03*
X650000Y470000D03*
X660000Y480000D03*
X670000Y490000D03*
X680000Y500000D03*
X640000Y400000D03*
X650000Y390000D03*
X660000Y380000D03*
X670000Y370000D03*
X680000Y360000D03*
X50000Y60000D03*
X50000Y170000D03*
X50000Y280000D03*
X50000Y390000D03*
X50000Y500000D03*
X740000Y190000D03*
X765000Y190000D03*
X790000Y190000D03*
X815000Y190000D03*
X740000Y140000D03*
X765000Y140000D03*
X790000Y140000D03*
X680000Y110000D03*
X740000Y100000D03*
X767448Y110000D03*
X420000Y150000D03*
X540000Y40000D03*
X590000Y40000D03*
X390000Y30000D03*
X553500Y55000D03*
X490000Y60000D03*
X356000Y394500D03*
X404000Y394500D03*
X340000Y310000D03*
X380000Y310000D03*
X428000Y310000D03*
X444000Y310000D03*
X236000Y310000D03*
X670000Y70000D03*
X840000Y70000D03*
X740000Y40000D03*
X630000Y100000D03*
X680000Y190000D03*
X680000Y140000D03*
X980000Y180000D03*
X1030000Y180000D03*
X950000Y190000D03*
X1000000Y190000D03*
X1000000Y280000D03*
X1010000Y310000D03*
X1090000Y250000D03*
X1090000Y280000D03*
X1090000Y296052D03*
X1090000Y312511D03*
X1050000Y327948D03*
X990000Y410000D03*
X1040000Y410000D03*
X740000Y700000D03*
X930000Y740000D03*
X950000Y690000D03*
X850000Y640000D03*
X850000Y620000D03*
X715000Y595000D03*
X740000Y595000D03*
X800000Y540000D03*
X825000Y540000D03*
X784500Y530000D03*
X770000Y480000D03*
X811000Y487500D03*
X835500Y487500D03*
X800000Y481500D03*
X860000Y481500D03*
X910000Y481500D03*
X819635Y439635D03*
X820000Y419944D03*
X820000Y383500D03*
X820000Y373552D03*
X820000Y320000D03*
X820000Y310000D03*
X820000Y260000D03*
X790000Y260000D03*
X764500Y260000D03*
X550000Y220000D03*
X500000Y670000D03*
X525500Y670000D03*
X557500Y670000D03*
X576500Y670000D03*
X599500Y670000D03*
X500000Y590000D03*
X520000Y590000D03*
X550000Y590000D03*
X570000Y590000D03*
X600000Y590000D03*
X483500Y564500D03*
X450000Y530000D03*
X450000Y550000D03*
X450000Y700000D03*
X450000Y680000D03*
X470000Y700000D03*
X270000Y500000D03*
X380000Y500000D03*
X700000Y540000D03*
X870000Y450000D03*
X1050000Y460000D03*
X580000Y244500D03*
X600000Y244500D03*
X675000Y265500D03*
X1060000Y720000D03*
X1150000Y710000D03*
X940000Y740000D03*
X154500Y570000D03*
X317500Y580000D03*
X347000Y580000D03*
X367500Y580000D03*
X297500Y580000D03*
X342000Y580000D03*
X357500Y580000D03*
X270000Y580000D03*
X487500Y290000D03*
X512500Y290000D03*
X250000Y150000D03*
X250000Y96000D03*
X270000Y62000D03*
X250000Y35322D03*
X360000Y40000D03*
X370000Y110000D03*
X370000Y160000D03*
X300000Y500000D03*
X740000Y290000D03*
X30000Y550000D03*
X640000Y30000D03*
X750000Y30000D03*
X890000Y140000D03*
X330000Y800000D03*
X580000Y490000D03*
D19*
X569000Y490000D01*
X505556Y554444D02*
X485500Y554444D01*
D18*
X485500Y554444D03*
D19*
X512500Y546500D02*
X569000Y490000D01*
X512500Y547500D02*
X505556Y554444D01*
X512500Y547500D02*
X512500Y546500D01*
X512500Y540000D01*
D18*
X512500Y540000D03*
X600000Y510000D03*
D19*
X535500Y574500D02*
X485500Y574500D01*
D18*
X485500Y574500D03*
D19*
X535500Y574500D02*
X600000Y510000D01*
D18*
X590000Y510000D03*
D19*
X530556Y569444D02*
X485500Y569444D01*
D18*
X485500Y569444D03*
D19*
X540000Y560000D02*
X590000Y510000D01*
X540000Y560000D02*
X530556Y569444D01*
D18*
X460000Y567000D03*
D19*
X447948Y567000D01*
X447448Y567500D01*
D18*
X447448Y567500D03*
D19*
X540000Y560000D02*
X540000Y540000D01*
D18*
X540000Y540000D03*
X580000Y510000D03*
D19*
X560000Y530000D01*
X542000Y530000D01*
D18*
X485500Y559500D03*
D19*
X512500Y559500D02*
X542000Y530000D01*
X512500Y559500D02*
X485500Y559500D01*
D18*
X455552Y590000D03*
D19*
X452776Y592776D01*
X452552Y593000D01*
X447448Y593000D01*
D18*
X447448Y593000D03*
D19*
X452776Y592776D02*
X452776Y612776D01*
X458500Y618500D01*
X481288Y618500D02*
X481295Y618508D01*
X481288Y618500D02*
X458500Y618500D01*
D18*
X259500Y604500D03*
X330500Y612979D03*
D19*
X267979Y612979D02*
X259500Y604500D01*
X267979Y612979D02*
X330500Y612979D01*
D18*
X110000Y610000D03*
D19*
X107500Y612500D01*
X94000Y612500D01*
D18*
X94000Y612500D03*
X620000Y450000D03*
X660000Y470000D03*
X630000Y440000D03*
X620000Y410000D03*
X660000Y390000D03*
X650000Y380000D03*
X630000Y420000D03*
X770000Y420000D03*
X824500Y469500D03*
X879500Y469500D03*
X827000Y445500D03*
X770000Y445000D03*
X770000Y369500D03*
X770000Y344500D03*
X770000Y319500D03*
X570000Y380000D03*
X550000Y320000D03*
X610000Y410000D03*
X675000Y320000D03*
X600000Y450000D03*
X600000Y540000D03*
X640000Y470000D03*
X380000Y415500D03*
X428000Y415500D03*
X444000Y415500D03*
X230000Y450000D03*
X230000Y425000D03*
X230000Y410000D03*
X340000Y394500D03*
X230000Y375000D03*
X292000Y651500D03*
X327500Y692500D03*
X377500Y681500D03*
X377500Y626500D03*
X480000Y810000D03*
X340000Y725000D03*
X292500Y681556D03*
X344000Y727500D03*
X347500Y730682D03*
X312500Y604948D03*
X353000Y723500D03*
X337500Y605000D03*
X358000Y723500D03*
X369500Y723500D03*
X374500Y723500D03*
X470000Y830000D03*
X250000Y500000D03*
X462500Y250000D03*
X512500Y250000D03*
X470000Y810000D03*
X530000Y80000D03*
X480000Y60000D03*
X650000Y170000D03*
X960000Y30000D03*
X352052Y315000D03*
X214000Y312000D03*
X402000Y314000D03*
X214000Y337000D03*
X237500Y250000D03*
X288000Y250000D03*
X338000Y250000D03*
X388000Y250000D03*
X880000Y440000D03*
X779010Y720000D03*
X767500Y694400D03*
X805000Y674000D03*
X776000Y625500D03*
X860000Y690000D03*
X1056000Y670000D03*
X360000Y510000D03*
X500000Y520000D03*
X480000Y520000D03*
X420000Y510000D03*
X220000Y210000D03*
X480000Y760000D03*
X610000Y760000D03*
X850000Y860000D03*
X290000Y70000D03*
X560000Y390000D03*
X580000Y420000D03*
X575000Y320000D03*
X560000Y470000D03*
X525000Y540000D03*
X570000Y470000D03*
X550000Y540000D03*
X590000Y430000D03*
X150000Y780000D03*
X120000Y40000D03*
X100000Y680000D03*
X120000Y140000D03*
X110000Y680000D03*
X120000Y250000D03*
X120000Y690000D03*
X130000Y360000D03*
X120000Y710000D03*
X130000Y470000D03*
X130000Y710000D03*
X110000Y730000D03*
X640000Y20000D03*
X140000Y730000D03*
X500000Y210000D03*
X450000Y290000D03*
X533000Y210000D03*
X520000Y360000D03*
X540000Y350000D03*
X150000Y740000D03*
X390000Y490000D03*
X140000Y780000D03*
X512000Y300000D03*
X570000Y310000D03*
X630000Y410000D03*
X770000Y395000D03*
X530000Y510000D03*
X500000Y540000D03*
X690000Y510000D03*
X590000Y450000D03*
X577500Y540000D03*
X770000Y470000D03*
X300000Y740000D03*
X230000Y670000D03*
X565000Y244500D03*
X537500Y300000D03*
X530000Y320000D03*
X485500Y314052D03*
X260000Y700000D03*
X910000Y450000D03*
X920000Y440000D03*
X830000Y300000D03*
X840000Y360000D03*
X720000Y530000D03*
X920000Y840000D03*
X630000Y450000D03*
D19*
X645000Y485000D02*
X675000Y485000D01*
X685000Y495000D01*
X685000Y540000D01*
D18*
X685000Y540000D03*
D19*
X630000Y470000D02*
X630000Y450000D01*
X630000Y470000D02*
X645000Y485000D01*
D18*
X590000Y410000D03*
X596000Y320000D03*
X786000Y382500D03*
D19*
X786500Y382500D01*
X790000Y379000D02*
X790000Y305000D01*
D18*
X790000Y305000D03*
D19*
X790000Y379000D02*
X786500Y382500D01*
D18*
X655000Y520000D03*
D19*
X655000Y740730D02*
X651365Y744365D01*
D18*
X651365Y744365D03*
D19*
X655000Y740730D02*
X655000Y520000D01*
D18*
X650000Y490000D03*
D19*
X645000Y495000D01*
X645000Y505000D01*
X650000Y510000D01*
X650000Y740000D01*
X645500Y744500D01*
D18*
X645500Y744500D03*
X650000Y500000D03*
D19*
X660000Y510000D01*
X660000Y741461D02*
X656980Y744480D01*
D18*
X656980Y744480D03*
D19*
X660000Y741461D02*
X660000Y510000D01*
D18*
X680000Y510000D03*
D19*
X675000Y515000D02*
X675000Y740000D01*
X675000Y515000D02*
X680000Y510000D01*
X675056Y740000D02*
X675000Y740000D01*
D18*
X675056Y740000D03*
X670000Y510000D03*
D19*
X670000Y740000D01*
D18*
X670000Y740000D03*
X550000Y440000D03*
D19*
X478500Y440000D02*
X387000Y348500D01*
X478500Y440000D02*
X550000Y440000D01*
D18*
X180000Y370000D03*
D19*
X201500Y348500D01*
X387000Y348500D01*
D18*
X560000Y440000D03*
D19*
X555000Y435000D01*
X322000Y276500D02*
X190000Y276500D01*
D18*
X190000Y276500D03*
D19*
X480500Y435000D02*
X555000Y435000D01*
X480500Y435000D02*
X322000Y276500D01*
D18*
X560000Y430000D03*
D19*
X482500Y430000D01*
X219000Y166500D02*
X190000Y166500D01*
D18*
X190000Y166500D03*
D19*
X219000Y166500D02*
X482500Y430000D01*
D18*
X263000Y240000D03*
D19*
X212500Y240000D01*
D18*
X212500Y240000D03*
X660000Y500000D03*
D19*
X665000Y505000D01*
X665000Y742191D02*
X662596Y744596D01*
D18*
X662596Y744596D03*
D19*
X665000Y742191D02*
X665000Y505000D01*
D18*
X437500Y274000D03*
D19*
X476500Y274000D01*
X480500Y278000D01*
X577000Y278000D01*
X590000Y291000D01*
X590000Y320000D02*
X600000Y330000D01*
X600000Y360000D01*
D18*
X600000Y360000D03*
D19*
X590000Y320000D02*
X590000Y291000D01*
D18*
X437500Y268000D03*
D19*
X477500Y268000D01*
X482500Y273000D01*
X593000Y273000D01*
X603000Y283000D02*
X603000Y320000D01*
D18*
X603000Y320000D03*
D19*
X603000Y283000D02*
X593000Y273000D01*
D18*
X437500Y262000D03*
D19*
X602000Y262000D01*
X615000Y275000D02*
X615000Y355000D01*
X610000Y360000D01*
D18*
X610000Y360000D03*
D19*
X615000Y275000D02*
X602000Y262000D01*
D18*
X437500Y256500D03*
D19*
X606500Y256500D01*
X620000Y270000D02*
X620000Y380000D01*
D18*
X620000Y380000D03*
D19*
X620000Y270000D02*
X606500Y256500D01*
D18*
X610000Y320000D03*
D19*
X610000Y280000D01*
D18*
X483500Y267500D03*
D19*
X597500Y267500D02*
X610000Y280000D01*
X597500Y267500D02*
X483500Y267500D01*
D18*
X537500Y250000D03*
D19*
X610000Y250000D01*
X625000Y265000D01*
D18*
X625000Y320000D03*
D19*
X625000Y265000D01*
D18*
X437500Y280000D03*
D19*
X478500Y284000D02*
X577000Y284000D01*
X584000Y291000D02*
X584000Y320000D01*
D18*
X584000Y320000D03*
D19*
X474500Y280000D02*
X437500Y280000D01*
X474500Y280000D02*
X478500Y284000D01*
X577000Y284000D02*
X584000Y291000D01*
D18*
X630000Y430000D03*
X690000Y315000D03*
X471000Y190500D03*
D19*
X493770Y190500D01*
X493822Y190552D01*
X497178Y190552D01*
X497230Y190500D01*
X580500Y190500D02*
X645500Y255500D01*
X580500Y190500D02*
X497230Y190500D01*
D18*
X630000Y370000D03*
D19*
X630000Y342500D02*
X645500Y327000D01*
X630000Y342500D02*
X630000Y370000D01*
X645500Y327000D02*
X645500Y255500D01*
D18*
X495500Y186000D03*
X620000Y390000D03*
D19*
X625000Y385000D01*
X625000Y341000D02*
X641000Y325000D01*
X641000Y259500D01*
D18*
X641000Y259500D03*
X641000Y245000D03*
D19*
X641000Y242500D01*
X625000Y341000D02*
X625000Y385000D01*
X641000Y242500D02*
X584500Y186000D01*
X495500Y186000D01*
D18*
X446000Y195000D03*
D19*
X635000Y395000D02*
X630000Y400000D01*
D18*
X630000Y400000D03*
D19*
X575000Y195000D02*
X446000Y195000D01*
X575000Y195000D02*
X635112Y255112D01*
X635112Y320000D01*
D18*
X635112Y320000D03*
X635000Y343500D03*
D19*
X635000Y395000D01*
D18*
X420000Y199500D03*
D19*
X630056Y260056D02*
X630056Y329000D01*
D18*
X630056Y329000D03*
D19*
X569500Y199500D02*
X420000Y199500D01*
X569500Y199500D02*
X630056Y260056D01*
D18*
X558500Y75500D03*
D19*
X558500Y138500D01*
X650000Y230000D01*
X650000Y340000D01*
D18*
X650000Y340000D03*
X563556Y75500D03*
D19*
X563560Y75504D01*
X655000Y228730D02*
X655000Y320000D01*
X563560Y137290D02*
X563560Y75504D01*
X563560Y137290D02*
X655000Y228730D01*
D18*
X655000Y320000D03*
X568612Y75500D03*
D19*
X605000Y111888D01*
X605000Y165500D01*
X665000Y225500D01*
X665000Y330000D01*
D18*
X665000Y330000D03*
D19*
X660000Y340000D02*
X660000Y226811D01*
X600000Y166811D01*
X600000Y130000D01*
D18*
X600000Y130000D03*
X660000Y340000D03*
X583500Y75500D03*
D19*
X610000Y102000D01*
X610000Y163189D02*
X670000Y223189D01*
X670000Y340000D01*
X610000Y163189D02*
X610000Y102000D01*
D18*
X670000Y340000D03*
D19*
X680000Y226000D02*
X632000Y178000D01*
X631000Y177000D01*
X680000Y226000D02*
X680000Y340000D01*
D18*
X680000Y340000D03*
D19*
X631000Y177000D02*
X615000Y161000D01*
D18*
X615000Y125000D03*
D19*
X615000Y161000D01*
D20*
X412000Y310000D03*
D19*
X412000Y322000D02*
X500000Y410000D01*
X412000Y322000D02*
X412000Y310000D01*
D18*
X550000Y410000D03*
D19*
X500000Y410000D01*
D20*
X388000Y310000D03*
D19*
X388000Y320500D02*
X487500Y420000D01*
X388000Y320500D02*
X388000Y310000D01*
D18*
X550000Y420000D03*
D19*
X487500Y420000D01*
D20*
X372000Y310000D03*
D19*
X485000Y425000D02*
X555000Y425000D01*
X372000Y312000D02*
X372000Y310000D01*
X372000Y312000D02*
X485000Y425000D01*
D18*
X560000Y420000D03*
D19*
X555000Y425000D01*
D20*
X436000Y310000D03*
D19*
X436000Y323500D02*
X512500Y400000D01*
X436000Y323500D02*
X436000Y310000D01*
D18*
X550000Y400000D03*
D19*
X512500Y400000D01*
D20*
X420000Y310000D03*
D19*
X502500Y405000D02*
X555000Y405000D01*
X502500Y405000D02*
X420000Y322500D01*
X420000Y310000D01*
D18*
X560000Y400000D03*
D19*
X555000Y405000D01*
D20*
X396000Y310000D03*
D19*
X490000Y415000D02*
X555000Y415000D01*
X396000Y321000D02*
X396000Y310000D01*
X396000Y321000D02*
X490000Y415000D01*
D18*
X560000Y410000D03*
D19*
X555000Y415000D01*
D20*
X388000Y415500D03*
D19*
X388000Y429500D02*
X438500Y480000D01*
X388000Y429500D02*
X388000Y415500D01*
D18*
X550000Y480000D03*
D19*
X438500Y480000D01*
D20*
X348000Y415500D03*
D19*
X545000Y495000D02*
X550000Y500000D01*
X406000Y495000D02*
X348000Y437000D01*
X348000Y415500D01*
X406000Y495000D02*
X545000Y495000D01*
D18*
X550000Y500000D03*
D20*
X372000Y415500D03*
D19*
X555000Y485000D02*
X560000Y490000D01*
X555000Y485000D02*
X426500Y485000D01*
X372000Y430500D01*
X372000Y415500D01*
D18*
X560000Y490000D03*
D20*
X364000Y415500D03*
D19*
X364000Y434000D02*
X420000Y490000D01*
X364000Y434000D02*
X364000Y415500D01*
D18*
X540000Y490000D03*
D19*
X420000Y490000D01*
D20*
X412000Y415500D03*
D19*
X455500Y470000D02*
X550000Y470000D01*
X412000Y426500D02*
X412000Y415500D01*
X412000Y426500D02*
X455500Y470000D01*
D18*
X550000Y470000D03*
D20*
X436000Y415500D03*
D19*
X468500Y455000D02*
X555000Y455000D01*
X468500Y455000D02*
X436000Y422500D01*
X436000Y415500D01*
D18*
X560000Y460000D03*
D19*
X555000Y455000D01*
D20*
X396000Y415500D03*
D19*
X448500Y475000D02*
X565000Y475000D01*
X448500Y475000D02*
X396000Y422500D01*
X396000Y415500D01*
D18*
X570000Y480000D03*
D19*
X565000Y475000D01*
D20*
X420000Y415500D03*
D19*
X420000Y420000D02*
X460000Y460000D01*
X420000Y420000D02*
X420000Y415500D01*
D18*
X550000Y460000D03*
D19*
X460000Y460000D01*
D20*
X332000Y415500D03*
D19*
X332000Y440000D02*
X392000Y500000D01*
X332000Y440000D02*
X332000Y415500D01*
X392000Y500000D02*
X530000Y500000D01*
D18*
X530000Y500000D03*
X789500Y747500D03*
D19*
X777000Y760000D01*
X640000Y760000D01*
D18*
X620000Y480000D03*
D19*
X610000Y490000D01*
X610000Y500000D01*
X620000Y510000D01*
X620000Y740000D01*
X640000Y760000D01*
D18*
X670000Y460000D03*
D19*
X695000Y485000D01*
X695000Y513500D02*
X690000Y518500D01*
X690000Y550000D02*
X680000Y560000D01*
X680000Y648500D01*
D18*
X680000Y648500D03*
D19*
X695000Y513500D02*
X695000Y485000D01*
X690000Y518500D02*
X690000Y550000D01*
X835000Y460000D02*
X855000Y440000D01*
X855000Y365000D01*
X845000Y355000D02*
X845000Y350000D01*
D18*
X845000Y350000D03*
D19*
X835000Y460000D02*
X670000Y460000D01*
X845000Y355000D02*
X855000Y365000D01*
D18*
X830000Y770000D03*
D19*
X610000Y750000D02*
X610000Y510000D01*
X600000Y500000D01*
X600000Y480000D01*
D18*
X600000Y480000D03*
D19*
X630000Y770000D02*
X830000Y770000D01*
X630000Y770000D02*
X610000Y750000D01*
D18*
X830000Y764944D03*
D19*
X635056Y764944D01*
D18*
X610000Y480000D03*
D19*
X605000Y485000D01*
X605000Y500000D02*
X615000Y510000D01*
X615000Y744888D02*
X635056Y764944D01*
X605000Y500000D02*
X605000Y485000D01*
X615000Y510000D02*
X615000Y744888D01*
D18*
X620000Y490000D03*
D19*
X645000Y735000D02*
X640000Y740000D01*
X640000Y750000D01*
X645000Y755000D01*
X775000Y755000D01*
X790000Y740000D02*
X802500Y740000D01*
D18*
X802500Y740000D03*
D19*
X645000Y515000D02*
X620000Y490000D01*
X645000Y515000D02*
X645000Y735000D01*
X775000Y755000D02*
X790000Y740000D01*
D18*
X781612Y50000D03*
D19*
X781612Y398388D01*
X760000Y420000D01*
X740000Y420000D01*
D18*
X740000Y420000D03*
X771500Y50000D03*
D19*
X771500Y311500D01*
X764500Y318500D01*
D18*
X764500Y399052D03*
D19*
X764500Y318500D01*
D18*
X729000Y50000D03*
D19*
X729000Y389770D01*
X728885Y389885D01*
D18*
X728885Y389885D03*
X640000Y410000D03*
D19*
X645000Y405000D01*
X645000Y395000D01*
X640000Y390000D01*
X640000Y380000D01*
X670000Y350000D01*
X680000Y350000D01*
X685500Y135500D02*
X670000Y120000D01*
X670000Y107000D01*
X680000Y97000D01*
D18*
X680000Y97000D03*
D19*
X685500Y344500D02*
X680000Y350000D01*
X685500Y344500D02*
X685500Y135500D01*
D18*
X746500Y50000D03*
D19*
X746000Y50500D02*
X746000Y394000D01*
X746000Y50500D02*
X746500Y50000D01*
D18*
X746000Y394000D03*
X756500Y50000D03*
D19*
X756500Y403500D01*
X750000Y410000D01*
X735000Y410000D02*
X730000Y415000D01*
X719000Y415000D02*
X714000Y420000D01*
X670000Y420000D01*
D18*
X670000Y420000D03*
D19*
X735000Y410000D02*
X750000Y410000D01*
X730000Y415000D02*
X719000Y415000D01*
D18*
X723000Y50000D03*
D19*
X723000Y390000D01*
D18*
X723000Y390000D03*
X734865Y50135D03*
D19*
X734865Y405135D01*
X730000Y410000D01*
X670000Y410000D01*
D18*
X670000Y410000D03*
X711500Y50000D03*
X700000Y390000D03*
D19*
X705948Y384052D01*
X705948Y130052D02*
X711452Y124548D01*
X711452Y50048D02*
X711500Y50000D01*
X711452Y50048D02*
X711452Y124548D01*
X705948Y130052D02*
X705948Y384052D01*
D18*
X700000Y50000D03*
X690000Y380000D03*
D19*
X700000Y123000D02*
X700000Y50000D01*
X700000Y123000D02*
X695500Y127500D01*
X695500Y374500D02*
X690000Y380000D01*
X695500Y374500D02*
X695500Y127500D01*
D18*
X705865Y50135D03*
X670000Y390000D03*
D19*
X690000Y390000D01*
X699500Y380500D01*
X705865Y123635D02*
X705865Y50135D01*
X700500Y379500D02*
X699500Y380500D01*
X700500Y129000D02*
X705865Y123635D01*
X700500Y129000D02*
X700500Y379500D01*
D18*
X717365Y50135D03*
D19*
X717365Y126635D01*
D18*
X711500Y378500D03*
D19*
X713000Y131000D02*
X717365Y126635D01*
X713000Y377000D02*
X711500Y378500D01*
X713000Y377000D02*
X713000Y131000D01*
D18*
X670000Y400000D03*
D19*
X710000Y400000D01*
X717500Y392500D01*
D18*
X717500Y137500D03*
D19*
X717500Y392500D01*
D18*
X776556Y50000D03*
D19*
X776556Y398444D01*
X760000Y415000D01*
D18*
X720000Y420000D03*
D19*
X735500Y415000D02*
X760000Y415000D01*
X730500Y420000D02*
X720000Y420000D01*
X730500Y420000D02*
X735500Y415000D01*
D18*
X670000Y430000D03*
D19*
X790000Y430000D01*
X820000Y400000D01*
D18*
X820000Y400000D03*
X670000Y440000D03*
D19*
X805000Y440000D02*
X820000Y425000D01*
D18*
X820000Y425000D03*
D19*
X805000Y440000D02*
X670000Y440000D01*
D18*
X660000Y440000D03*
D19*
X665000Y435000D01*
X795000Y435000D02*
X835000Y395000D01*
D18*
X835000Y395000D03*
D19*
X795000Y435000D02*
X665000Y435000D01*
D18*
X660000Y430000D03*
D19*
X665000Y425000D01*
X785000Y425000D02*
X820000Y390000D01*
D18*
X820000Y390000D03*
D19*
X785000Y425000D02*
X665000Y425000D01*
D18*
X700000Y470000D03*
X684500Y624000D03*
D19*
X700000Y515000D02*
X700000Y470000D01*
X700000Y515000D02*
X694500Y520500D01*
X694500Y551000D01*
X684500Y561000D01*
X684500Y624000D01*
X725000Y470000D02*
X730000Y465000D01*
X860000Y350000D02*
X840000Y330000D01*
D18*
X840000Y330000D03*
X840000Y130000D03*
D19*
X725000Y470000D02*
X700000Y470000D01*
X730000Y465000D02*
X836500Y465000D01*
X860000Y441500D01*
X860000Y350000D01*
X840000Y130000D02*
X845000Y125000D01*
X845000Y120000D01*
D18*
X845000Y101500D03*
D19*
X845000Y115000D01*
D18*
X940000Y100000D03*
D19*
X860000Y100000D01*
X845000Y115000D01*
X845000Y120000D01*
D18*
X950000Y180000D03*
D19*
X930000Y180000D01*
D18*
X930000Y180000D03*
X650000Y460000D03*
D19*
X655000Y455000D01*
D18*
X850000Y370000D03*
D19*
X810000Y455000D02*
X655000Y455000D01*
X810000Y455000D02*
X850000Y415000D01*
X850000Y370000D01*
D18*
X835500Y150000D03*
D19*
X845000Y140500D01*
X845000Y135000D02*
X850000Y130000D01*
X1060000Y50000D02*
X1065000Y50000D01*
D18*
X1065000Y50000D03*
D19*
X845000Y135000D02*
X845000Y140500D01*
X850000Y130000D02*
X850000Y116000D01*
X860500Y105500D01*
X1004500Y105500D01*
X1060000Y50000D01*
D18*
X329500Y564500D03*
D19*
X379500Y564500D01*
D18*
X379500Y564500D03*
X350910Y613090D03*
D19*
X337910Y613090D02*
X299500Y651500D01*
X337910Y613090D02*
X350910Y613090D01*
D18*
X299500Y682000D03*
D19*
X299500Y672000D01*
D18*
X345500Y664500D03*
D19*
X307000Y664500D01*
X299500Y672000D01*
D18*
X295000Y624500D03*
D19*
X299500Y629000D01*
X299500Y651500D01*
X299500Y672000D01*
D18*
X310500Y95259D03*
D19*
X305000Y89759D01*
D18*
X305000Y62500D03*
D19*
X305000Y89759D01*
D18*
X292500Y91207D03*
D19*
X282500Y81207D01*
X282500Y62000D01*
D18*
X282500Y62000D03*
X260500Y84052D03*
D19*
X260500Y62000D01*
D18*
X260500Y62000D03*
X205500Y254000D03*
D19*
X205500Y240000D01*
D18*
X205500Y240000D03*
X440000Y60000D03*
D19*
X440000Y130000D01*
D18*
X440000Y130000D03*
D21*
X1004900Y588900D02*
X1020000Y604000D01*
X1020000Y640000D02*
X1010000Y650000D01*
X1020000Y640000D02*
X1020000Y604000D01*
X1010000Y650000D02*
X1010000Y710000D01*
D18*
X1010000Y710000D03*
X751500Y625000D03*
D19*
X756500Y620000D01*
X790352Y620000D01*
D18*
X790352Y620000D03*
X733000Y630000D03*
D19*
X810000Y630000D01*
X860000Y680000D01*
D18*
X860000Y680000D03*
X709500Y697000D03*
D19*
X709500Y719500D01*
X724500Y734500D01*
D18*
X724500Y734500D03*
X790352Y592500D03*
D19*
X777248Y592500D01*
D18*
X777248Y592500D03*
X777248Y600000D03*
D19*
X790352Y600000D01*
D18*
X790352Y600000D03*
X796500Y40000D03*
X830000Y165500D03*
X1146000Y820000D03*
X761500Y40000D03*
X810000Y170000D03*
X810000Y177000D03*
X650000Y130000D03*
X1140000Y820000D03*
D22*
X940000Y300000D03*
X940000Y270982D03*
X940291Y249709D03*
X940041Y330041D03*
X930000Y390000D03*
D23*
X924500Y280000D02*
X924500Y260500D01*
X924500Y280000D02*
X924500Y320000D01*
X924500Y350000D01*
X924500Y384500D01*
X930000Y390000D01*
D24*
X935291Y249709D02*
X940291Y249709D01*
X935291Y249709D02*
X924500Y260500D01*
X933518Y270982D02*
X940000Y270982D01*
X933518Y270982D02*
X924500Y280000D01*
X940000Y300000D02*
X924500Y315500D01*
X924500Y320000D01*
X940041Y330041D02*
X924500Y345582D01*
X924500Y350000D01*
D22*
X1100000Y140000D03*
D21*
X1132500Y107500D01*
X1132500Y75000D01*
D22*
X1132500Y75000D03*
X1080000Y200000D03*
D19*
X1070000Y190000D01*
X1070000Y160000D01*
X1060000Y150000D01*
X1060000Y130000D01*
D22*
X1030000Y100000D03*
D19*
X1060000Y130000D01*
D22*
X1050000Y260000D03*
D19*
X1050000Y190000D01*
D22*
X1050000Y190000D03*
X1070000Y150000D03*
D19*
X1110000Y150000D01*
X1120000Y150000D01*
X1160000Y110000D01*
D18*
X1160000Y110000D03*
D19*
X1110000Y150000D02*
X1100000Y160000D01*
X1100000Y190000D01*
X1106500Y196500D01*
X1106500Y218000D01*
D22*
X1106500Y218000D03*
D18*
X320000Y101500D03*
D19*
X320000Y62500D01*
D18*
X320000Y62500D03*
X275500Y94000D03*
D19*
X275500Y43000D01*
X281500Y37000D01*
X323500Y37000D01*
X326000Y39500D01*
D18*
X326000Y39500D03*
D22*
X990000Y320000D03*
D19*
X1030000Y320000D01*
X1041541Y308459D02*
X1104041Y308459D01*
D22*
X1104041Y308459D03*
D19*
X1041541Y308459D02*
X1030000Y320000D01*
D22*
X990000Y300000D03*
D19*
X1009000Y300000D01*
X1023500Y285500D01*
X1101000Y285500D01*
X1105000Y289500D01*
D22*
X1105000Y289500D03*
X990000Y270000D03*
D19*
X1098500Y270000D01*
X1105500Y277000D01*
D22*
X1105500Y277000D03*
D18*
X340000Y500000D03*
X310000Y560000D03*
D19*
X313500Y563500D01*
X323500Y563500D02*
X350000Y537000D01*
D18*
X350000Y537000D03*
D19*
X323500Y563500D02*
X313500Y563500D01*
M02*
