G04 EAGLE Gerber RS-274X export*
G75*
%MOMM*%
%FSLAX34Y34*%
%LPD*%
%INSoldermask Bottom*%
%IPPOS*%
%AMOC8*
5,1,8,0,0,1.08239X$1,22.5*%
G01*
%ADD10R,1.538200X1.538200*%
%ADD11C,1.538200*%
%ADD12C,1.733200*%
%ADD13C,2.648200*%
%ADD14C,3.453200*%
%ADD15C,2.082800*%
%ADD16C,1.203200*%
%ADD17C,1.703200*%
%ADD18C,1.403200*%
%ADD19C,0.703200*%
%ADD20C,0.556400*%
%ADD21C,0.506400*%
%ADD22C,0.606400*%


D10*
X1004900Y538100D03*
D11*
X979500Y550800D03*
X1004900Y563500D03*
X979500Y576200D03*
X1004900Y588900D03*
X979500Y601600D03*
X1004900Y614300D03*
X979500Y627000D03*
D12*
X1117400Y516350D03*
X1117400Y541750D03*
X1117400Y648850D03*
X1117400Y623450D03*
D13*
X1037900Y505150D03*
X1037900Y660050D03*
D14*
X1068400Y639750D03*
X1068400Y525450D03*
D15*
X557495Y618508D03*
X532095Y618508D03*
X506695Y618508D03*
X481295Y618508D03*
X1112997Y828994D03*
X1112997Y803594D03*
X1087597Y828994D03*
X1087597Y803594D03*
X1062197Y828994D03*
X1062197Y803594D03*
X1036797Y828994D03*
X1036797Y803594D03*
X1011397Y828994D03*
X1011397Y803594D03*
D16*
X551300Y775100D03*
X551300Y851300D03*
X525900Y775100D03*
X525900Y851300D03*
X500500Y775100D03*
X500500Y851300D03*
X576700Y775100D03*
X576700Y851300D03*
X602100Y775100D03*
X602100Y851300D03*
D17*
X1086000Y214500D03*
X1077000Y214500D03*
X1095000Y214500D03*
X1090500Y214500D03*
X1081500Y214500D03*
X1145500Y214500D03*
X1141500Y214500D03*
X1149500Y214500D03*
X1086000Y359500D03*
X1077000Y359500D03*
X1095000Y359500D03*
X1090500Y359500D03*
X1081500Y359500D03*
X1145500Y359500D03*
X1141500Y359500D03*
X1149500Y359500D03*
D18*
X82500Y653200D02*
X70500Y653200D01*
X70500Y566800D02*
X82500Y566800D01*
X40500Y653200D02*
X28500Y653200D01*
X28500Y566800D02*
X40500Y566800D01*
D19*
X71500Y639000D03*
X71500Y581000D03*
D20*
X40000Y735500D03*
X64500Y735500D03*
X90000Y735500D03*
X40000Y685500D03*
X65000Y685500D03*
X90000Y685500D03*
X120500Y830000D03*
X280000Y830000D03*
X440000Y829500D03*
X400000Y810000D03*
X419000Y783000D03*
X240000Y810000D03*
X258500Y783000D03*
X99000Y783500D03*
X80000Y810000D03*
X200500Y735000D03*
X225000Y735000D03*
X250000Y735000D03*
X200000Y685000D03*
X225000Y685000D03*
X360500Y735000D03*
X385000Y735000D03*
X410000Y735000D03*
X30000Y640000D03*
X60000Y640000D03*
X30000Y580000D03*
X60000Y580000D03*
X115500Y620000D03*
X115500Y600000D03*
X160000Y610000D03*
X115000Y576000D03*
X210000Y650000D03*
X210000Y624500D03*
X210000Y585000D03*
X210000Y570000D03*
X292500Y673000D03*
X302500Y692500D03*
X362500Y716500D03*
X377500Y651500D03*
X760000Y650000D03*
X780000Y650000D03*
X760000Y670000D03*
X780000Y670000D03*
X180000Y530000D03*
X180000Y420000D03*
X180000Y310000D03*
X180000Y200000D03*
X180000Y90000D03*
X180000Y460000D03*
X180000Y430000D03*
X180000Y410000D03*
X180000Y360000D03*
X180000Y340000D03*
X180000Y330000D03*
X180000Y300000D03*
X180000Y290000D03*
X180000Y180000D03*
X180000Y70000D03*
X540000Y360000D03*
X550000Y370000D03*
X560000Y380000D03*
X570000Y390000D03*
X580000Y400000D03*
X600000Y420000D03*
X600000Y440000D03*
X620000Y440000D03*
X610000Y430000D03*
X580000Y460000D03*
X580000Y470000D03*
X540000Y500000D03*
X550000Y490000D03*
X560000Y480000D03*
X640000Y460000D03*
X650000Y470000D03*
X660000Y480000D03*
X670000Y490000D03*
X680000Y500000D03*
X640000Y400000D03*
X650000Y390000D03*
X660000Y380000D03*
X670000Y370000D03*
X680000Y360000D03*
X50000Y60000D03*
X50000Y170000D03*
X50000Y280000D03*
X50000Y390000D03*
X50000Y500000D03*
X740000Y190000D03*
X765000Y190000D03*
X790000Y190000D03*
X815000Y190000D03*
X740000Y140000D03*
X765000Y140000D03*
X790000Y140000D03*
X680000Y110000D03*
X740000Y100000D03*
X767448Y110000D03*
X420000Y150000D03*
X540000Y40000D03*
X590000Y40000D03*
X390000Y30000D03*
X553500Y55000D03*
X490000Y60000D03*
X356000Y394500D03*
X404000Y394500D03*
X340000Y310000D03*
X380000Y310000D03*
X428000Y310000D03*
X444000Y310000D03*
X236000Y310000D03*
X670000Y70000D03*
X840000Y70000D03*
X740000Y40000D03*
X630000Y100000D03*
X680000Y190000D03*
X680000Y140000D03*
X980000Y180000D03*
X1030000Y180000D03*
X950000Y190000D03*
X1000000Y190000D03*
X1000000Y280000D03*
X1010000Y310000D03*
X1090000Y250000D03*
X1090000Y280000D03*
X1090000Y296052D03*
X1090000Y312511D03*
X1050000Y327948D03*
X990000Y410000D03*
X1040000Y410000D03*
X740000Y700000D03*
X930000Y740000D03*
X950000Y690000D03*
X850000Y640000D03*
X850000Y620000D03*
X715000Y595000D03*
X740000Y595000D03*
X800000Y540000D03*
X825000Y540000D03*
X784500Y530000D03*
X770000Y480000D03*
X811000Y487500D03*
X835500Y487500D03*
X800000Y481500D03*
X860000Y481500D03*
X910000Y481500D03*
X819635Y439635D03*
X820000Y419944D03*
X820000Y383500D03*
X820000Y373552D03*
X820000Y320000D03*
X820000Y310000D03*
X820000Y260000D03*
X790000Y260000D03*
X764500Y260000D03*
X550000Y220000D03*
X500000Y670000D03*
X525500Y670000D03*
X557500Y670000D03*
X576500Y670000D03*
X599500Y670000D03*
X500000Y590000D03*
X520000Y590000D03*
X550000Y590000D03*
X570000Y590000D03*
X600000Y590000D03*
X483500Y564500D03*
X450000Y530000D03*
X450000Y550000D03*
X450000Y700000D03*
X450000Y680000D03*
X470000Y700000D03*
X270000Y500000D03*
X380000Y500000D03*
X700000Y540000D03*
X870000Y450000D03*
X1050000Y460000D03*
X580000Y244500D03*
X600000Y244500D03*
X675000Y265500D03*
X1060000Y720000D03*
X1150000Y710000D03*
X940000Y740000D03*
X154500Y570000D03*
X317500Y580000D03*
X347000Y580000D03*
X367500Y580000D03*
X297500Y580000D03*
X342000Y580000D03*
X357500Y580000D03*
X270000Y580000D03*
X487500Y290000D03*
X512500Y290000D03*
X250000Y150000D03*
X250000Y96000D03*
X270000Y62000D03*
X250000Y35322D03*
X360000Y40000D03*
X370000Y110000D03*
X370000Y160000D03*
X300000Y500000D03*
X740000Y290000D03*
X30000Y550000D03*
X640000Y30000D03*
X750000Y30000D03*
X890000Y140000D03*
X330000Y800000D03*
X580000Y490000D03*
X485500Y554444D03*
X512500Y540000D03*
X600000Y510000D03*
X485500Y574500D03*
X590000Y510000D03*
X485500Y569444D03*
X460000Y567000D03*
X447448Y567500D03*
X540000Y540000D03*
X580000Y510000D03*
X485500Y559500D03*
X455552Y590000D03*
X447448Y593000D03*
X259500Y604500D03*
X330500Y612979D03*
X110000Y610000D03*
X94000Y612500D03*
X620000Y450000D03*
X660000Y470000D03*
X630000Y440000D03*
X620000Y410000D03*
X660000Y390000D03*
X650000Y380000D03*
X630000Y420000D03*
X770000Y420000D03*
X824500Y469500D03*
X879500Y469500D03*
X827000Y445500D03*
X770000Y445000D03*
X770000Y369500D03*
X770000Y344500D03*
X770000Y319500D03*
X570000Y380000D03*
X550000Y320000D03*
X610000Y410000D03*
X675000Y320000D03*
X600000Y450000D03*
X600000Y540000D03*
X640000Y470000D03*
X380000Y415500D03*
X428000Y415500D03*
X444000Y415500D03*
X230000Y450000D03*
X230000Y425000D03*
X230000Y410000D03*
X340000Y394500D03*
X230000Y375000D03*
X292000Y651500D03*
X327500Y692500D03*
X377500Y681500D03*
X377500Y626500D03*
X480000Y810000D03*
X340000Y725000D03*
X292500Y681556D03*
X344000Y727500D03*
X347500Y730682D03*
X312500Y604948D03*
X353000Y723500D03*
X337500Y605000D03*
X358000Y723500D03*
X369500Y723500D03*
X374500Y723500D03*
X470000Y830000D03*
X250000Y500000D03*
X462500Y250000D03*
X512500Y250000D03*
X470000Y810000D03*
X530000Y80000D03*
X480000Y60000D03*
X650000Y170000D03*
X960000Y30000D03*
X352052Y315000D03*
X214000Y312000D03*
X402000Y314000D03*
X214000Y337000D03*
X237500Y250000D03*
X288000Y250000D03*
X338000Y250000D03*
X388000Y250000D03*
X880000Y440000D03*
X779010Y720000D03*
X767500Y694400D03*
X805000Y674000D03*
X776000Y625500D03*
X860000Y690000D03*
X1056000Y670000D03*
X360000Y510000D03*
X500000Y520000D03*
X480000Y520000D03*
X420000Y510000D03*
X220000Y210000D03*
X480000Y760000D03*
X610000Y760000D03*
X850000Y860000D03*
X290000Y70000D03*
X560000Y390000D03*
X580000Y420000D03*
X575000Y320000D03*
X560000Y470000D03*
X525000Y540000D03*
X570000Y470000D03*
X550000Y540000D03*
X590000Y430000D03*
X150000Y780000D03*
X120000Y40000D03*
X100000Y680000D03*
X120000Y140000D03*
X110000Y680000D03*
X120000Y250000D03*
X120000Y690000D03*
X130000Y360000D03*
X120000Y710000D03*
X130000Y470000D03*
X130000Y710000D03*
X110000Y730000D03*
X640000Y20000D03*
X140000Y730000D03*
X500000Y210000D03*
X450000Y290000D03*
X533000Y210000D03*
X520000Y360000D03*
X540000Y350000D03*
X150000Y740000D03*
X390000Y490000D03*
X140000Y780000D03*
X512000Y300000D03*
X570000Y310000D03*
X630000Y410000D03*
X770000Y395000D03*
X530000Y510000D03*
X500000Y540000D03*
X690000Y510000D03*
X590000Y450000D03*
X577500Y540000D03*
X770000Y470000D03*
X300000Y740000D03*
X230000Y670000D03*
X565000Y244500D03*
X537500Y300000D03*
X530000Y320000D03*
X485500Y314052D03*
X260000Y700000D03*
X910000Y450000D03*
X920000Y440000D03*
X830000Y300000D03*
X840000Y360000D03*
X720000Y530000D03*
X920000Y840000D03*
X630000Y450000D03*
X685000Y540000D03*
X590000Y410000D03*
X596000Y320000D03*
X786000Y382500D03*
X790000Y305000D03*
X655000Y520000D03*
X651365Y744365D03*
X650000Y490000D03*
X645500Y744500D03*
X650000Y500000D03*
X656980Y744480D03*
X680000Y510000D03*
X675056Y740000D03*
X670000Y510000D03*
X670000Y740000D03*
X550000Y440000D03*
X180000Y370000D03*
X560000Y440000D03*
X190000Y276500D03*
X560000Y430000D03*
X190000Y166500D03*
X263000Y240000D03*
X212500Y240000D03*
X660000Y500000D03*
X662596Y744596D03*
X437500Y274000D03*
X600000Y360000D03*
X437500Y268000D03*
X603000Y320000D03*
X437500Y262000D03*
X610000Y360000D03*
X437500Y256500D03*
X620000Y380000D03*
X610000Y320000D03*
X483500Y267500D03*
X537500Y250000D03*
X625000Y320000D03*
X437500Y280000D03*
X584000Y320000D03*
X630000Y430000D03*
X690000Y315000D03*
X471000Y190500D03*
X630000Y370000D03*
X495500Y186000D03*
X620000Y390000D03*
X641000Y259500D03*
X641000Y245000D03*
X446000Y195000D03*
X630000Y400000D03*
X635112Y320000D03*
X635000Y343500D03*
X420000Y199500D03*
X630056Y329000D03*
X558500Y75500D03*
X650000Y340000D03*
X563556Y75500D03*
X655000Y320000D03*
X568612Y75500D03*
X665000Y330000D03*
X600000Y130000D03*
X660000Y340000D03*
X583500Y75500D03*
X670000Y340000D03*
X680000Y340000D03*
X615000Y125000D03*
D21*
X412000Y310000D03*
D20*
X550000Y410000D03*
D21*
X388000Y310000D03*
D20*
X550000Y420000D03*
D21*
X372000Y310000D03*
D20*
X560000Y420000D03*
D21*
X436000Y310000D03*
D20*
X550000Y400000D03*
D21*
X420000Y310000D03*
D20*
X560000Y400000D03*
D21*
X396000Y310000D03*
D20*
X560000Y410000D03*
D21*
X388000Y415500D03*
D20*
X550000Y480000D03*
D21*
X348000Y415500D03*
D20*
X550000Y500000D03*
D21*
X372000Y415500D03*
D20*
X560000Y490000D03*
D21*
X364000Y415500D03*
D20*
X540000Y490000D03*
D21*
X412000Y415500D03*
D20*
X550000Y470000D03*
D21*
X436000Y415500D03*
D20*
X560000Y460000D03*
D21*
X396000Y415500D03*
D20*
X570000Y480000D03*
D21*
X420000Y415500D03*
D20*
X550000Y460000D03*
D21*
X332000Y415500D03*
D20*
X530000Y500000D03*
X789500Y747500D03*
X620000Y480000D03*
X670000Y460000D03*
X680000Y648500D03*
X845000Y350000D03*
X830000Y770000D03*
X600000Y480000D03*
X830000Y764944D03*
X610000Y480000D03*
X620000Y490000D03*
X802500Y740000D03*
X781612Y50000D03*
X740000Y420000D03*
X771500Y50000D03*
X764500Y399052D03*
X729000Y50000D03*
X728885Y389885D03*
X640000Y410000D03*
X680000Y97000D03*
X746500Y50000D03*
X746000Y394000D03*
X756500Y50000D03*
X670000Y420000D03*
X723000Y50000D03*
X723000Y390000D03*
X734865Y50135D03*
X670000Y410000D03*
X711500Y50000D03*
X700000Y390000D03*
X700000Y50000D03*
X690000Y380000D03*
X705865Y50135D03*
X670000Y390000D03*
X717365Y50135D03*
X711500Y378500D03*
X670000Y400000D03*
X717500Y137500D03*
X776556Y50000D03*
X720000Y420000D03*
X670000Y430000D03*
X820000Y400000D03*
X670000Y440000D03*
X820000Y425000D03*
X660000Y440000D03*
X835000Y395000D03*
X660000Y430000D03*
X820000Y390000D03*
X700000Y470000D03*
X684500Y624000D03*
X840000Y330000D03*
X840000Y130000D03*
X845000Y101500D03*
X940000Y100000D03*
X950000Y180000D03*
X930000Y180000D03*
X650000Y460000D03*
X850000Y370000D03*
X835500Y150000D03*
X1065000Y50000D03*
X329500Y564500D03*
X379500Y564500D03*
X350910Y613090D03*
X299500Y682000D03*
X345500Y664500D03*
X295000Y624500D03*
X310500Y95259D03*
X305000Y62500D03*
X292500Y91207D03*
X282500Y62000D03*
X260500Y84052D03*
X260500Y62000D03*
X205500Y254000D03*
X205500Y240000D03*
X440000Y60000D03*
X440000Y130000D03*
X1010000Y710000D03*
X751500Y625000D03*
X790352Y620000D03*
X733000Y630000D03*
X860000Y680000D03*
X709500Y697000D03*
X724500Y734500D03*
X790352Y592500D03*
X777248Y592500D03*
X777248Y600000D03*
X790352Y600000D03*
X796500Y40000D03*
X830000Y165500D03*
X1146000Y820000D03*
X761500Y40000D03*
X810000Y170000D03*
X810000Y177000D03*
X650000Y130000D03*
X1140000Y820000D03*
D22*
X940000Y300000D03*
X940000Y270982D03*
X940291Y249709D03*
X940041Y330041D03*
X930000Y390000D03*
X1100000Y140000D03*
X1132500Y75000D03*
X1080000Y200000D03*
X1030000Y100000D03*
X1050000Y260000D03*
X1050000Y190000D03*
X1070000Y150000D03*
D20*
X1160000Y110000D03*
D22*
X1106500Y218000D03*
D20*
X320000Y101500D03*
X320000Y62500D03*
X275500Y94000D03*
X326000Y39500D03*
D22*
X990000Y320000D03*
X1104041Y308459D03*
X990000Y300000D03*
X1105000Y289500D03*
X990000Y270000D03*
X1105500Y277000D03*
D20*
X340000Y500000D03*
X310000Y560000D03*
X350000Y537000D03*
M02*
